<svg width="371" height="99" viewBox="0 0 371 99" fill="none" xmlns="http://www.w3.org/2000/svg">
<path d="M125.129 81.9426H125.498C126.532 81.9426 127.565 81.795 127.565 80.3185V65.5541C127.565 64.0776 126.458 63.93 125.498 63.93H125.129V63.0441C126.236 63.0441 127.934 63.1918 129.337 63.1918C130.739 63.1918 132.437 63.0441 133.766 63.0441V63.93H133.397C132.363 63.93 131.33 64.0776 131.33 65.5541V80.3185C131.33 81.795 132.437 81.9426 133.397 81.9426H133.766V82.8285C132.437 82.8285 130.739 82.7547 129.337 82.7547C127.934 82.7547 126.31 82.8285 125.203 82.8285V81.9426H125.129Z" fill="black"/>
<path d="M133.767 82.9024C132.438 82.9024 130.74 82.8285 129.337 82.8285C127.935 82.8285 126.311 82.9024 125.203 82.9024H125.056V82.7547V81.9427V81.795H125.203H125.572C126.606 81.795 127.566 81.6474 127.566 80.3186V65.5541C127.566 64.1515 126.606 64.0777 125.572 64.0777H125.056V63.9301V62.8965H125.203C126.311 62.8965 128.009 62.9704 129.411 62.9704C130.814 62.9704 132.512 62.8965 133.84 62.8965H133.988V63.0442V64.0039H133.84H133.471C132.438 64.0039 131.478 64.0777 131.478 65.4803V80.2448C131.478 81.6474 132.438 81.7212 133.471 81.7212H133.988V81.8688V82.8285H133.767V82.9024ZM133.619 82.6809V82.0903H133.324C132.29 82.0903 131.109 81.9427 131.109 80.3186V65.5541C131.109 64.0039 132.29 63.8562 133.324 63.8562H133.619V63.2657C132.29 63.2657 130.666 63.4133 129.337 63.4133C128.009 63.4133 126.384 63.3395 125.277 63.2657V63.8562H125.572C126.606 63.8562 127.787 64.0039 127.787 65.5541V80.3186C127.787 81.8688 126.606 82.0903 125.572 82.0903H125.277V82.6809C126.384 82.6809 127.935 82.5332 129.337 82.5332C130.666 82.5332 132.29 82.6071 133.619 82.6809Z" fill="black"/>
<path d="M153.182 77.218L153.256 66.5876C153.256 64.2991 151.632 63.93 150.82 63.93H150.229V63.0441C151.558 63.0441 152.887 63.1918 154.215 63.1918C155.397 63.1918 156.504 63.0441 157.685 63.0441V63.93H157.242C156.061 63.93 154.732 64.1515 154.732 67.5473V80.3923C154.732 81.352 154.732 82.3855 154.88 83.2714H153.772L139.23 67.0305V78.6944C139.23 81.1306 139.672 82.0164 141.887 82.0164H142.404V82.9023C141.223 82.9023 139.968 82.8285 138.787 82.8285C137.532 82.8285 136.203 82.9023 134.948 82.9023V82.0164H135.317C137.236 82.0164 137.827 80.6876 137.827 78.3991V66.44C137.827 64.8897 136.498 63.93 135.243 63.93H134.874V63.0441C135.908 63.0441 137.015 63.1918 138.122 63.1918C138.934 63.1918 139.82 63.0441 140.632 63.0441L153.182 77.218Z" fill="black"/>
<path d="M154.806 83.3453L153.625 83.2715L139.303 67.3259V78.6207C139.303 81.0568 139.746 81.795 141.813 81.795H142.404V81.9427V82.9024H142.256C141.001 82.9024 139.82 82.8285 138.639 82.8285C137.384 82.8285 136.055 82.9024 134.8 82.9024H134.652V82.7547V81.795H134.8H135.169C137.015 81.795 137.605 80.6139 137.605 78.3254V66.44C137.605 64.9636 136.35 64.0039 135.169 64.0039H134.652V63.8562V62.8965H134.8C135.907 62.8965 137.015 62.9704 138.048 62.9704C138.86 62.9704 139.672 62.8965 140.632 62.8965L153.034 76.8489V66.5877C153.034 64.373 151.558 64.0777 150.672 64.0777H149.934V63.9301V62.8965H150.081C151.41 62.8965 152.739 62.9704 154.068 62.9704C155.249 62.9704 156.356 62.8965 157.537 62.8965H157.685V63.0442V64.0039H157.537H157.094C155.913 64.0039 154.732 64.1515 154.732 67.4735V80.3186C154.732 81.2783 154.732 82.3118 154.88 83.1238V83.2715H154.806V83.3453ZM153.698 83.05H154.658C154.511 82.238 154.511 81.2783 154.511 80.3186V67.4735C154.511 64.0777 155.913 63.7824 157.168 63.7824H157.463V63.1918C156.356 63.1918 155.249 63.3395 154.141 63.3395C152.813 63.3395 151.558 63.2657 150.303 63.1918V63.7824H150.819C151.705 63.7824 153.403 64.1515 153.403 66.5877V77.2919L153.329 77.3657L153.256 77.4395L140.706 63.2657C139.894 63.2657 139.082 63.4133 138.196 63.4133C137.162 63.4133 136.129 63.3395 135.095 63.2657V63.8562H135.317C136.646 63.8562 137.974 64.8897 137.974 66.5138V78.3992C137.974 80.6877 137.31 82.0903 135.317 82.0903H135.021V82.6809C136.276 82.6809 137.531 82.5332 138.713 82.5332C139.894 82.5332 141.075 82.6071 142.256 82.6809V82.0903H141.813C139.598 82.0903 139.008 81.1306 139.008 78.6945V66.6615L153.698 83.05Z" fill="black"/>
<path d="M161.819 64.4468C159.678 64.4468 159.605 64.9636 159.162 67.0306H158.35C158.497 66.2185 158.571 65.4803 158.719 64.5945C158.793 63.7824 158.866 63.0442 158.866 62.2321H159.531C159.752 63.0442 160.49 63.0442 161.229 63.0442H175.772C176.51 63.0442 177.248 63.0442 177.322 62.1583L177.986 62.306C177.912 63.0442 177.765 63.8562 177.691 64.5945C177.617 65.3327 177.617 66.1447 177.617 66.8829L176.805 67.1782C176.731 66.1447 176.584 64.4468 174.738 64.4468H170.087V79.5065C170.087 81.7212 171.047 81.9427 172.45 81.9427H172.966V82.8285C171.859 82.8285 169.866 82.7547 168.389 82.7547C166.692 82.7547 164.698 82.8285 163.591 82.8285V81.9427H164.108C165.658 81.9427 166.47 81.795 166.47 79.5804V64.4468H161.819Z" fill="black"/>
<path d="M172.966 82.9024C171.859 82.9024 169.866 82.8285 168.389 82.8285C166.692 82.8285 164.698 82.9024 163.591 82.9024H163.443V82.7547V81.795H163.591H164.108C165.658 81.7212 166.322 81.7212 166.322 79.5804V64.5945H161.819V64.4468V64.373H166.544V79.5804C166.544 81.8688 165.658 82.0903 164.108 82.0903H163.665V82.6809C164.772 82.6809 166.692 82.5332 168.316 82.5332C169.792 82.5332 171.711 82.6071 172.819 82.6809V82.0903H172.376C170.973 82.0903 169.94 81.7212 169.94 79.5065V64.373H174.664C176.584 64.373 176.805 65.9971 176.879 67.0306L177.47 66.8091C177.47 66.0709 177.47 65.3327 177.543 64.5945C177.617 63.8562 177.765 63.118 177.839 62.4536L177.396 62.3798C177.248 63.1918 176.436 63.2657 175.772 63.2657H161.229C161.155 63.2657 161.155 63.2657 161.081 63.2657C160.417 63.2657 159.678 63.2657 159.457 62.4536H159.014C159.014 63.2657 158.94 64.0039 158.866 64.7421C158.793 65.4803 158.645 66.2924 158.571 67.0306H159.162C159.531 65.0374 159.752 64.4468 161.893 64.4468V64.5945V64.7421C159.826 64.8159 159.826 65.1112 159.383 67.2521V67.3259H159.309H158.35V67.1782C158.423 66.3662 158.571 65.628 158.719 64.7421C158.866 63.9301 158.866 63.1918 158.866 62.3798V62.2321H159.014H159.752V62.306C159.974 63.0442 160.49 63.0442 161.155 63.0442C161.229 63.0442 161.229 63.0442 161.302 63.0442H175.772C176.584 63.0442 177.1 63.0442 177.174 62.306V62.1583H177.322L178.134 62.306V62.4536C178.06 63.1918 177.912 64.0039 177.839 64.7421C177.765 65.4803 177.765 66.2924 177.765 67.0306V67.1044H177.691L176.658 67.4735V67.3259C176.584 66.2924 176.436 64.7421 174.664 64.7421H170.161V79.6542C170.161 81.795 171.047 81.9427 172.376 81.9427H173.04V82.0903V83.05H172.966V82.9024Z" fill="black"/>
<path d="M178.872 81.9426H179.241C180.274 81.9426 181.308 81.795 181.308 80.3185V65.5541C181.308 64.0776 180.2 63.93 179.241 63.93H178.872V63.0441C180.57 63.0441 183.522 63.1918 185.885 63.1918C188.247 63.1918 191.2 63.0441 193.119 63.0441C193.046 64.2253 193.119 66.1447 193.193 67.3996L192.307 67.6211C192.16 65.7756 191.864 64.2991 188.838 64.2991H184.925V71.6813H188.247C189.945 71.6813 190.314 70.7216 190.462 69.1714H191.274C191.2 70.2787 191.2 71.386 191.2 72.4934C191.2 73.6007 191.2 74.6342 191.274 75.7415L190.462 75.8892C190.314 74.1913 190.24 73.084 188.247 73.084H184.851V79.6541C184.851 81.4997 186.475 81.4997 188.321 81.4997C191.717 81.4997 193.193 81.2782 194.079 78.03L194.891 78.2515C194.522 79.7279 194.153 81.2044 193.931 82.7547C192.16 82.7547 188.911 82.6808 186.328 82.6808C183.818 82.6808 180.422 82.7547 178.798 82.7547V81.9426H178.872Z" fill="black"/>
<path d="M194.006 82.9024C192.16 82.9024 188.912 82.7547 186.402 82.7547C183.892 82.7547 180.496 82.9024 178.872 82.9024H178.725V82.7547V81.8688V81.7212H178.872H179.241C180.275 81.7212 181.161 81.5736 181.235 80.2448V65.4803C181.235 64.0777 180.275 64.0039 179.241 64.0039H178.725V63.8562V62.8965H178.872C180.57 62.8965 183.523 62.9704 185.885 62.9704C188.248 62.9704 191.201 62.8965 193.12 62.8965H193.268V63.0442C193.268 63.4871 193.268 64.0039 193.268 64.5206C193.268 65.4803 193.268 66.5877 193.341 67.3997V67.4735H193.268L192.308 67.7688V67.6212C192.16 65.7756 191.865 64.4468 188.986 64.4468H185.147V71.6076H188.395C190.019 71.6076 190.315 70.7955 190.536 69.2453V69.1714H190.61H191.57V69.3191C191.496 70.4264 191.496 71.5337 191.496 72.6411C191.496 73.6746 191.496 74.7819 191.57 75.8892V75.9631H191.496L190.536 76.1845V76.0369C190.315 74.339 190.315 73.3793 188.469 73.3793H185.221V79.8756C185.221 81.5736 186.697 81.5736 188.543 81.5736C191.939 81.5736 193.341 81.3521 194.153 78.1777V78.0301H194.301L195.187 78.2516V78.3992C194.818 79.8756 194.523 81.3521 194.227 82.9024V82.9762H194.006V82.9024ZM193.932 82.6071C194.153 81.2044 194.523 79.728 194.818 78.3254L194.227 78.1777C193.415 81.3521 191.717 81.6474 188.395 81.5736C186.624 81.5736 184.852 81.5736 184.852 79.5804V72.8625H188.395C190.389 72.8625 190.536 74.0437 190.684 75.6678L191.274 75.5201C191.201 74.4866 191.201 73.4531 191.201 72.4196C191.201 71.3861 191.201 70.2788 191.274 69.2453H190.684C190.536 70.7217 190.093 71.7552 188.321 71.7552H184.852V64.1515H188.912C191.865 64.1515 192.308 65.628 192.456 67.3997L193.046 67.2521C192.972 66.44 192.972 65.4065 192.972 64.5206C192.972 64.0039 192.972 63.5609 192.972 63.1918C191.053 63.1918 188.174 63.3395 185.885 63.3395C183.597 63.3395 180.718 63.2657 178.946 63.1918V63.7824H179.241C180.275 63.7824 181.456 63.9301 181.456 65.4803V80.2448C181.456 81.795 180.275 81.9427 179.241 82.0165H178.946V82.6071C180.57 82.6071 183.892 82.4594 186.328 82.4594C188.912 82.5332 192.086 82.6071 193.932 82.6071Z" fill="black"/>
<path d="M198.804 66.0708C198.804 64.0038 197.696 63.93 196.81 63.93H196.294V63.0441C197.179 63.0441 198.951 63.1918 200.649 63.1918C202.347 63.1918 203.676 63.0441 205.226 63.0441C208.769 63.0441 211.944 64.0038 211.944 67.9902C211.944 70.5002 210.246 72.0504 208.031 72.9363L212.83 80.1709C213.642 81.352 214.159 81.7211 215.561 81.8688V82.7547C214.601 82.7547 213.716 82.6808 212.83 82.6808C211.944 82.6808 211.058 82.7547 210.172 82.7547C208.031 79.8756 206.112 76.8489 204.266 73.6007H202.421V79.6541C202.421 81.8688 203.454 81.9426 204.709 81.9426H205.226V82.8285C203.602 82.8285 201.978 82.7547 200.354 82.7547C199.025 82.7547 197.696 82.8285 196.22 82.8285V81.9426H196.736C197.77 81.9426 198.73 81.4997 198.73 80.3923V66.0708H198.804ZM202.421 72.5672H203.823C206.629 72.5672 208.179 71.5337 208.179 68.1379C208.179 65.6279 206.555 64.0038 204.045 64.0038C203.159 64.0038 202.864 64.0776 202.421 64.1515V72.5672Z" fill="black"/>
<path d="M215.562 82.9024C214.602 82.9024 213.716 82.8285 212.756 82.8285C211.871 82.8285 210.985 82.9024 210.025 82.9024C207.884 80.0233 206.039 76.9966 204.193 73.8222H202.495V79.728C202.495 81.8688 203.381 81.8688 204.71 81.8688H205.374V82.0165V82.9762H205.227C203.603 82.9762 201.978 82.9024 200.354 82.9024C199.026 82.9024 197.697 82.9762 196.294 82.9762H196.146V82.8285V81.8688H196.294H196.811C197.844 81.8688 198.656 81.4259 198.656 80.4662V66.0709C198.656 64.0777 197.623 64.0777 196.811 64.0777H196.146V63.9301V62.8965H196.294C197.18 62.8965 198.952 62.9704 200.65 62.9704C202.348 62.9704 203.676 62.8965 205.227 62.8965C208.77 62.8965 212.092 63.8562 212.092 67.9903C212.092 70.5741 210.394 72.1243 208.253 73.0102L212.978 80.0971C213.79 81.2783 214.233 81.5736 215.636 81.7212H215.709V81.795V82.7547H215.562V82.9024ZM202.421 73.4531H204.341V73.5269C206.186 76.7751 208.032 79.8018 210.099 82.6071C210.985 82.6071 211.871 82.4594 212.756 82.4594C213.642 82.4594 214.528 82.5332 215.414 82.6071V82.0165C214.085 81.8688 213.495 81.4259 212.683 80.3186L207.737 72.9364L207.884 72.8625C210.099 71.9767 211.723 70.5002 211.723 67.9903C211.723 64.0777 208.696 63.1918 205.153 63.118C203.676 63.118 202.274 63.2657 200.576 63.2657C198.878 63.2657 197.254 63.1918 196.294 63.118V63.7086H196.663C197.549 63.7086 198.804 63.8562 198.804 65.9971V80.3186C198.804 81.4259 197.771 81.9427 196.663 81.9427H196.294V82.5332C197.623 82.5332 198.952 82.3856 200.281 82.3856C201.831 82.3856 203.455 82.4594 205.005 82.5332V81.9427H204.636C203.381 81.9427 202.2 81.795 202.2 79.5804V73.3793H202.421V73.4531ZM202.421 72.7149H202.274V64.0777H202.348C202.717 64.0777 203.086 64.0039 203.972 64.0039C206.555 64.0039 208.253 65.7018 208.253 68.2856C208.253 71.6814 206.629 72.7887 203.75 72.7887H202.421V72.7149ZM203.75 72.4934C206.555 72.4934 207.958 71.5337 207.958 68.2117C207.958 65.7756 206.408 64.2253 203.972 64.2253C203.233 64.2253 202.864 64.2992 202.495 64.2992V72.4934H203.75Z" fill="black"/>
<path d="M234.756 77.218L234.83 66.5876C234.83 64.2991 233.205 63.93 232.393 63.93H231.803V63.0441C233.132 63.0441 234.46 63.1918 235.789 63.1918C236.97 63.1918 238.078 63.0441 239.259 63.0441V63.93H238.816C237.635 63.93 236.306 64.1515 236.306 67.5473V80.3923C236.306 81.352 236.306 82.3855 236.454 83.2714H235.42L220.877 67.0305V78.6944C220.877 81.1306 221.394 82.0164 223.535 82.0164H224.052V82.9023C222.87 82.9023 221.615 82.8285 220.434 82.8285C219.179 82.8285 217.85 82.9023 216.595 82.9023V82.0164H216.965C218.884 82.0164 219.475 80.6876 219.475 78.3991V66.44C219.475 64.8897 218.146 63.93 216.891 63.93H216.374V63.0441C217.408 63.0441 218.589 63.1918 219.622 63.1918C220.434 63.1918 221.32 63.0441 222.132 63.0441L234.756 77.218Z" fill="black"/>
<path d="M236.379 83.3453L235.198 83.2715L220.876 67.3259V78.6207C220.876 81.0568 221.319 81.795 223.386 81.795H223.977V81.9427V82.9024H223.829C222.574 82.9024 221.393 82.7547 220.212 82.7547C218.957 82.7547 217.628 82.9024 216.373 82.9024H216.226V82.7547V81.795H216.373H216.742C218.588 81.795 219.178 80.6139 219.178 78.3254V66.44C219.178 64.9636 217.924 64.0039 216.742 64.0039H216.226V63.8562V62.8965H216.373C217.481 62.8965 218.588 62.9704 219.621 62.9704C220.433 62.9704 221.245 62.8965 222.205 62.8965L234.607 76.8489V66.5877C234.607 64.373 233.131 64.0777 232.245 64.0777H231.507V63.9301V62.8965H231.654C232.983 62.8965 234.312 62.9704 235.641 62.9704C236.822 62.9704 237.929 62.8965 239.11 62.8965H239.258V63.0442V64.0039H239.11H238.668C237.486 64.0039 236.305 64.1515 236.305 67.4735V80.3186C236.305 81.2783 236.305 82.3118 236.453 83.1238V83.2715H236.379V83.3453ZM235.272 83.05H236.231C236.084 82.238 236.084 81.2783 236.084 80.3186V67.4735C236.084 64.0777 237.486 63.7824 238.741 63.7824H239.037V63.1918C237.929 63.1918 236.822 63.3395 235.715 63.3395C234.386 63.3395 233.131 63.2657 231.876 63.1918V63.7824H232.393C233.279 63.7824 234.976 64.1515 234.976 66.5877L234.903 77.2919L234.829 77.3657L234.755 77.4395L222.205 63.2657C221.393 63.2657 220.507 63.4133 219.695 63.4133C218.662 63.4133 217.628 63.3395 216.595 63.2657V63.8562H216.816C218.145 63.8562 219.474 64.8897 219.474 66.5138V78.3992C219.474 80.6877 218.809 82.0903 216.816 82.0903H216.521V82.6809C217.776 82.6809 219.031 82.5332 220.212 82.5332C221.393 82.5332 222.574 82.6071 223.755 82.6809V82.0903H223.386C221.172 82.0903 220.581 81.1306 220.581 78.6945V66.6615L235.272 83.05Z" fill="black"/>
<path d="M243.688 78.6945C243.393 79.6542 243.024 80.3924 243.024 80.9091C243.024 81.795 244.205 81.8688 245.164 81.8688H245.46V82.7547C244.352 82.6809 243.171 82.6809 242.064 82.6809C241.03 82.6809 239.997 82.7547 239.037 82.7547V81.8688H239.185C240.292 81.8688 241.252 81.2044 241.621 80.0233L246.124 67.0306C246.493 65.997 247.01 64.5944 247.158 63.4871C248.043 63.1918 249.225 62.6012 249.741 62.3059C249.815 62.3059 249.889 62.2321 249.963 62.2321C250.037 62.2321 250.11 62.2321 250.184 62.3059C250.258 62.5274 250.332 62.8227 250.406 63.0442L255.573 77.8086C255.942 78.7683 256.238 79.8756 256.607 80.6877C256.976 81.4997 257.566 81.795 258.452 81.795H258.6V82.6809C257.345 82.607 256.09 82.607 254.687 82.607C253.285 82.607 251.882 82.6809 250.48 82.6809V81.795H250.775C251.439 81.795 252.547 81.7212 252.547 80.983C252.547 80.6138 252.325 79.8756 251.956 78.9159L250.849 75.6678H244.426L243.688 78.6945ZM247.822 66.2185L245.164 74.1913H250.48L247.822 66.2185Z" fill="black"/>
<path d="M258.747 82.9023C257.492 82.8285 256.237 82.7547 254.835 82.7547C253.432 82.7547 252.029 82.8285 250.627 82.9023H250.479V82.7547V81.795H250.627H250.922C251.586 81.795 252.546 81.6473 252.546 81.1306C252.546 80.8353 252.325 80.0232 252.029 79.1374L250.922 75.963H244.721L243.835 78.8421C243.54 79.8018 243.245 80.54 243.245 80.9829C243.245 81.6473 244.278 81.8688 245.238 81.8688H245.681V82.0164V82.9761H245.533C244.426 82.9023 243.245 82.8285 242.137 82.8285C241.104 82.8285 240.07 82.9023 239.111 82.9761H238.963V82.8285V81.8688H239.111H239.258C240.292 81.8688 241.178 81.2782 241.62 80.0971L246.124 67.1044C246.493 66.0708 247.009 64.6682 247.231 63.5609C248.117 63.2656 249.224 62.675 249.815 62.3797C249.889 62.3797 249.962 62.3059 250.11 62.3059C250.184 62.3059 250.332 62.3059 250.405 62.4536C250.479 62.675 250.553 62.9703 250.627 63.1918L255.868 77.9562C256.237 78.9159 256.533 80.0232 256.902 80.8353C257.197 81.5735 257.714 81.8688 258.673 81.8688H258.969V82.0164V82.9761L258.747 82.9023ZM250.701 82.607C252.103 82.5332 253.432 82.5332 254.835 82.5332C256.163 82.5332 257.345 82.607 258.6 82.607V82.0164H258.526C257.566 82.0164 256.902 81.6473 256.533 80.8353C256.163 79.9494 255.794 78.9159 255.499 77.9562L250.332 63.1918C250.258 62.9703 250.184 62.675 250.11 62.5274C250.11 62.5274 250.11 62.5274 250.036 62.5274C250.036 62.5274 250.036 62.5274 249.962 62.5274C249.889 62.5274 249.889 62.5274 249.815 62.6012C249.298 62.9703 248.117 63.4871 247.305 63.7085C247.157 64.8159 246.64 66.2185 246.271 67.252L241.768 80.2447C241.325 81.4997 240.366 82.1641 239.184 82.1641H239.111V82.7547C240.07 82.6808 241.03 82.6808 242.063 82.6808C243.171 82.6808 244.278 82.7547 245.385 82.7547V82.1641H245.164C244.204 82.1641 242.949 82.0903 242.949 81.0567C242.949 80.4662 243.318 79.8018 243.54 78.8421H243.688L243.54 78.7683L244.5 75.7415H251.07L252.177 79.0635C252.472 79.9494 252.768 80.6876 252.768 81.1306C252.694 82.0164 251.513 82.0903 250.922 82.0903H250.701V82.607ZM244.942 74.3389L247.674 66.0708H247.748H247.822H247.895L250.553 74.3389H244.942ZM245.312 74.1175H250.258L247.822 66.5138L245.312 74.1175Z" fill="black"/>
<path d="M260.002 64.4468C257.862 64.4468 257.788 64.9636 257.345 67.0306H256.459C256.607 66.2185 256.754 65.4803 256.828 64.5945C256.976 63.7824 256.976 63.0442 256.976 62.2321H257.64C257.862 63.0442 258.6 63.0442 259.338 63.0442H273.955C274.693 63.0442 275.431 63.0442 275.505 62.1583L276.17 62.306C276.096 63.0442 275.948 63.8562 275.874 64.5945C275.8 65.3327 275.8 66.1447 275.8 66.8829L274.988 67.1782C274.915 66.1447 274.767 64.4468 272.921 64.4468H268.271V79.5065C268.271 81.7212 269.23 81.9427 270.633 81.9427H271.15V82.8285C270.042 82.8285 268.049 82.7547 266.573 82.7547C264.875 82.7547 262.882 82.8285 261.774 82.8285V81.9427H262.291C263.841 81.9427 264.653 81.795 264.653 79.5804V64.4468H260.002Z" fill="black"/>
<path d="M271.076 82.9023C269.968 82.9023 267.975 82.8285 266.499 82.8285C264.801 82.8285 262.808 82.9023 261.7 82.9023H261.553V82.7547V81.795H261.7H262.217C263.767 81.7212 264.432 81.7212 264.432 79.5803V64.5944H259.929V64.4468V64.373H264.653V79.5803C264.653 81.8688 263.767 82.0903 262.217 82.0903H261.774V82.6809C262.882 82.6809 264.801 82.5332 266.425 82.5332C267.901 82.5332 269.821 82.607 270.928 82.6809V82.0903H270.485C269.156 82.0903 268.049 81.7212 268.049 79.5065V64.373H272.774C274.693 64.373 274.915 65.997 274.988 67.0306L275.579 66.8091C275.579 66.0709 275.579 65.3327 275.653 64.5944C275.727 63.8562 275.874 63.118 275.948 62.4536L275.505 62.3798C275.357 63.1918 274.545 63.2656 273.881 63.2656H259.338C259.264 63.2656 259.264 63.2656 259.19 63.2656C258.526 63.2656 257.788 63.2656 257.566 62.4536H257.123C257.123 63.2656 257.05 64.0039 256.976 64.7421C256.902 65.5541 256.754 66.2923 256.68 67.0306H257.271C257.64 65.0374 257.862 64.4468 260.002 64.4468V64.5944V64.7421C257.935 64.8159 257.935 65.1112 257.493 67.252V67.3258H257.419H256.459V67.1782C256.607 66.3662 256.68 65.6279 256.828 64.8159C256.976 64.0038 256.976 63.2656 256.976 62.4536V62.3059H257.123H257.862V62.3798C258.083 63.118 258.6 63.118 259.264 63.118C259.338 63.118 259.338 63.118 259.412 63.118H273.955C274.767 63.118 275.284 63.118 275.357 62.3798V62.2321H275.505L276.317 62.3798V62.5274C276.17 63.2656 276.096 64.0777 276.022 64.8159C275.948 65.5541 275.948 66.3662 275.948 67.1044V67.1782H275.874L274.841 67.5473V67.3997C274.767 66.3662 274.619 64.8159 272.848 64.8159H268.344V79.728C268.344 81.8688 269.23 82.0165 270.559 82.0165H271.223V82.1641V83.1238H271.076V82.9023Z" fill="black"/>
<path d="M277.203 81.9426H277.572C278.606 81.9426 279.639 81.795 279.639 80.3185V65.5541C279.639 64.0776 278.606 63.93 277.572 63.93H277.203V63.0441C278.31 63.0441 280.008 63.1918 281.411 63.1918C282.814 63.1918 284.512 63.0441 285.84 63.0441V63.93H285.471C284.438 63.93 283.404 64.0776 283.404 65.5541V80.3185C283.404 81.795 284.512 81.9426 285.471 81.9426H285.84V82.8285C284.512 82.8285 282.814 82.7547 281.411 82.7547C280.008 82.7547 278.384 82.8285 277.277 82.8285V81.9426H277.203Z" fill="black"/>
<path d="M285.84 82.9024C284.511 82.9024 282.813 82.7547 281.411 82.7547C280.008 82.7547 278.384 82.9024 277.277 82.9024H277.129V82.7547V81.8688V81.7212H277.277H277.646C278.679 81.7212 279.639 81.5736 279.639 80.2448V65.4803C279.639 64.0777 278.679 64.0039 277.646 64.0039H277.129V63.8562V62.8965H277.277C278.384 62.8965 280.082 62.9704 281.484 62.9704C282.887 62.9704 284.585 62.8965 285.914 62.8965H286.061V63.0442V64.0039H285.914H285.545C284.511 64.0039 283.551 64.1515 283.551 65.4803V80.2448C283.551 81.6474 284.511 81.7212 285.545 81.7212H286.061V81.8688V82.8285H285.84V82.9024ZM285.692 82.6071V82.0165H285.397C284.363 82.0165 283.182 81.8688 283.182 80.2448V65.4803C283.182 63.9301 284.363 63.7824 285.397 63.7824H285.692V63.1918C284.363 63.1918 282.739 63.3395 281.411 63.3395C280.082 63.3395 278.458 63.2657 277.35 63.1918V63.7824H277.646C278.679 63.7824 279.86 63.9301 279.86 65.4803V80.2448C279.86 81.795 278.679 82.0165 277.646 82.0165H277.35V82.6071C278.458 82.6071 280.008 82.4594 281.411 82.4594C282.739 82.5332 284.363 82.6071 285.692 82.6071Z" fill="black"/>
<path d="M297.061 62.6011C303.115 62.6011 307.913 66.3661 307.913 72.3457C307.913 78.842 303.262 83.1975 297.209 83.1975C291.229 83.1975 286.652 79.1373 286.652 73.0839C286.652 67.1781 291.229 62.6011 297.061 62.6011ZM297.504 81.9426C302.967 81.9426 303.927 77.1441 303.927 73.0101C303.927 68.876 301.712 63.8561 296.987 63.8561C292.041 63.8561 290.565 68.2854 290.565 72.0504C290.639 77.1441 292.927 81.9426 297.504 81.9426Z" fill="black"/>
<path d="M286.505 73.0101C286.505 67.1043 291.082 62.4536 297.061 62.4536V62.6012V62.7488C291.229 62.7488 286.726 67.252 286.726 73.0101C286.726 78.9897 291.23 83.0499 297.209 83.0499C303.189 83.0499 307.766 78.7683 307.766 72.3457C307.766 66.44 303.041 62.7488 297.061 62.7488V62.6012V62.4536C303.115 62.4536 307.987 66.2185 307.987 72.3457C307.987 78.9159 303.263 83.2714 297.209 83.2714C291.156 83.2714 286.579 79.2112 286.505 73.0101ZM290.491 72.0504C290.491 68.2855 291.968 63.7085 297.061 63.7085C301.86 63.7085 304.075 68.8023 304.075 72.9363C304.075 77.0703 303.115 82.0164 297.504 82.0164V81.8688V81.7211C302.893 81.7211 303.779 76.9965 303.853 72.8625C303.853 68.8023 301.638 63.8562 297.061 63.8562C292.189 63.8562 290.787 68.1379 290.787 71.9028C290.787 76.9227 293.075 81.6473 297.578 81.6473V81.795V81.9426C292.78 82.0903 290.491 77.1442 290.491 72.0504Z" fill="black"/>
<path d="M326.959 77.218L327.033 66.5876C327.033 64.2991 325.409 63.93 324.597 63.93H324.007V63.0441C325.335 63.0441 326.664 63.1918 327.919 63.1918C329.1 63.1918 330.208 63.0441 331.389 63.0441V63.93H330.946C329.765 63.93 328.436 64.1515 328.436 67.5473V80.3923C328.436 81.352 328.436 82.3855 328.584 83.2714H327.476L312.933 67.0305V78.6944C312.933 81.1306 313.376 82.0164 315.591 82.0164H316.034V82.9023C314.853 82.9023 313.598 82.8285 312.416 82.8285C311.162 82.8285 309.833 82.9023 308.578 82.9023V82.0164H308.947C310.866 82.0164 311.457 80.6876 311.457 78.3991V66.44C311.457 64.8897 310.128 63.93 308.873 63.93H308.504V63.0441C309.611 63.0441 310.645 63.1918 311.752 63.1918C312.564 63.1918 313.45 63.0441 314.262 63.0441L326.959 77.218Z" fill="black"/>
<path d="M328.584 83.3453L327.403 83.2715L313.081 67.3259V78.6207C313.081 81.0568 313.524 81.795 315.591 81.795H316.182V81.9427V82.9024H316.034C314.779 82.9024 313.598 82.8285 312.417 82.8285C311.162 82.8285 309.833 82.9024 308.578 82.9024H308.431V82.7547V81.795H308.578H308.947C310.793 81.795 311.384 80.6139 311.384 78.3254V66.44C311.384 64.9636 310.129 64.0039 308.947 64.0039H308.431V63.8562V62.8965H308.578C309.686 62.8965 310.793 62.9704 311.826 62.9704C312.639 62.9704 313.451 62.8965 314.41 62.8965L326.812 76.8489V66.5877C326.812 64.373 325.336 64.0777 324.45 64.0777H323.712V63.9301V62.8965H323.859C325.188 62.8965 326.517 62.9704 327.772 62.9704C328.953 62.9704 330.061 62.8965 331.242 62.8965H331.389V63.0442V64.0039H331.242H330.799C329.618 64.0039 328.436 64.1515 328.436 67.4735V80.3186C328.436 81.2783 328.436 82.3118 328.584 83.1238V83.2715V83.3453ZM327.477 83.05H328.436C328.289 82.238 328.289 81.2783 328.289 80.3186V67.4735C328.289 64.0777 329.691 63.7824 330.946 63.7824H331.242V63.1918C330.134 63.1918 329.027 63.3395 327.846 63.3395C326.591 63.3395 325.336 63.2657 324.007 63.1918V63.7824H324.524C325.41 63.7824 327.108 64.1515 327.108 66.5877V77.2919L327.034 77.3657L326.96 77.4395L314.41 63.2657C313.598 63.2657 312.786 63.4133 311.9 63.4133C310.867 63.4133 309.759 63.3395 308.8 63.2657V63.8562H309.021C310.35 63.8562 311.753 64.8897 311.753 66.5138V78.3992C311.753 80.6877 311.088 82.0903 309.095 82.0903H308.8V82.6809C310.055 82.6809 311.31 82.5332 312.491 82.5332C313.672 82.5332 314.853 82.6071 316.034 82.6809V82.0903H315.665C313.451 82.0903 312.86 81.1306 312.86 78.6945V66.6615L327.477 83.05Z" fill="black"/>
<path d="M335.891 78.6945C335.596 79.6542 335.301 80.3924 335.301 80.9091C335.301 81.795 336.482 81.8688 337.442 81.8688H337.737V82.7547C336.63 82.6809 335.448 82.6809 334.341 82.6809C333.308 82.6809 332.274 82.7547 331.314 82.7547V81.8688H331.462C332.569 81.8688 333.529 81.2044 333.898 80.0233L338.401 67.0306C338.77 65.997 339.287 64.5944 339.435 63.4871C340.321 63.1918 341.502 62.6012 342.019 62.3059C342.092 62.3059 342.166 62.2321 342.24 62.2321C342.314 62.2321 342.388 62.2321 342.462 62.3059C342.535 62.5274 342.609 62.8227 342.757 63.0442L347.924 77.8086C348.22 78.7683 348.589 79.8756 348.958 80.6877C349.327 81.4997 349.918 81.795 350.804 81.795H350.951V82.6809C349.696 82.607 348.441 82.607 347.039 82.607C345.636 82.607 344.233 82.6809 342.831 82.6809V81.795H343.126C343.79 81.795 344.898 81.7212 344.898 80.983C344.898 80.6138 344.676 79.8756 344.307 78.9159L343.2 75.6678H336.777L335.891 78.6945ZM340.025 66.2185L337.368 74.1913H342.683L340.025 66.2185Z" fill="black"/>
<path d="M350.951 82.9023C349.696 82.8285 348.441 82.8285 347.038 82.8285C345.636 82.8285 344.233 82.9023 342.83 82.9023H342.683V82.7547V81.795H342.83H343.126C343.79 81.795 344.75 81.6473 344.75 81.1306C344.75 80.8353 344.528 80.0232 344.159 79.1374L343.052 75.963H336.851L335.965 78.8421C335.67 79.8018 335.374 80.54 335.374 80.9829C335.374 81.6473 336.408 81.8688 337.368 81.8688H337.811V82.0164V82.9761H337.663C336.556 82.9023 335.374 82.9023 334.267 82.9023C333.234 82.9023 332.274 82.9761 331.24 82.9761H331.093V82.8285V81.8688H331.24H331.388C332.422 81.8688 333.307 81.2782 333.75 80.0971L338.254 67.1044C338.623 66.0708 339.139 64.6682 339.361 63.5609C340.247 63.2656 341.354 62.675 341.945 62.3797C342.018 62.3797 342.092 62.3059 342.24 62.3059C342.314 62.3059 342.461 62.3059 342.535 62.4536C342.609 62.675 342.683 62.8965 342.757 63.1918L347.924 77.9562C348.293 78.9159 348.589 80.0232 348.958 80.8353C349.327 81.5735 349.77 81.8688 350.729 81.8688H351.025V82.0164V82.9761L350.951 82.9023ZM342.904 82.607C344.307 82.5332 345.71 82.5332 347.038 82.5332C348.367 82.5332 349.548 82.607 350.803 82.607V82.0164H350.729C349.77 82.0164 349.105 81.6473 348.736 80.8353C348.367 79.9494 347.998 78.9159 347.703 77.9562L342.535 63.1918C342.461 62.9703 342.388 62.675 342.314 62.5274C342.314 62.4536 342.314 62.4536 342.24 62.4536C342.24 62.4536 342.24 62.4536 342.166 62.4536C342.092 62.4536 342.092 62.4536 342.018 62.5274C341.502 62.8965 340.321 63.4132 339.508 63.6347C339.361 64.742 338.844 66.1447 338.475 67.1782L333.972 80.1709C333.529 81.4259 332.569 82.0903 331.388 82.0903H331.314V82.6808C332.274 82.607 333.234 82.607 334.267 82.607C335.374 82.607 336.482 82.6808 337.589 82.6808V82.0903H337.368C336.482 82.0903 335.153 82.0164 335.153 80.9829C335.153 80.3923 335.522 79.7279 335.817 78.7683H335.891L335.817 78.6944L336.777 75.6677H343.347L344.455 78.9897C344.75 79.8756 345.045 80.6138 345.045 81.0567C344.971 81.9426 343.79 82.0164 343.2 82.0164H343.052V82.607H342.904ZM337.146 74.3389L339.878 66.1447H339.951H340.025H340.099L342.757 74.3389H337.146ZM337.515 74.1175H342.461L340.025 66.5876L337.515 74.1175Z" fill="black"/>
<path d="M358.038 80.0233C358.038 81.1306 358.85 81.4997 359.736 81.5735C360.917 81.6474 362.172 81.6473 363.501 81.4997C364.682 81.3521 365.715 80.6877 366.232 79.9494C366.675 79.3589 366.896 78.5468 367.118 77.8824H367.93C367.635 79.5065 367.192 81.0568 366.896 82.6809C364.386 82.6809 361.95 82.607 359.44 82.607C356.93 82.607 354.494 82.6809 351.984 82.6809V81.795H352.353C353.387 81.795 354.494 81.6474 354.494 79.8756V65.4803C354.494 64.0038 353.387 63.8562 352.353 63.8562H351.984V62.9703C353.461 62.9703 354.937 63.118 356.414 63.118C357.89 63.118 359.293 62.9703 360.695 62.9703V63.8562H359.957C358.924 63.8562 358.038 63.8562 358.038 65.4065V80.0233Z" fill="black"/>
<path d="M366.823 82.9024C364.313 82.9024 361.877 82.8285 359.367 82.8285C356.857 82.8285 354.421 82.9024 351.911 82.9024H351.764V82.7547V81.795H351.911H352.28C353.314 81.795 354.274 81.7212 354.274 80.0233V65.4803C354.274 64.0777 353.314 64.0039 352.28 64.0039H351.764V63.8562V62.8965H351.911C353.388 62.8965 354.864 62.9704 356.414 62.9704C357.817 62.9704 359.294 62.8965 360.696 62.8965H360.77V63.0442V64.0039H360.696H359.958C358.851 64.0039 358.186 64.0039 358.186 65.4065V79.9495C358.186 80.983 358.851 81.2783 359.81 81.4259C360.327 81.4259 360.844 81.4997 361.361 81.4997C362.025 81.4997 362.763 81.4997 363.501 81.4259C364.683 81.2783 365.642 80.6139 366.159 79.9495C366.602 79.3589 366.823 78.5468 367.045 77.9563V77.8825H367.119H368.078V78.0301C367.783 79.6542 367.34 81.2044 367.045 82.8285V82.9024H366.823ZM366.75 82.6071C367.045 81.0568 367.414 79.5804 367.709 78.0301H367.119C366.971 78.6207 366.676 79.4327 366.233 80.0233C365.716 80.7615 364.683 81.4259 363.428 81.5736C362.689 81.6474 361.951 81.7212 361.287 81.7212C360.77 81.7212 360.179 81.7212 359.663 81.6474C358.777 81.5736 357.891 81.1306 357.891 79.9495V65.4065C357.891 63.8562 358.851 63.7824 359.958 63.7824H360.549V63.1918C359.146 63.1918 357.743 63.3395 356.341 63.3395C354.864 63.3395 353.462 63.2657 351.985 63.1918V63.7824H352.28C353.314 63.7824 354.495 63.9301 354.495 65.4803V80.0233C354.495 81.8688 353.24 82.0165 352.28 82.0165H351.985V82.6071C354.421 82.6071 356.857 82.4594 359.294 82.4594C361.803 82.5332 364.313 82.6071 366.75 82.6071Z" fill="black"/>
<path d="M367.561 62.2321C369.259 62.2321 370.514 63.5609 370.514 65.185C370.514 66.8829 369.259 68.1379 367.561 68.1379C365.863 68.1379 364.608 66.8091 364.608 65.185C364.535 63.5609 365.863 62.2321 367.561 62.2321ZM367.561 67.6211C368.89 67.6211 369.924 66.5138 369.924 65.185C369.924 63.93 368.89 62.7489 367.561 62.7489C366.232 62.7489 365.199 63.93 365.199 65.185C365.199 66.5138 366.159 67.6211 367.561 67.6211ZM366.085 66.6614C366.454 66.5876 366.528 66.6614 366.528 66.3662V64.1515C366.528 63.8562 366.528 63.7086 366.085 63.7824V63.6347H367.635C368.152 63.6347 368.669 63.8562 368.669 64.4468C368.669 64.8897 368.373 65.185 367.93 65.3327L368.447 65.997C368.669 66.2923 368.964 66.5876 369.112 66.6614V66.7353H368.447C368.152 66.7353 367.93 66.1447 367.414 65.3327H367.118V66.2923C367.118 66.5138 367.192 66.5138 367.561 66.5138V66.6614H366.085ZM367.045 65.2588H367.414C367.783 65.2588 368.004 64.9635 368.004 64.5206C368.004 64.0777 367.709 63.8562 367.414 63.8562H367.118V65.2588H367.045Z" fill="black"/>
<path d="M130.002 21.2608C130.002 16.61 127.565 16.9052 125.203 16.8314V15.5026C127.196 15.5764 129.337 15.5764 131.33 15.5764C133.545 15.5764 136.498 15.5026 140.337 15.5026C153.772 15.5026 161.081 24.5089 161.081 33.6629C161.081 38.8304 158.054 51.7493 139.672 51.7493C137.015 51.7493 134.579 51.6755 132.142 51.6755C129.78 51.6755 127.492 51.7493 125.203 51.7493V50.3467C128.304 50.0514 129.854 49.9038 130.002 46.4341V21.2608ZM135.095 45.6221C135.095 49.6085 137.974 50.0514 140.484 50.0514C151.705 50.0514 155.396 41.5619 155.396 33.8843C155.396 24.2136 149.195 17.2005 139.156 17.2005C137.015 17.2005 136.055 17.3482 135.095 17.422V45.6221Z" fill="black"/>
<path d="M162.926 50.3468H163.886C165.362 50.3468 166.396 50.3468 166.396 48.6488V34.6226C166.396 32.3341 165.658 32.0389 163.665 31.0053V30.1933C166.101 29.4551 168.98 28.4954 169.201 28.3477C169.57 28.1263 169.866 28.1263 170.161 28.1263C170.382 28.1263 170.53 28.4216 170.53 28.8645V48.7965C170.53 50.4944 171.711 50.4944 173.114 50.4944H174V51.8232C172.228 51.8232 170.382 51.7494 168.537 51.7494C166.691 51.7494 164.772 51.8232 162.853 51.8232V50.3468H162.926ZM168.463 20.0058C167.134 20.0058 165.879 18.7509 165.879 17.4221C165.879 16.0933 167.134 14.9121 168.463 14.9121C169.792 14.9121 170.973 16.0194 170.973 17.4221C170.973 18.8247 169.866 20.0058 168.463 20.0058Z" fill="black"/>
<path d="M178.946 34.9179C178.946 32.9985 178.355 32.4817 175.919 31.522V30.5624C178.134 29.8241 180.274 29.1597 182.784 28.0524C182.932 28.0524 183.08 28.1262 183.08 28.5692V31.8912C186.033 29.7503 188.616 27.9786 192.086 27.9786C196.515 27.9786 198.066 31.2268 198.066 35.2132V48.575C198.066 50.2729 199.247 50.2729 200.649 50.2729H201.609V51.6017C199.763 51.6017 197.992 51.5279 196.146 51.5279C194.301 51.5279 192.381 51.6017 190.536 51.6017V50.3467H191.495C192.972 50.3467 194.005 50.3467 194.005 48.6488V35.2132C194.005 32.2603 192.16 30.7838 189.207 30.7838C187.509 30.7838 184.925 32.1126 183.153 33.2938V48.6488C183.153 50.3467 184.335 50.3467 185.737 50.3467H186.697V51.6755C184.851 51.6755 183.08 51.6017 181.16 51.6017C179.315 51.6017 177.395 51.6755 175.55 51.6755V50.3467H176.509C177.986 50.3467 179.019 50.3467 179.019 48.6488V34.9179H178.946Z" fill="black"/>
<path d="M205.522 37.4278C205.448 37.8707 205.448 38.6828 205.522 40.4545C205.817 45.4006 208.991 49.4608 213.125 49.4608C216.004 49.4608 218.219 47.9105 220.139 45.9912L220.877 46.7294C218.514 49.9037 215.562 52.5613 211.28 52.5613C203.012 52.5613 201.388 44.5885 201.388 41.2665C201.388 31.0791 208.253 28.0524 211.87 28.0524C216.078 28.0524 220.581 30.71 220.655 36.1728C220.655 36.4681 220.655 36.7634 220.581 37.1325L220.139 37.4278H205.522ZM214.676 35.7299C216.004 35.7299 216.152 35.0655 216.152 34.4011C216.152 31.7435 214.528 29.6026 211.649 29.6026C208.475 29.6026 206.334 31.9649 205.669 35.6561H214.676V35.7299Z" fill="black"/>
<path d="M221.837 50.3467H223.24C224.716 50.3467 225.75 50.3467 225.75 48.6488V34.1058C225.75 32.4817 223.83 32.1864 223.018 31.7435V31.0053C226.783 29.3812 228.924 28.0524 229.367 28.0524C229.662 28.0524 229.81 28.2 229.81 28.7168V33.3676H229.884C231.212 31.3744 233.353 28.0524 236.528 28.0524C237.856 28.0524 239.48 28.9382 239.48 30.7838C239.48 32.1864 238.521 33.4414 237.044 33.4414C235.42 33.4414 235.42 32.1864 233.648 32.1864C232.763 32.1864 229.884 33.3676 229.884 36.4681V48.6488C229.884 50.3467 230.917 50.3467 232.393 50.3467H235.273V51.6755C232.393 51.6016 230.253 51.6016 228.038 51.6016C225.897 51.6016 223.756 51.6755 221.837 51.6755V50.3467Z" fill="black"/>
<path d="M241.768 44.5147C242.433 47.9105 244.5 50.8634 248.338 50.8634C251.365 50.8634 252.546 49.0179 252.546 47.1723C252.546 41.0451 241.252 43.0383 241.252 34.6964C241.252 31.8173 243.614 28.0524 249.298 28.0524C250.922 28.0524 253.211 28.4953 255.204 29.5288L255.573 34.844H254.392C253.875 31.5958 252.03 29.6765 248.708 29.6765C246.641 29.6765 244.647 30.8576 244.647 33.0723C244.647 39.1257 256.68 37.2801 256.68 45.4006C256.68 48.7964 253.949 52.4875 247.748 52.4875C245.681 52.4875 243.245 51.7493 241.399 50.7158L240.809 44.7362L241.768 44.5147Z" fill="black"/>
<path d="M303.557 24.8781H302.229C301.269 18.8247 296.913 16.3885 291.155 16.3885C285.176 16.3885 276.538 20.3749 276.538 32.8509C276.538 43.3336 283.994 50.8635 292.041 50.8635C297.209 50.8635 301.417 47.32 302.45 41.8572L303.631 42.1525L302.45 49.7561C300.235 51.0849 294.403 52.4876 290.934 52.4876C278.753 52.4876 271.149 44.6624 271.149 32.9985C271.149 22.3681 280.672 14.6906 290.786 14.6906C294.994 14.6906 299.054 16.0194 303.041 17.422L303.557 24.8781Z" fill="black"/>
<path d="M305.403 50.3467H306.363C307.839 50.3467 308.873 50.3467 308.873 48.6488V19.7843C308.873 16.3885 308.061 16.3147 306.141 15.7241V14.9121C308.208 14.2477 310.423 13.288 311.456 12.6974C312.047 12.4021 312.416 12.1068 312.564 12.1068C312.859 12.1068 313.007 12.4021 313.007 12.845V48.7226C313.007 50.4205 314.188 50.4205 315.59 50.4205H316.476V51.7493C314.705 51.7493 312.933 51.6755 311.013 51.6755C309.168 51.6755 307.248 51.7493 305.329 51.7493V50.3467H305.403Z" fill="black"/>
<path d="M338.771 48.8703C338.771 49.8299 339.361 49.8299 340.247 49.8299C340.838 49.8299 341.65 49.7561 342.314 49.7561V50.8635C340.099 51.0849 335.818 52.1923 334.858 52.4875L334.637 52.3399V48.132C331.536 50.642 329.1 52.4875 325.409 52.4875C322.604 52.4875 319.725 50.642 319.725 46.2865V32.9985C319.725 31.6697 319.503 30.3409 316.624 30.1194V29.1597C318.47 29.0859 322.604 28.7906 323.342 28.7906C323.932 28.7906 323.932 29.1597 323.932 30.2671V43.7027C323.932 45.253 323.932 49.7561 328.436 49.7561C330.207 49.7561 332.496 48.4273 334.71 46.5818V32.5556C334.71 31.522 332.201 30.9315 330.355 30.4147V29.455C335.006 29.1597 337.959 28.7168 338.475 28.7168C338.918 28.7168 338.918 29.0859 338.918 29.6765V48.8703H338.771Z" fill="black"/>
<path d="M349.106 31.7435C351.173 29.9718 353.978 27.9786 356.857 27.9786C362.91 27.9786 366.528 33.22 366.528 38.9043C366.528 45.6959 361.582 52.4875 354.126 52.4875C350.287 52.4875 348.294 51.2326 346.891 50.642L345.341 51.8231L344.233 51.2326C344.676 48.2059 344.972 45.1791 344.972 42.0048V19.7843C344.972 16.3885 344.233 16.3147 342.24 15.7241V14.9121C344.307 14.2477 346.522 13.288 347.555 12.6974C348.146 12.4021 348.515 12.1068 348.737 12.1068C349.032 12.1068 349.18 12.4021 349.18 12.845V31.7435H349.106ZM349.106 45.8435C349.106 47.8368 350.951 51.1587 354.495 51.1587C360.031 51.1587 362.394 45.6959 362.394 41.1189C362.394 35.5084 358.112 30.8576 354.052 30.8576C352.132 30.8576 350.508 32.1126 349.106 33.2938V45.8435Z" fill="black"/>
<path d="M49.6817 97.8144C75.9789 97.8144 97.297 76.4963 97.297 50.1991C97.297 23.9019 75.9789 2.5838 49.6817 2.5838C23.3845 2.5838 2.06641 23.9019 2.06641 50.1991C2.06641 76.4963 23.3845 97.8144 49.6817 97.8144Z" fill="white"/>
<path d="M49.7562 98.7003C22.4419 98.8479 0 76.7012 0 49.7561C0 20.3011 22.4419 0 49.7562 0H62.5274C89.4725 0 114.129 20.3749 114.129 49.7561C114.129 76.7012 89.4725 98.7003 62.5274 98.7003H49.7562ZM49.83 4.13404C24.8781 4.13404 4.6508 24.3613 4.6508 49.3132C4.6508 74.2651 24.8781 94.4924 49.83 94.4924C74.7819 94.4924 95.0092 74.2651 95.0092 49.3132C95.0092 24.3613 74.7819 4.13404 49.83 4.13404ZM39.6425 76.0368V22.5896C28.8645 26.7236 21.2608 37.0587 21.2608 49.3132C21.2608 61.4939 28.8645 71.9028 39.6425 76.0368ZM78.473 49.3132C78.473 37.1326 70.7955 26.7236 60.0913 22.5896V76.0368C70.8693 71.9028 78.473 61.4939 78.473 49.3132Z" fill="#0069AA"/>
</svg>
