<svg width="641" height="101" viewBox="0 0 641 101" fill="none" xmlns="http://www.w3.org/2000/svg">
<path d="M95.3036 2.43201L72.9551 47.9613C68.0859 57.9495 63.3831 67.6047 59.6376 77.5512H59.3879C58.8052 67.6047 58.0561 58.0743 56.974 47.9613L54.6435 24.1146L52.521 2.43201H0V5.76139H1.78954C26.1356 7.09314 32.3366 21.3679 33.9181 28.4844L31.0049 5.76139L34.0429 29.1503C34.0627 28.9288 34.0627 28.7059 34.0429 28.4844L34.584 32.6461V32.23L42.9074 98.1933H67.5865L119.025 2.43201H95.3036Z" fill="#1434CB"/>
<path d="M152.28 2.099L133.386 97.8187H112.119L131.013 2.099H152.28Z" fill="#1434CB"/>
<path d="M153.736 75.7617C160.912 79.7653 168.991 81.871 177.208 81.8794C185.532 81.8794 193.064 78.1755 193.064 70.6427C193.064 65.2741 188.903 61.6534 179.622 57.1587C168.968 51.6237 158.813 44.2574 158.813 31.689C158.938 12.3369 176.501 0.559255 198.225 0.559255C206.336 0.15566 214.416 1.83177 221.697 5.42848L212.25 22.4499C207.793 18.8876 202.172 17.1078 196.477 17.4559C186.572 17.4559 181.37 22.9493 181.37 28.2347C181.37 33.5201 187.28 37.1825 195.853 41.7187C208.088 47.8365 215.663 55.6189 215.663 67.1469C215.663 88.4966 197.309 99.4003 175.169 99.4003C164.532 99.4241 154.124 96.3118 145.246 90.4526L153.736 75.7617Z" fill="#1434CB"/>
<path d="M246.499 73.0566L234.68 98.0269H212.248L260.524 2.09912H287.867L299.561 97.8189H277.254L275.173 72.8485L246.499 73.0566ZM274.299 57.4085L272.385 36.8079C271.927 31.5642 271.303 23.9066 270.928 18.0385H270.512C268.015 23.9066 265.185 31.2728 262.563 36.8079L252.658 57.4085H274.299Z" fill="#1434CB"/>
<path d="M332.105 100.441C326.727 100.779 321.416 99.1025 317.206 95.7379C315.405 93.9524 314.016 91.7936 313.139 89.4136C312.262 87.0336 311.917 84.4902 312.129 81.9626C312.097 77.6899 312.889 73.451 314.46 69.4774C315.853 65.8371 317.98 62.5218 320.707 59.7371C323.435 56.9523 326.705 54.7574 330.316 53.2883C334.019 51.7969 337.976 51.0338 341.969 51.041C345.035 51.0186 348.094 51.3538 351.083 52.0398C353.728 52.6619 356.277 53.642 358.657 54.953L355.869 66.481H354.454C352.764 64.5176 350.716 62.8934 348.419 61.695C346.206 60.5509 343.752 59.9516 341.261 59.9471C338.99 59.9195 336.744 60.4203 334.7 61.4098C332.656 62.3993 330.87 63.8504 329.483 65.6486C326.295 69.816 324.674 74.9725 324.905 80.2147C324.616 83.2091 325.512 86.1977 327.403 88.5381C328.408 89.4437 329.586 90.1357 330.867 90.5721C332.147 91.0085 333.503 91.1802 334.852 91.0768C337.727 91.1242 340.574 90.512 343.175 89.2872C345.797 88.0871 348.258 86.5632 350.5 84.751H351.79L348.835 96.2789L345.548 97.6523C344.351 98.1612 343.129 98.6058 341.885 98.9841C340.521 99.4059 339.131 99.7395 337.724 99.9829C335.884 100.412 333.99 100.567 332.105 100.441Z" fill="#1434CB"/>
<path d="M397.279 71.6C397.279 72.0994 397.279 72.7653 397.279 73.556C397.233 74.3983 397.107 75.2343 396.904 76.053L391.203 99.3587H379.716L383.878 81.5465C384.128 80.2148 384.419 79.0079 384.586 78.0923C384.776 77.2594 384.874 76.408 384.877 75.5536C384.937 74.9984 384.871 74.4368 384.684 73.9107C384.497 73.3846 384.193 72.9076 383.795 72.5156C382.652 71.8026 381.308 71.4812 379.966 71.6C378.873 71.6121 377.789 71.8091 376.762 72.1826C375.319 72.6403 373.925 73.2398 372.6 73.9722L366.732 99.4419H355.287L366.732 49.5012H378.301L374.14 67.3134C376.194 65.9312 378.351 64.7069 380.59 63.6511C382.638 62.827 384.836 62.4441 387.041 62.5274C389.768 62.3399 392.464 63.2036 394.574 64.9412C395.494 65.7785 396.214 66.8113 396.682 67.9636C397.15 69.1159 397.354 70.3585 397.279 71.6Z" fill="#1434CB"/>
<path d="M420.335 100.441C415.277 100.753 410.269 99.2803 406.185 96.279C404.534 94.9251 403.223 93.2039 402.356 91.2529C401.489 89.3018 401.09 87.175 401.191 85.0424C401.148 81.979 401.714 78.9376 402.856 76.0947C403.939 73.3698 405.574 70.8985 407.658 68.8359C409.742 66.7732 412.231 65.1639 414.967 64.1089C418.053 62.8965 421.348 62.3026 424.663 62.361C428.956 62.0552 433.225 63.2142 436.774 65.6487C438.18 66.7977 439.29 68.2657 440.014 69.9306C440.738 71.5955 441.054 73.4091 440.936 75.2207C440.946 76.6211 440.792 78.0178 440.478 79.3824C440.145 80.7974 439.812 82.1708 439.354 83.5441H412.636V84.3349C412.587 85.4536 412.803 86.568 413.265 87.5876C413.728 88.6073 414.425 89.5033 415.299 90.2029C417.668 91.7796 420.493 92.526 423.332 92.3254C425.786 92.3372 428.224 91.9145 430.531 91.0769C432.567 90.3219 434.519 89.3596 436.358 88.2053H437.648L435.484 97.4443C433.234 98.453 430.873 99.1933 428.45 99.65C425.775 100.157 423.059 100.422 420.335 100.441ZM429.116 76.9686C429.153 76.6088 429.153 76.2463 429.116 75.8866C429.116 75.5536 429.116 75.2207 429.116 74.8878C429.163 74.1712 429.044 73.4535 428.77 72.7898C428.496 72.1262 428.073 71.5341 427.535 71.059C426.244 70.0607 424.624 69.5852 422.999 69.7272C420.842 69.6719 418.731 70.3465 417.006 71.6416C415.301 73.0476 414.03 74.9096 413.343 77.0102H428.908L429.116 76.9686Z" fill="#1434CB"/>
<path d="M460.58 100.441C458.243 100.45 455.917 100.128 453.671 99.4836C451.612 98.9685 449.693 98.0018 448.053 96.6536C446.51 95.3595 445.273 93.7391 444.432 91.9093C443.512 89.8415 443.057 87.5967 443.1 85.3337C443.064 82.2411 443.688 79.1763 444.932 76.3444C446.136 73.5907 447.909 71.1229 450.134 69.103C452.458 66.9997 455.173 65.3736 458.124 64.317C461.368 63.0934 464.812 62.4865 468.279 62.5275C470.478 62.525 472.671 62.7764 474.813 63.2766C476.911 63.7064 478.942 64.4204 480.847 65.399L478.6 75.0959H476.935C475.831 73.6622 474.405 72.5076 472.774 71.7249C471.102 70.963 469.283 70.5793 467.447 70.6012C465.801 70.5354 464.162 70.8461 462.655 71.5096C461.147 72.1731 459.811 73.1719 458.749 74.43C456.496 77.1335 455.312 80.5681 455.419 84.0852C455.333 85.1703 455.469 86.2617 455.82 87.2922C456.171 88.3227 456.728 89.2708 457.458 90.0781C458.33 90.8106 459.337 91.3641 460.422 91.7069C461.508 92.0497 462.65 92.175 463.784 92.0757C465.882 92.0732 467.954 91.619 469.86 90.744C471.496 89.901 473.043 88.8972 474.48 87.7475H476.145L473.689 97.5692C471.746 98.4568 469.726 99.1672 467.655 99.6917C465.334 100.22 462.959 100.472 460.58 100.441Z" fill="#1434CB"/>
<path d="M517.428 99.317H505.317L498.2 83.5024L493.165 87.9555L490.501 99.317H478.932L490.376 49.5844H501.946L495.246 79.2991L511.352 63.4845H524.378L507.731 79.091L517.428 99.317Z" fill="#1434CB"/>
<path d="M562.583 76.5523C562.621 79.7775 562.056 82.9814 560.919 85.9994C559.872 88.8315 558.241 91.4121 556.133 93.5738C554.043 95.7428 551.537 97.4695 548.767 98.6511C545.634 99.9082 542.278 100.517 538.903 100.441C534.398 100.814 529.923 99.4265 526.418 96.5702C524.987 95.216 523.872 93.5629 523.153 91.7286C522.433 89.8943 522.127 87.9239 522.256 85.9578C522.236 82.8461 522.786 79.757 523.879 76.8436C524.9 74.027 526.486 71.4493 528.541 69.2693C530.636 67.0577 533.174 65.3133 535.99 64.1504C539.125 62.8408 542.499 62.2028 545.895 62.2776C550.385 61.9239 554.843 63.2762 558.38 66.0648C559.793 67.4082 560.9 69.0404 561.625 70.8502C562.351 72.66 562.678 74.6049 562.583 76.5523ZM547.601 88.33C548.618 86.8349 549.365 85.1727 549.807 83.4192C550.367 81.3164 550.619 79.1436 550.556 76.9685C550.693 75.1693 550.176 73.3812 549.1 71.9328C548.526 71.2887 547.809 70.7876 547.007 70.4697C546.205 70.1518 545.339 70.0257 544.48 70.1016C543.006 70.0972 541.561 70.5161 540.318 71.3085C539.017 72.1808 537.911 73.3147 537.072 74.6379C536.122 76.1836 535.42 77.8688 534.991 79.632C534.482 81.6303 534.244 83.688 534.284 85.7497C534.177 86.6917 534.27 87.6456 534.557 88.5492C534.844 89.4527 535.318 90.2856 535.948 90.9935C536.547 91.5412 537.25 91.9633 538.015 92.2349C538.78 92.5065 539.591 92.6221 540.402 92.575C541.866 92.5953 543.308 92.2061 544.563 91.4513C545.806 90.6629 546.847 89.5938 547.601 88.33Z" fill="#1434CB"/>
<path d="M608.53 63.4845L600.206 99.3586H588.637L589.594 95.405C588.47 96.1124 587.305 96.8616 586.181 97.4442C584.168 98.6437 581.976 99.5147 579.689 100.024C578.675 100.224 577.643 100.322 576.609 100.316C573.932 100.473 571.287 99.6607 569.16 98.0268C568.234 97.1851 567.511 96.1455 567.042 94.9855C566.574 93.8255 566.373 92.5748 566.455 91.3265C566.411 90.578 566.411 89.8276 566.455 89.0791C566.532 88.3091 566.657 87.5446 566.829 86.7902L572.239 63.4845H583.851L579.689 81.2967C579.356 82.6701 579.19 83.8353 578.981 84.7925C578.839 85.6329 578.742 86.4804 578.69 87.3312C578.642 87.8852 578.706 88.4432 578.878 88.9721C579.049 89.5011 579.325 89.9903 579.689 90.4109C580.842 91.1357 582.203 91.4576 583.559 91.3265C584.664 91.2871 585.757 91.0909 586.806 90.7438C588.234 90.2636 589.625 89.6794 590.967 88.9959L596.835 63.5261H608.53V63.4845Z" fill="#1434CB"/>
<path d="M623.177 100.024C620.192 100.29 617.201 99.5896 614.645 98.0269C613.781 97.3344 613.098 96.4422 612.656 95.4272C612.214 94.4121 612.025 93.3047 612.106 92.2004C612.065 91.5352 612.065 90.8681 612.106 90.2028C612.106 89.5369 612.231 88.7878 612.481 87.9555L616.393 70.934H611.773L613.521 63.318H618.224L620.638 53.0802H632.208L629.877 63.318H640.906L639.199 70.934H628.42L625.216 83.7937C625.216 84.6677 624.841 85.5833 624.633 86.5405C624.449 87.3039 624.351 88.0857 624.342 88.8711C624.28 89.3644 624.347 89.8653 624.537 90.3249C624.726 90.7845 625.032 91.187 625.424 91.4929C626.428 92.0844 627.592 92.3464 628.753 92.2421C629.539 92.2084 630.32 92.0968 631.084 91.9091C631.888 91.7535 632.67 91.502 633.414 91.16H634.33L632.582 98.9841C631.216 99.3332 629.825 99.5698 628.42 99.6915C626.68 99.9028 624.929 100.014 623.177 100.024Z" fill="#1434CB"/>
</svg>
