<svg width="391" height="111" viewBox="0 0 391 111" fill="none" xmlns="http://www.w3.org/2000/svg">
<rect x="0.839844" y="0.545044" width="110.455" height="110.455" rx="30" fill="#004F71"/>
<path d="M0.839844 97.1931H111.295V97.1931C111.295 104.818 105.113 111 97.4879 111H14.6467C7.0214 111 0.839844 104.818 0.839844 97.1931V97.1931Z" fill="#FFCB05"/>
<path d="M23.3911 56.4629L45.252 22.406C78.6186 43.5765 78.1583 73.2612 77.468 87.2982C57.7702 64.1027 33.2093 57.0765 23.3911 56.4629Z" fill="#FFCB05"/>
<path d="M58.1384 23.3264L66.1924 10.2099C84.3714 32.7611 80.9197 53.7015 80.9197 61.9856C75.397 40.2628 63.431 27.1617 58.1384 23.3264Z" fill="#FFCB05"/>
<circle cx="49.3939" cy="46.3378" r="9.89492" fill="#004F71"/>
<path d="M171.681 0.545044L154.545 26.9755L135.396 0.545044H118.659V67.9572H135.297V30.1554L148.6 48.3945H158.078L170.168 30.1554V67.9572H188.318V0.545044H171.681Z" fill="#FFCB05"/>
<path d="M232.88 44.1408C232.88 52.0525 229.123 56.7762 222.531 56.7762C215.427 56.7762 211.169 51.3265 211.169 42.4967C211.169 34.3848 214.925 29.6528 221.518 29.6528C228.621 29.6528 232.88 35.1025 232.88 44.1408ZM251.236 42.4717C251.236 27.7833 238.963 16.2747 222.531 16.2747C205.488 16.2747 192.812 28.1923 192.812 44.1158C192.812 58.8042 205.086 70.2044 221.518 70.2044C238.661 70.2044 251.236 58.1866 251.236 42.4717Z" fill="#FFCB05"/>
<path d="M308.761 0.545044L291.616 26.9755L272.468 0.545044H255.73V67.9572H272.368V30.1554L285.671 48.3945H295.15L307.247 30.1554V67.9572H325.39V0.545044H308.761Z" fill="#FFCB05"/>
<path d="M372.198 44.1408C372.198 52.0525 368.442 56.7762 361.849 56.7762C354.754 56.7762 350.487 51.3265 350.487 42.4967C350.487 34.3848 354.244 29.6528 360.837 29.6528C367.94 29.6528 372.198 35.1025 372.198 44.1408ZM390.555 42.4717C390.555 27.7833 378.281 16.2747 361.849 16.2747C344.806 16.2747 332.131 28.1923 332.131 44.1158C332.131 58.8042 344.405 70.2044 360.837 70.2044C377.98 70.2044 390.555 58.1866 390.555 42.4717Z" fill="#FFCB05"/>
<path d="M189.434 91.938C191.267 91.938 192.744 92.5874 193.865 93.8862C194.985 95.185 195.546 97.1077 195.546 99.6544V110.427H191.764V100.418C191.764 96.9295 190.592 95.185 188.249 95.185C186.186 95.185 184.467 96.3564 183.092 98.6994C183.118 98.9031 183.13 99.2215 183.13 99.6544V110.427H179.349V100.418C179.349 96.9295 178.177 95.185 175.834 95.185C173.771 95.185 172.065 96.3437 170.715 98.6612V110.427H166.934V92.5874L170.601 91.7852V95.2996C172.333 93.0585 174.459 91.938 176.98 91.938C178.254 91.938 179.374 92.269 180.342 92.9312C181.31 93.5933 182.035 94.5738 182.519 95.8726C183.36 94.6502 184.378 93.6952 185.575 93.0076C186.772 92.2945 188.058 91.938 189.434 91.938Z" fill="#FFCB05"/>
<path d="M161.38 108.173C159.419 110.058 157.012 111 154.16 111C151.308 111 148.926 110.121 147.016 108.364C145.106 106.607 144.151 104.34 144.151 101.565C144.151 98.7632 145.132 96.4203 147.093 94.5357C149.054 92.6512 151.46 91.7089 154.313 91.7089C157.139 91.7089 159.508 92.5875 161.418 94.3447C163.353 96.1019 164.321 98.3685 164.321 101.144C164.321 103.946 163.341 106.289 161.38 108.173ZM154.389 108.02C156.146 108.02 157.585 107.409 158.706 106.187C159.852 104.939 160.425 103.347 160.425 101.412C160.425 99.3999 159.839 97.7828 158.667 96.5603C157.496 95.3125 155.968 94.6885 154.083 94.6885C152.301 94.6885 150.849 95.3125 149.729 96.5603C148.608 97.7828 148.048 99.3617 148.048 101.297C148.048 103.309 148.634 104.939 149.805 106.187C150.976 107.409 152.504 108.02 154.389 108.02Z" fill="#FFCB05"/>
<path d="M142.576 91.8616C143.289 91.8616 143.99 91.938 144.677 92.0908V95.8726C143.913 95.5924 143.124 95.4524 142.309 95.4524C140.883 95.4524 139.66 95.8344 138.642 96.5984C137.623 97.3624 136.694 98.5593 135.853 100.189V110.427H132.071V92.5874L135.739 91.7852V96.6748C136.579 95.1213 137.598 93.9371 138.795 93.1222C139.991 92.2818 141.252 91.8616 142.576 91.8616Z" fill="#FFCB05"/>
<path d="M127.452 86.7427C126.026 86.7427 124.995 87.112 124.358 87.8505C123.721 88.5636 123.403 89.7223 123.403 91.3267V92.2818H130.585V95.3378H123.403V110.427H119.621V91.4413C119.621 86.2716 122.091 83.6867 127.032 83.6867C128.942 83.6867 130.686 83.9923 132.265 84.6035V87.7741C130.686 87.0865 129.082 86.7427 127.452 86.7427Z" fill="#FFCB05"/>
<path fill-rule="evenodd" clip-rule="evenodd" d="M235.536 91.6379H244.794V110.652H250.966V91.6379H260.225V85.9338L235.507 85.9728L235.536 91.6379Z" fill="#FFCB05"/>
<path fill-rule="evenodd" clip-rule="evenodd" d="M281.019 85.9727V100.712L268.678 85.9338L262.472 85.9727V110.652L268.678 110.644V95.4377L281.019 110.644L287.189 110.652V85.9727H281.019Z" fill="#FFCB05"/>
<path fill-rule="evenodd" clip-rule="evenodd" d="M217.53 96.3881L209.826 85.9338H204.048L204.068 110.652L209.826 110.644V95.4377L215.604 103.041H219.456L225.235 95.4377V110.644L230.992 110.652L231.013 85.9338H225.235L217.53 96.3881Z" fill="#FFCB05"/>
</svg>
