<svg width="847" height="240" viewBox="0 0 847 240" fill="none" xmlns="http://www.w3.org/2000/svg">
<rect width="240" height="240" rx="30" fill="#004F71"/>
<path d="M0 210H240C240 226.569 226.569 240 210 240H30C13.4315 240 0 226.569 0 210Z" fill="#FFCB05"/>
<path d="M49 121.5L96.5 47.5C169 93.5 168 158 166.5 188.5C123.7 138.1 70.3333 122.833 49 121.5Z" fill="#FFCB05"/>
<path d="M124.5 49.5L142 21C181.5 70 174 115.5 174 133.5C162 86.3 136 57.8333 124.5 49.5Z" fill="#FFCB05"/>
<circle cx="105.5" cy="99.5" r="21.5" fill="#004F71"/>
<path d="M371.207 0L333.973 57.4288L292.367 0H256V146.475H292.15V64.3384L321.056 103.969H341.651L367.919 64.3384V146.475H407.358V0H371.207Z" fill="black"/>
<path d="M504.183 94.7261C504.183 111.917 496.02 122.181 481.695 122.181C466.261 122.181 457.008 110.339 457.008 91.1537C457.008 73.5278 465.17 63.2459 479.496 63.2459C494.93 63.2459 504.183 75.0873 504.183 94.7261ZM544.068 91.0993C544.068 59.184 517.399 34.1776 481.695 34.1776C444.664 34.1776 417.123 60.0725 417.123 94.6717C417.123 126.587 443.792 151.358 479.496 151.358C516.745 151.358 544.068 125.245 544.068 91.0993Z" fill="black"/>
<path d="M669.059 0L631.806 57.4288L590.2 0H553.833V146.475H589.983V64.3384L618.889 103.969H639.484L665.77 64.3384V146.475H705.191V0H669.059Z" fill="black"/>
<path d="M806.898 94.7261C806.898 111.917 798.736 122.181 784.411 122.181C768.995 122.181 759.723 110.339 759.723 91.1537C759.723 73.5278 767.886 63.2459 782.211 63.2459C797.645 63.2459 806.898 75.0873 806.898 94.7261ZM846.783 91.0993C846.783 59.184 820.115 34.1776 784.411 34.1776C747.38 34.1776 719.838 60.0725 719.838 94.6717C719.838 126.587 746.507 151.358 782.211 151.358C819.46 151.358 846.783 125.245 846.783 91.0993Z" fill="black"/>
<path d="M409.781 198.581C413.765 198.581 416.974 199.992 419.409 202.815C421.844 205.637 423.061 209.814 423.061 215.348V238.755H414.844V217.008C414.844 209.427 412.299 205.637 407.208 205.637C402.726 205.637 398.99 208.182 396.002 213.273C396.058 213.716 396.085 214.407 396.085 215.348V238.755H387.868V217.008C387.868 209.427 385.323 205.637 380.232 205.637C375.75 205.637 372.042 208.154 369.109 213.19V238.755H360.892V199.992L368.86 198.249V205.886C372.623 201.016 377.244 198.581 382.722 198.581C385.489 198.581 387.923 199.301 390.026 200.739C392.129 202.178 393.706 204.309 394.757 207.131C396.583 204.475 398.797 202.399 401.398 200.905C403.998 199.356 406.793 198.581 409.781 198.581Z" fill="black"/>
<path d="M348.825 233.858C344.564 237.953 339.335 240 333.137 240C326.94 240 321.766 238.091 317.616 234.273C313.466 230.455 311.39 225.53 311.39 219.498C311.39 213.411 313.521 208.321 317.782 204.226C322.042 200.131 327.272 198.084 333.469 198.084C339.611 198.084 344.758 199.993 348.908 203.811C353.113 207.629 355.216 212.554 355.216 218.585C355.216 224.672 353.085 229.763 348.825 233.858ZM333.635 233.526C337.453 233.526 340.58 232.198 343.014 229.542C345.505 226.83 346.75 223.372 346.75 219.166C346.75 214.795 345.477 211.281 342.931 208.625C340.386 205.914 337.066 204.558 332.971 204.558C329.098 204.558 325.944 205.914 323.509 208.625C321.074 211.281 319.857 214.712 319.857 218.917C319.857 223.289 321.129 226.83 323.675 229.542C326.22 232.198 329.54 233.526 333.635 233.526Z" fill="black"/>
<path d="M307.968 198.415C309.517 198.415 311.039 198.581 312.533 198.913V207.131C310.873 206.522 309.157 206.218 307.387 206.218C304.288 206.218 301.632 207.048 299.418 208.708C297.205 210.368 295.185 212.968 293.359 216.51V238.755H285.142V199.992L293.11 198.249V208.874C294.936 205.498 297.15 202.925 299.75 201.154C302.351 199.328 305.09 198.415 307.968 198.415Z" fill="black"/>
<path d="M275.105 187.293C272.006 187.293 269.765 188.095 268.382 189.7C266.999 191.249 266.307 193.767 266.307 197.253V199.328H281.911V205.969H266.307V238.755H258.09V197.502C258.09 186.269 263.457 180.653 274.192 180.653C278.342 180.653 282.133 181.317 285.564 182.645V189.534C282.133 188.04 278.647 187.293 275.105 187.293Z" fill="black"/>
<path fill-rule="evenodd" clip-rule="evenodd" d="M509.953 197.929H530.07V239.243H543.481V197.929H563.598V185.535L509.89 185.62L509.953 197.929Z" fill="black"/>
<path fill-rule="evenodd" clip-rule="evenodd" d="M608.781 185.62V217.647L581.966 185.535L568.48 185.62V239.243L581.966 239.226V206.186L608.781 239.226L622.188 239.243V185.62H608.781Z" fill="black"/>
<path fill-rule="evenodd" clip-rule="evenodd" d="M470.83 208.251L454.09 185.535H441.535L441.579 239.243L454.09 239.226V206.186L466.645 222.706H475.015L487.57 206.186V239.226L500.081 239.243L500.125 185.535H487.57L470.83 208.251Z" fill="black"/>
</svg>
