<svg width="81" height="25" viewBox="0 0 81 25" fill="none" xmlns="http://www.w3.org/2000/svg">
<path d="M80.4783 16.9504C80.4238 17.2181 80.3807 17.488 80.3125 17.7522C80.0695 18.6924 79.5188 19.4164 78.7388 19.97C77.886 20.5762 76.9231 20.8908 75.8955 21.028C74.8305 21.171 73.7677 21.1344 72.7162 20.9377C71.6137 20.7318 70.5668 20.3509 69.6118 19.7481C69.1781 19.4748 68.7682 19.1602 68.3594 18.8491C68.1221 18.6695 68.113 18.3813 68.339 18.1937C68.8204 17.7957 69.37 17.5326 69.99 17.4377C70.1864 17.408 70.3635 17.4526 70.5327 17.5704C71.1708 18.0176 71.8521 18.387 72.6038 18.5986C73.8789 18.9578 75.162 19.0504 76.444 18.6375C76.9799 18.4648 77.4421 18.1709 77.7577 17.6825C78.2051 16.9916 78.1074 15.8192 77.2854 15.1993C76.8198 14.8482 76.3179 14.5679 75.7797 14.3609C74.7748 13.9732 73.7586 13.6163 72.7526 13.2332C71.826 12.8797 70.9176 12.4863 70.1046 11.9006C69.2099 11.2567 68.6262 10.4126 68.4957 9.29969C68.306 7.67323 68.867 6.37619 70.2364 5.46231C71.0482 4.92015 71.9566 4.65137 72.9115 4.52441C74.4206 4.3231 75.8694 4.55071 77.2661 5.14777C78.1812 5.53894 79.0056 6.06965 79.7266 6.75821C79.9764 6.99612 79.9685 7.22945 79.6846 7.42847C79.2509 7.73157 78.7865 7.97862 78.263 8.09186C78.0382 8.1399 77.844 8.09529 77.6544 7.95232C76.3531 6.9721 74.8906 6.55347 73.2737 6.73076C72.622 6.80282 72.0054 6.99269 71.4717 7.40902C70.5997 8.09071 70.6008 9.4644 71.6239 10.1255C72.1905 10.4915 72.8014 10.7614 73.427 10.9982C74.4399 11.3802 75.4663 11.7291 76.4724 12.1317C77.4761 12.5343 78.4299 13.0364 79.2282 13.7913C79.9117 14.4376 80.3364 15.2188 80.4352 16.1681C80.4397 16.2161 80.4613 16.263 80.4749 16.3111V16.947L80.4783 16.9504Z" fill="#F04F26"/>
<path d="M20.8276 13.932C21.912 13.932 22.9952 13.9274 24.0796 13.9343C24.6825 13.9377 25.2423 13.7902 25.7635 13.4905C25.7794 13.4813 25.7964 13.4733 25.8123 13.4642C26.0054 13.3555 26.153 13.3658 26.2427 13.4928C26.329 13.6152 26.2972 13.733 26.1348 13.8977C24.9982 15.0449 23.8639 16.1944 22.7239 17.337C22.0698 17.9924 21.2807 18.3253 20.3541 18.3241C19.0597 18.3218 17.7652 18.3218 16.4708 18.3241C15.9122 18.3253 15.5034 18.6421 15.3558 19.1854C15.3297 19.2803 15.324 19.3821 15.324 19.4805C15.3217 20.2102 15.324 20.9411 15.3217 21.6708C15.3183 23.0697 14.4315 24.345 13.1098 24.7739C11.8267 25.1902 10.6651 24.9272 9.70226 23.9698C8.01041 22.2885 6.34013 20.5842 4.65963 18.8903C3.64452 17.8677 2.62487 16.8498 1.61089 15.8261C1.13286 15.3434 1.16806 14.5965 1.67788 14.1722C1.88908 13.996 2.14116 13.9343 2.40572 13.9331C3.46512 13.9286 4.52338 13.9297 5.58277 13.932C5.93363 13.932 6.22431 14.0635 6.47639 14.3186C8.42372 16.2893 10.3756 18.2555 12.3297 20.2205C12.9395 20.8336 13.9217 20.6082 14.1931 19.7939C14.2317 19.6783 14.2441 19.5491 14.2453 19.4267C14.2532 18.6844 14.2612 17.9421 14.2566 17.1998C14.2487 15.7472 15.2672 14.3655 16.8012 14.0178C17.0703 13.9572 17.3542 13.9377 17.6313 13.9354C18.6963 13.9263 19.7614 13.932 20.8265 13.932H20.8276Z" fill="#F04F26"/>
<path d="M5.60434 11.6811C4.53246 11.6811 3.46171 11.6846 2.38982 11.68C1.69378 11.6765 1.03861 11.8184 0.437945 12.1844C0.275572 12.2839 0.144993 12.2656 0.0541553 12.1501C-0.033276 12.038 -0.0162439 11.9007 0.115471 11.7669C0.887592 10.9846 1.66312 10.2034 2.43751 9.42216C2.80881 9.047 3.18238 8.67412 3.55368 8.29782C4.22247 7.6207 5.03547 7.30044 5.97678 7.2993C7.24623 7.29815 8.51683 7.28557 9.78628 7.30387C10.471 7.31417 10.9899 6.74456 10.9672 6.11663C10.9411 5.39376 10.9547 4.6686 10.9626 3.94573C10.9774 2.5446 11.8381 1.3036 13.1484 0.862099C14.3974 0.441188 15.5522 0.667656 16.5049 1.59069C17.7902 2.83512 19.0313 4.12416 20.2917 5.39376C21.2455 6.35454 22.1993 7.31531 23.1531 8.27723C23.6697 8.79765 24.1761 9.32722 24.703 9.8362C25.1276 10.2468 25.1379 11.1596 24.4838 11.529C24.3339 11.6136 24.1466 11.6708 23.9751 11.672C22.8419 11.6846 21.7087 11.6788 20.5744 11.6777C20.2996 11.6777 20.0703 11.5679 19.8772 11.3734C19.2856 10.7787 18.6952 10.1828 18.1036 9.588C17.1226 8.60092 16.1415 7.61384 15.1605 6.62561C14.7619 6.22414 14.3668 5.81925 13.9682 5.41892C13.4175 4.86419 12.5443 4.96484 12.1753 5.62595C12.0663 5.82039 12.0243 6.03199 12.0243 6.25503C12.0254 6.94129 12.0243 7.62756 12.0243 8.31383C12.0243 9.8648 11.1432 11.0944 9.67387 11.5553C9.40136 11.6411 9.10159 11.6708 8.81432 11.6743C7.74243 11.688 6.67168 11.68 5.5998 11.68L5.60434 11.6811Z" fill="#F04F26"/>
<path d="M44.989 14.2568C45.2468 14.5554 45.4909 14.8425 45.7396 15.1273C46.9023 16.4632 48.0662 17.798 49.2311 19.1328C49.5411 19.4885 49.8534 19.8431 50.1634 20.1988C50.2201 20.264 50.2815 20.328 50.3257 20.4024C50.4336 20.5785 50.3916 20.7329 50.2031 20.8153C50.0918 20.8633 49.9669 20.9011 49.8466 20.9033C49.2527 20.9182 48.6577 20.9308 48.0718 20.805C47.797 20.7455 47.5677 20.6243 47.3758 20.4081C46.162 19.0424 44.9323 17.6916 43.7321 16.3134C43.304 15.8215 42.8362 15.404 42.2491 15.1261C41.6689 14.8516 41.058 14.7121 40.4176 14.7052C40.2076 14.7029 39.9964 14.7086 39.7863 14.7029C39.5263 14.6972 39.4286 14.5965 39.4195 14.3403C39.4059 13.9514 39.4422 13.5683 39.5615 13.1954C39.7102 12.731 40.002 12.4451 40.5425 12.4588C41.2976 12.4783 42.0538 12.476 42.8089 12.4611C44.1045 12.4359 45.2434 11.5564 45.5397 10.2845C45.7748 9.2711 45.3183 8.11702 44.4383 7.51654C43.9046 7.15167 43.321 6.97095 42.6749 6.97324C41.1455 6.97782 39.616 6.97439 38.0854 6.97439C37.8219 6.97439 37.8208 6.97439 37.8208 7.24546C37.8208 11.6319 37.8208 16.0183 37.8208 20.4047C37.8208 20.7272 37.7436 20.853 37.4291 20.8828C36.9749 20.9262 36.515 20.9571 36.0688 20.8061C35.7168 20.6872 35.4647 20.4676 35.4658 19.9586C35.4749 15.2348 35.4715 10.5121 35.4715 5.78828C35.4715 5.16836 35.7134 4.87898 36.3311 4.79205C36.6308 4.74973 36.934 4.71999 37.236 4.71885C39.1368 4.71199 41.0387 4.6914 42.9395 4.72342C44.318 4.74744 45.5193 5.25986 46.5083 6.2458C47.1907 6.92635 47.6528 7.735 47.8425 8.68205C48.174 10.3417 47.7687 11.808 46.6309 13.0593C46.204 13.5294 45.6987 13.8943 45.1298 14.1722C45.0821 14.1962 45.0367 14.226 44.9902 14.2534L44.989 14.2568Z" fill="#F04F26"/>
<path d="M59.5369 6.72045C56.9889 6.71702 54.6441 8.36635 53.8572 10.7992C53.0999 13.1416 53.5745 15.2531 55.2596 17.0431C56.2724 18.1182 57.5521 18.7016 59.0225 18.8285C60.5622 18.9612 61.9509 18.546 63.1817 17.6081C63.4202 17.4262 63.6677 17.3988 63.9334 17.4651C64.3751 17.5749 64.785 17.7648 65.1609 18.0256C65.2313 18.0748 65.2994 18.132 65.3573 18.196C65.5231 18.379 65.5151 18.5849 65.3391 18.7599C64.7158 19.3764 64.0129 19.8808 63.2317 20.2731C61.9464 20.9182 60.5815 21.2053 59.152 21.1321C57.0684 21.0257 55.2618 20.2445 53.7369 18.8079C52.7888 17.9146 52.0916 16.8509 51.6374 15.6305C51.3615 14.8916 51.2093 14.1241 51.1571 13.3338C51.064 11.9281 51.3149 10.5899 51.9031 9.31569C52.2846 8.48988 52.7933 7.74986 53.4167 7.08875C54.3012 6.15085 55.3436 5.45314 56.5404 4.98991C57.3307 4.68338 58.1505 4.50495 58.9964 4.45234C61.0357 4.32538 62.874 4.88697 64.5148 6.10396C64.7782 6.29954 65.0246 6.52029 65.2619 6.7479C65.4958 6.97209 65.489 7.21228 65.2301 7.39528C64.768 7.72241 64.2695 7.98662 63.7041 8.08842C63.5054 8.12387 63.3328 8.07698 63.1658 7.95116C62.0803 7.13336 60.8608 6.72389 59.5369 6.7216V6.72045Z" fill="#F04F26"/>
</svg>
