<svg width="147" height="46" viewBox="0 0 147 46" fill="none" xmlns="http://www.w3.org/2000/svg">
<path d="M97.7388 32.0724H93.9785V16.22H97.7388V32.0724Z" fill="#FF4D00"/>
<path d="M106.286 19.077H102.006L99.8796 22.315L97.7401 25.5737L99.8796 28.8306L102.006 32.0723H106.286L102.019 25.5737L106.286 19.077Z" fill="#FF4D00"/>
<path d="M75.0632 21.1877C74.6939 20.356 74.1696 19.7327 73.4902 19.3158C72.8109 18.9009 72.011 18.6925 71.0944 18.6925C70.0782 18.6925 69.198 18.9009 68.4517 19.3158C67.7053 19.7308 67.0968 20.3067 66.6203 21.04C66.2586 20.2745 65.7477 19.691 65.0837 19.2912C64.4196 18.8914 63.637 18.6925 62.7376 18.6925C61.886 18.6925 61.132 18.8725 60.4776 19.2306C59.8461 19.5754 59.3313 20.0604 58.9295 20.6781V19.0695H55.1692V32.0705H58.9295V25.1721C58.9295 24.113 59.1457 23.3381 59.5801 22.8493C60.0145 22.3605 60.6077 22.1161 61.3617 22.1161C62.0506 22.1161 62.5826 22.3321 62.9596 22.7641C63.3365 23.196 63.526 23.8857 63.526 24.8311V32.0705H67.2614V25.1721C67.2614 24.1282 67.4834 23.359 67.9254 22.8607C68.3675 22.3624 68.9645 22.1142 69.7185 22.1142C70.4074 22.1142 70.9355 22.3302 71.303 22.7622C71.6723 23.1941 71.856 23.8838 71.856 24.8292V32.0686H75.6163V24.2419C75.6163 23.0388 75.4325 22.0195 75.0632 21.1877Z" fill="#FF4D00"/>
<path d="M87.0782 19.0732V25.9261C87.0782 26.9871 86.8447 27.7695 86.3778 28.2735C85.9109 28.7794 85.2928 29.0314 84.5216 29.0314C83.7676 29.0314 83.1973 28.8154 82.8146 28.3834C82.43 27.9514 82.2367 27.2466 82.2367 26.2671V19.0713H78.4764V26.8791C78.4764 28.0859 78.664 29.1053 79.0429 29.937C79.4199 30.7687 79.948 31.3921 80.6274 31.8089C81.3067 32.2257 82.097 32.4322 82.9983 32.4322C83.8997 32.4322 84.69 32.2655 85.3693 31.9301C86.0295 31.6062 86.5998 31.1079 87.0839 30.4372V32.0722H87.1394H90.8365V19.0713H87.0782V19.0732Z" fill="#FF4D00"/>
<path d="M116.764 19.0732V25.9261C116.764 26.9871 116.53 27.7695 116.063 28.2735C115.597 28.7794 114.978 29.0314 114.207 29.0314C113.453 29.0314 112.883 28.8154 112.5 28.3834C112.116 27.9514 111.922 27.2466 111.922 26.2671V19.0713H108.162V26.8791C108.162 28.0859 108.35 29.1053 108.729 29.937C109.106 30.7687 109.634 31.3921 110.313 31.8089C110.992 32.2257 111.783 32.4322 112.684 32.4322C113.585 32.4322 114.376 32.2655 115.055 31.9301C115.715 31.6062 116.285 31.1079 116.77 30.4372V32.0722H116.825H120.522V19.0713H116.764V19.0732Z" fill="#FF4D00"/>
<path d="M142.882 19.0732V25.9261C142.882 26.9871 142.649 27.7695 142.182 28.2735C141.715 28.7794 141.097 29.0314 140.326 29.0314C139.572 29.0314 139.001 28.8154 138.619 28.3834C138.234 27.9514 138.041 27.2466 138.041 26.2671V19.0713H134.28V26.8791C134.28 28.0859 134.468 29.1053 134.847 29.937C135.224 30.7687 135.752 31.3921 136.431 31.8089C137.111 32.2238 137.901 32.4322 138.802 32.4322C139.704 32.4322 140.494 32.2655 141.173 31.9301C141.833 31.6062 142.404 31.1079 142.888 30.4372V32.0722H142.943H146.64V19.0713H142.882V19.0732Z" fill="#FF4D00"/>
<path d="M129.312 19.3897C128.579 19.7458 127.947 20.3635 127.415 21.2369V19.0714H123.663H123.661V32.0723H127.421V25.6874C127.421 24.6113 127.756 23.8212 128.43 23.3153C129.101 22.8095 129.978 22.5575 131.059 22.5575C131.239 22.5575 131.493 22.5745 131.821 22.6067V18.8402C130.9 18.8402 130.064 19.024 129.312 19.3897Z" fill="#FF4D00"/>
<path d="M17.5658 11.1234L18.8249 6.38301L24.2118 10.7388L29.6006 6.38301L30.8176 10.9661L33.6039 7.17875L31.696 0L24.2118 6.05334L16.7276 0L14.7795 7.33601L17.5658 11.1234Z" fill="#FF4D00"/>
<path d="M43.803 8.7002L36.0834 9.13596L33.2953 12.9271L38.3166 12.6429L35.7983 19.0544L41.6483 22.7754L37.578 25.3654L41.9315 26.9076L48.4263 22.7754L40.3011 17.6068L43.803 8.7002Z" fill="#FF4D00"/>
<path d="M36.5155 28.319L38.3181 32.9078L31.3698 32.5156L29.6016 39.1695L25.7992 36.0926V40.7781L31.6989 45.5506L34.1541 36.3048L43.8026 36.8505L41.0871 29.9389L36.5155 28.319Z" fill="#FF4D00"/>
<path d="M22.6294 36.0926L18.827 39.1695L17.0607 32.5156L10.1104 32.9078L11.8805 28.4061L7.30696 30.026L4.62598 36.8505L14.2745 36.3048L16.7297 45.5507L22.6294 40.7781V36.0926Z" fill="#FF4D00"/>
<path d="M6.57139 26.955L10.9249 25.4127L6.77997 22.7754L12.6299 19.0525L10.1097 12.6429L14.9665 12.9176L12.1802 9.12649L4.62523 8.7002L8.12525 17.6069L0 22.7754L6.57139 26.955Z" fill="#FF4D00"/>
</svg>
