<svg width="53" height="42" viewBox="0 0 53 42" fill="none" xmlns="http://www.w3.org/2000/svg">
<path d="M15.6668 0H17.0155C17.0469 0.0473482 17.0962 0.023148 17.136 0.0252524C18.0875 0.0726006 19.0285 0.19781 19.957 0.411404C22.3431 0.958539 24.4987 1.99494 26.4269 3.50693C26.4269 3.51429 26.4269 3.52166 26.4269 3.52797C25.1484 4.53386 24.047 5.70704 23.1217 7.04647C21.3654 9.58854 20.4024 12.4084 20.2211 15.4944C20.133 17.0033 20.2557 18.4974 20.5837 19.9736C21.1191 22.3894 22.1503 24.5695 23.6656 26.5203C24.4735 27.5609 25.3999 28.4847 26.4269 29.3064C26.4258 29.3128 26.4258 29.3191 26.4269 29.3254C26.3807 29.3591 26.3346 29.3927 26.2885 29.4275C23.8678 31.2824 21.1443 32.3851 18.1179 32.7229C16.808 32.8691 15.4981 32.8502 14.1903 32.6776C12.5964 32.4672 11.0643 32.0358 9.6046 31.3645C6.71862 30.0377 4.39643 28.0417 2.65479 25.3755C1.12902 23.0386 0.269725 20.4681 0.0496615 17.684C-0.0415075 16.5298 -0.00587821 15.3777 0.14607 14.2297C0.35775 12.6346 0.78111 11.0974 1.45807 9.63905C3.27516 5.71967 6.17161 2.91139 10.1422 1.23316C11.7644 0.547135 13.463 0.165193 15.2204 0.046296C15.3692 0.0357742 15.5232 0.0568179 15.6679 0L15.6668 0Z" fill="#EA001B"/>
<path d="M26.4279 3.52794C26.4279 3.52057 26.4279 3.51321 26.4279 3.5069C26.474 3.47217 26.5201 3.4385 26.5651 3.40378C28.0511 2.25901 29.6816 1.39201 31.4631 0.81015C32.8851 0.346138 34.3428 0.08204 35.8371 0.0241699C36.2794 0.0241699 36.7216 0.0241699 37.1638 0.0241699C37.5735 0.0294308 37.9822 0.0662572 38.3888 0.113605C39.8475 0.283007 41.2633 0.629175 42.6214 1.19315C46.5437 2.82298 49.4349 5.5597 51.2866 9.3928C52.0904 11.0574 52.5714 12.8187 52.7631 14.659C52.7883 14.9041 52.8134 15.1503 52.8386 15.3966V17.4399C52.8313 17.4746 52.8197 17.5083 52.8176 17.543C52.7967 17.905 52.7568 18.2648 52.7097 18.6247C52.5169 20.083 52.1365 21.4898 51.557 22.8397C50.246 25.891 48.2089 28.3363 45.4413 30.1587C42.9756 31.7822 40.2583 32.6513 37.3157 32.8018C36.1285 32.8628 34.9464 32.7933 33.7748 32.5903C31.723 32.2357 29.8064 31.5181 28.027 30.4312C27.4737 30.0934 26.9487 29.7136 26.4289 29.3264C26.4289 29.3201 26.4289 29.3138 26.4289 29.3075C27.3154 28.6036 28.1234 27.8186 28.8496 26.9474C29.6104 26.0352 30.2664 25.0535 30.8155 24.0003C31.3049 23.0617 31.6978 22.0832 31.9976 21.0678C32.3528 19.8652 32.5634 18.6362 32.6368 17.3841C32.6682 16.8423 32.6766 16.2993 32.6494 15.7543C32.62 15.1409 32.5687 14.5296 32.4765 13.9235C32.3067 12.8019 32.0227 11.7097 31.6245 10.6481C31.1079 9.27075 30.4204 7.98498 29.5601 6.79391C29.1514 6.22784 28.7081 5.69017 28.2313 5.18092C27.6728 4.58433 27.0776 4.02773 26.4289 3.52899L26.4279 3.52794Z" fill="#0098DE"/>
<path d="M26.4269 3.52795C27.0756 4.02564 27.6697 4.58329 28.2293 5.17988C28.7061 5.68914 29.1494 6.2268 29.5581 6.79288C30.4184 7.98395 31.1069 9.26971 31.6225 10.647C32.0207 11.7087 32.3047 12.8008 32.4744 13.9225C32.5667 14.5296 32.618 15.1398 32.6474 15.7533C32.6736 16.2972 32.6662 16.8402 32.6348 17.3831C32.5614 18.6341 32.3508 19.8641 31.9955 21.0668C31.6958 22.0821 31.3029 23.0607 30.8135 23.9992C30.2644 25.0525 29.6084 26.0341 28.8476 26.9464C28.1214 27.8176 27.3134 28.6025 26.4269 29.3064C25.3989 28.4847 24.4736 27.5619 23.6656 26.5202C22.1503 24.5695 21.1202 22.3894 20.5837 19.9736C20.2557 18.4974 20.1331 17.0033 20.2211 15.4944C20.4024 12.4084 21.3644 9.58853 23.1218 7.04645C24.0471 5.70702 25.1484 4.53384 26.4269 3.52795Z" fill="#6C6BBC"/>
<path d="M9.56889 37.2483C9.93042 36.7432 10.4009 36.5717 10.9605 36.6033C11.5222 36.6359 11.9602 36.8821 12.2767 37.3745C12.2935 37.3503 12.305 37.3324 12.3176 37.3146C12.7462 36.7106 13.3529 36.5286 14.0487 36.6191C14.9583 36.7369 15.4917 37.3503 15.5043 38.2752C15.5158 39.1727 15.5064 40.0713 15.5106 40.9688C15.5106 41.0593 15.476 41.0666 15.4037 41.0656C15.1616 41.0614 14.9185 41.0593 14.6765 41.0666C14.579 41.0698 14.5528 41.0456 14.5528 40.9446C14.558 40.1923 14.5549 39.441 14.5559 38.6887C14.5559 38.5109 14.5434 38.3352 14.4994 38.1626C14.3862 37.7165 14.0603 37.4808 13.5803 37.4934C12.9631 37.5092 12.5586 37.9027 12.5481 38.5319C12.5345 39.3274 12.5397 40.1239 12.5439 40.9204C12.5439 41.034 12.5219 41.0729 12.4014 41.0666C12.1688 41.0551 11.934 41.0582 11.7014 41.0666C11.6081 41.0698 11.5851 41.0424 11.5861 40.9498C11.5903 40.207 11.5893 39.4631 11.5882 38.7203C11.5882 38.4941 11.5746 38.2699 11.495 38.0542C11.3703 37.7186 11.1292 37.5345 10.775 37.5018C10.0656 37.4366 9.59718 37.847 9.58775 38.5603C9.57727 39.3516 9.58147 40.1439 9.58566 40.9351C9.58566 41.0382 9.56156 41.0698 9.45676 41.0666C9.21469 41.0582 8.97262 41.0603 8.72951 41.0666C8.64567 41.0687 8.62891 41.0424 8.62891 40.9625C8.631 39.5778 8.631 38.1931 8.62891 36.8085C8.62891 36.7253 8.65091 36.7043 8.7316 36.7064C8.97786 36.7117 9.22517 36.7127 9.47143 36.7064C9.55527 36.7043 9.57623 36.7316 9.57203 36.8106C9.56575 36.941 9.56994 37.0715 9.56994 37.2472L9.56889 37.2483Z" fill="#242021"/>
<path d="M19.8801 37.2126C19.8801 37.0632 19.8833 36.9349 19.8791 36.8075C19.877 36.7371 19.8916 36.7055 19.9713 36.7065C20.227 36.7118 20.4827 36.7107 20.7373 36.7065C20.8086 36.7055 20.8243 36.7286 20.8243 36.796C20.8222 38.1891 20.8222 39.5822 20.8243 40.9752C20.8243 41.0436 20.8065 41.0657 20.7363 41.0636C20.4806 41.0594 20.2249 41.0584 19.9702 41.0636C19.8885 41.0657 19.8759 41.031 19.8791 40.9626C19.8833 40.8353 19.8801 40.7069 19.8801 40.5838C19.8518 40.567 19.8424 40.5838 19.8309 40.5965C19.4044 41.0899 18.849 41.2404 18.2317 41.151C17.0706 40.9826 16.3203 40.0525 16.3444 38.8446C16.3643 37.8418 16.9019 37.0275 17.7738 36.7286C18.4329 36.5024 19.0743 36.5298 19.6464 36.9885C19.724 37.0506 19.791 37.1253 19.8812 37.2116L19.8801 37.2126ZM19.9336 38.8835C19.9304 37.9323 19.1791 37.3179 18.2841 37.5346C17.7424 37.6661 17.3756 38.1091 17.3211 38.752C17.2383 39.7253 17.9572 40.466 18.9695 40.2377C19.5542 40.1051 19.9357 39.5569 19.9336 38.8846V38.8835Z" fill="#242021"/>
<path d="M24.4228 39.2537C23.9292 39.2537 23.4356 39.2569 22.9431 39.2516C22.8341 39.2505 22.8215 39.28 22.8467 39.3789C23.0374 40.146 23.6798 40.3711 24.3002 40.3069C24.6711 40.268 25.0086 40.1365 25.3072 39.9124C25.3753 39.8619 25.3973 39.885 25.434 39.9429C25.5472 40.1217 25.6614 40.3006 25.7851 40.4721C25.8417 40.551 25.8186 40.5879 25.7515 40.6394C25.3177 40.9719 24.8241 41.1361 24.2844 41.1687C23.8758 41.1939 23.4734 41.1539 23.0961 40.9814C22.3311 40.6321 21.9486 40.0102 21.8564 39.1916C21.8082 38.7602 21.8522 38.3362 22.0105 37.9279C22.3835 36.9652 23.2921 36.5033 24.275 36.619C25.2642 36.7358 25.8982 37.4976 26.0313 38.4898C26.0596 38.7013 26.0586 38.9128 26.0533 39.1253C26.0512 39.2232 26.0219 39.259 25.915 39.2579C25.4172 39.2516 24.9195 39.2547 24.4217 39.2547L24.4228 39.2537ZM23.946 38.5066C24.2897 38.5066 24.6324 38.5077 24.9761 38.5045C25.0127 38.5045 25.0871 38.5403 25.0693 38.4456C24.9981 38.0553 24.8042 37.6365 24.3211 37.4934C23.6243 37.2872 22.9473 37.7154 22.8394 38.4298C22.8247 38.5245 22.8792 38.5066 22.9305 38.5066C23.269 38.5066 23.6085 38.5066 23.947 38.5066H23.946Z" fill="#242021"/>
<path d="M41.8416 41.2004C40.6899 41.1983 39.773 40.4923 39.554 39.3927C39.2501 37.8702 40.3168 36.6455 41.7389 36.6034C42.6034 36.5781 43.3275 36.8801 43.8096 37.6177C44.3094 38.3816 44.3283 39.1981 43.9185 40.0082C43.5361 40.7627 42.7438 41.2014 41.8416 41.2004ZM41.8416 40.2997C42.6307 40.3018 43.2091 39.7199 43.2133 38.9171C43.2175 38.0943 42.6464 37.503 41.8468 37.5019C41.0556 37.5019 40.4898 38.0785 40.4845 38.8919C40.4793 39.7105 41.0452 40.2976 41.8416 40.2997Z" fill="#242021"/>
<path d="M27.3121 39.8715C27.8057 40.2387 28.36 40.3534 28.9521 40.3186C29.1334 40.3081 29.3105 40.2776 29.475 40.1945C29.6458 40.1082 29.7527 39.9767 29.7402 39.7757C29.7286 39.5853 29.5882 39.5053 29.4363 39.4495C29.1617 39.3475 28.8693 39.3285 28.5833 39.2854C28.3129 39.2444 28.0478 39.1896 27.7963 39.0771C27.3561 38.8803 27.069 38.5657 27.0439 38.0649C27.0177 37.5419 27.2325 37.14 27.6841 36.8727C27.943 36.7202 28.227 36.6423 28.5235 36.6192C29.2068 36.5645 29.8659 36.6465 30.4831 36.9716C30.589 37.0274 30.6215 37.0727 30.5523 37.1863C30.4444 37.3631 30.3521 37.5493 30.2589 37.7334C30.2232 37.8039 30.1939 37.8123 30.1216 37.7734C29.6815 37.5409 29.212 37.4251 28.7111 37.4525C28.556 37.4609 28.4051 37.4935 28.2689 37.5724C28.1065 37.6661 28.0174 37.8039 28.0373 37.9986C28.0561 38.1785 28.1913 38.25 28.337 38.2953C28.6451 38.3921 28.9689 38.4058 29.2854 38.4605C29.5599 38.5078 29.8261 38.5794 30.0765 38.7035C30.9191 39.1234 30.851 40.1356 30.3983 40.6017C30.0954 40.9142 29.7161 41.0657 29.299 41.1267C28.491 41.2446 27.7198 41.1436 27.0124 40.7058C26.8657 40.6154 26.8668 40.6133 26.9569 40.4628C27.0753 40.2671 27.1927 40.0714 27.3142 39.8704L27.3121 39.8715Z" fill="#242021"/>
<path d="M32.4101 38.8444C32.4101 38.4151 32.4069 38.0532 32.4122 37.6902C32.4132 37.5955 32.386 37.5713 32.2937 37.5744C32.0779 37.5808 31.862 37.5723 31.6461 37.5787C31.557 37.5808 31.5225 37.5618 31.5256 37.464C31.5329 37.2472 31.5329 37.0305 31.5256 36.8137C31.5225 36.7232 31.5529 36.7043 31.6367 36.7064C31.8526 36.7117 32.0684 36.7011 32.2843 36.7106C32.3933 36.7159 32.4132 36.6759 32.4111 36.577C32.4059 36.2192 32.4111 35.8604 32.4069 35.5027C32.4059 35.4133 32.4258 35.3796 32.5222 35.3817C32.7684 35.3891 33.0158 35.388 33.262 35.3817C33.3458 35.3796 33.3647 35.408 33.3637 35.4869C33.3605 35.8499 33.3679 36.2119 33.3595 36.5749C33.3563 36.6906 33.393 36.7106 33.4988 36.7096C33.9306 36.7032 34.3623 36.7096 34.793 36.7043C34.8852 36.7032 34.9125 36.7274 34.9093 36.8211C34.902 37.0326 34.9031 37.2451 34.9093 37.4577C34.9125 37.5492 34.8884 37.5787 34.793 37.5776C34.3571 37.5723 33.9212 37.5776 33.4852 37.5734C33.3888 37.5723 33.3584 37.5944 33.3595 37.6965C33.3647 38.3026 33.3616 38.9076 33.3626 39.5136C33.3626 39.5494 33.3626 39.5841 33.3658 39.6199C33.4014 40.1313 33.6718 40.3427 34.1789 40.2565C34.3707 40.2238 34.5583 40.1712 34.726 40.0734C34.8182 40.0197 34.836 40.0523 34.8611 40.1344C34.9198 40.328 34.9785 40.5237 35.0571 40.71C35.1043 40.8225 35.0623 40.8636 34.9743 40.9099C34.552 41.1308 34.1024 41.2045 33.6319 41.1571C33.5009 41.1435 33.371 41.1193 33.2452 41.0761C32.7622 40.9099 32.5316 40.5437 32.4509 40.0618C32.3797 39.6357 32.4195 39.2064 32.408 38.8444H32.4101Z" fill="#242021"/>
<path d="M37.2513 37.1873C37.2974 37.181 37.3068 37.1558 37.3215 37.1358C37.6422 36.7023 38.0802 36.556 38.5989 36.6118C38.7341 36.6265 38.8682 36.6507 38.9992 36.6939C39.0474 36.7096 39.0684 36.7265 39.0474 36.7875C38.9615 37.0327 38.8808 37.2799 38.8054 37.5293C38.7844 37.5987 38.7582 37.6082 38.6943 37.5851C38.5319 37.524 38.3621 37.5051 38.1892 37.5061C37.6862 37.5072 37.3729 37.7776 37.2901 38.2753C37.2681 38.411 37.2628 38.5478 37.2628 38.6846C37.2628 39.4359 37.2607 40.1882 37.266 40.9394C37.266 41.0446 37.2387 41.072 37.136 41.0688C36.894 41.0615 36.6519 41.0636 36.4098 41.0688C36.3344 41.0699 36.3145 41.0467 36.3145 40.9731C36.3165 39.5853 36.3165 38.1964 36.3145 36.8086C36.3145 36.7349 36.3302 36.7096 36.4077 36.7107C36.6582 36.716 36.9097 36.716 37.1601 36.7107C37.2398 36.7086 37.2555 36.7402 37.2534 36.8107C37.2492 36.9359 37.2523 37.0621 37.2523 37.1905L37.2513 37.1873Z" fill="#242021"/>
<path d="M45.2896 40.5311C45.474 40.5332 45.6217 40.6858 45.6186 40.871C45.6155 41.0572 45.4656 41.2014 45.2791 41.1993C45.0905 41.1961 44.95 41.052 44.9532 40.8605C44.9553 40.6711 45.1009 40.5301 45.2906 40.5322L45.2896 40.5311ZM45.4551 41.0541C45.4467 41.0404 45.4426 41.0278 45.4342 41.0193C45.3828 40.9657 45.3357 40.9257 45.4384 40.8626C45.5107 40.8173 45.4635 40.6974 45.3723 40.67C45.19 40.6153 45.124 40.6637 45.124 40.8541C45.124 40.8762 45.1187 40.8994 45.125 40.9194C45.1397 40.9667 45.08 41.052 45.167 41.0593C45.2518 41.0656 45.189 40.973 45.2204 40.9373C45.2256 40.932 45.234 40.9299 45.2424 40.9257C45.3231 40.9488 45.3273 41.1014 45.4551 41.0551V41.0541Z" fill="#FEFEFE"/>
<path d="M45.2946 40.7395C45.3334 40.7437 45.3848 40.7406 45.3753 40.7995C45.368 40.8489 45.3188 40.8447 45.2789 40.8468C45.2381 40.85 45.2119 40.8395 45.2108 40.7911C45.2108 40.7237 45.258 40.7437 45.2936 40.7395H45.2946Z" fill="#FEFEFE"/>
<path d="M45.7079 40.871C45.7079 41.1046 45.5193 41.293 45.2856 41.293C45.0519 41.293 44.8591 41.0983 44.8612 40.8647C44.8633 40.6322 45.054 40.4438 45.2856 40.4438C45.5225 40.4438 45.709 40.6322 45.7079 40.8721V40.871ZM45.6262 40.8679C45.6262 40.6774 45.4774 40.5259 45.2877 40.5249C45.0981 40.5249 44.943 40.6795 44.944 40.87C44.944 41.0573 45.0991 41.2098 45.2867 41.2098C45.4753 41.2098 45.6262 41.0583 45.6262 40.8679Z" fill="black"/>
<path d="M45.1219 41.0669V40.6512H45.3053C45.342 40.6512 45.3703 40.6555 45.3891 40.6628C45.408 40.6702 45.4237 40.6839 45.4352 40.7028C45.4468 40.7217 45.452 40.7428 45.452 40.7659C45.452 40.7954 45.4426 40.8206 45.4237 40.8406C45.4048 40.8606 45.3755 40.8733 45.3357 40.8796C45.3503 40.8869 45.3608 40.8932 45.3692 40.9006C45.3849 40.9153 45.4006 40.9343 45.4143 40.9564L45.4866 41.07H45.4174L45.3629 40.9837C45.3472 40.9585 45.3336 40.9395 45.3231 40.9269C45.3126 40.9143 45.3032 40.9048 45.2948 40.8996C45.2864 40.8943 45.278 40.8901 45.2697 40.888C45.2634 40.8869 45.2529 40.8859 45.2393 40.8859H45.1753V41.07H45.1208L45.1219 41.0669ZM45.1764 40.8343H45.2938C45.3189 40.8343 45.3388 40.8322 45.3524 40.827C45.3661 40.8217 45.3776 40.8133 45.3849 40.8017C45.3923 40.7901 45.3965 40.7775 45.3965 40.7649C45.3965 40.7449 45.3891 40.7291 45.3755 40.7165C45.3608 40.7039 45.3388 40.6975 45.3084 40.6975H45.1774V40.8354L45.1764 40.8343Z" fill="black"/>
<path d="M52.3399 26.5749V25.9468H52.1764L51.9888 26.3792L51.8002 25.9468H51.6367V26.5749H51.752V26.1014L51.9291 26.5097H52.0486L52.2246 26.1004V26.5749H52.3399Z" fill="#0098DE"/>
<path d="M51.194 26.575V26.0541H50.9844V25.9479H51.5167V26.0541H51.3082V26.575H51.194Z" fill="#0098DE"/>
</svg>
