<svg width="498" height="232" viewBox="0 0 498 232" fill="none" xmlns="http://www.w3.org/2000/svg">
<g clip-path="url(#clip0_111_48)">
<path d="M188.941 2.83333L123.787 158.276H81.2806L49.2338 34.2121C47.2985 26.5863 45.5936 23.7755 39.6957 20.5501C29.9964 15.3203 14.0306 10.4131 0 7.34893L0.944588 2.83333H69.3927C78.1013 2.83333 85.9345 8.63909 87.9388 18.684L104.872 108.627L146.688 2.83333H188.941ZM355.488 107.521C355.649 66.5124 298.766 64.2316 299.158 45.8927C299.296 40.3173 304.595 34.3964 316.23 32.8758C321.989 32.1386 337.886 31.5396 355.879 39.8335L362.929 6.84207C353.253 3.34019 340.812 -0.023468 325.307 -0.023468C285.542 -0.023468 257.596 21.08 257.366 51.3529C257.112 73.7466 277.34 86.2105 292.569 93.675C308.235 101.301 313.488 106.185 313.419 112.982C313.304 123.418 300.909 128.026 289.366 128.21C269.138 128.533 257.412 122.75 248.058 118.396L240.755 152.47C250.155 156.778 267.503 160.533 285.473 160.718C327.726 160.718 355.372 139.845 355.488 107.521ZM460.475 158.276H497.66L465.175 2.83333H430.87C423.129 2.83333 416.632 7.32589 413.753 14.2375L353.414 158.276H395.644L404.03 135.053H455.637L460.498 158.276H460.475ZM415.596 103.213L436.768 44.8329L448.933 103.213H415.596ZM246.422 2.83333L213.177 158.276H172.975L206.197 2.83333H246.422Z" fill="#1334CB"/>
<path d="M270.751 231.24V189.217H297.015V193.687H276.119V207.118H292.753V211.542H276.119V226.747H297.015V231.217H270.751V231.24Z" fill="#1334CB"/>
<path d="M310.332 187.558V231.24H305.401V187.558H310.332Z" fill="#1334CB"/>
<path d="M333.785 228.037C336.573 228.037 338.854 227.692 340.605 227.024C342.356 226.332 343.922 225.434 345.328 224.282H345.443L345.005 228.751C344.083 229.535 342.655 230.272 340.697 230.963C338.738 231.654 336.319 232.023 333.393 232.023C330.214 232.023 327.449 231.332 325.076 229.926C322.704 228.521 320.837 226.586 319.524 224.121C318.188 221.655 317.543 218.822 317.543 215.665C317.543 212.509 318.188 209.675 319.501 207.21C320.814 204.745 322.588 202.787 324.869 201.381C327.127 199.953 329.684 199.262 332.518 199.262C335.789 199.262 338.462 199.838 340.512 201.013C342.563 202.165 344.06 203.8 344.982 205.874C345.903 207.947 346.387 210.39 346.387 213.154C346.387 213.523 346.387 213.961 346.341 214.49C346.295 215.02 346.249 215.458 346.18 215.873H322.565C322.565 215.873 322.565 215.942 322.588 215.988C322.588 216.034 322.588 216.057 322.565 216.103C322.634 219.835 323.671 222.761 325.652 224.904C327.634 227.047 330.352 228.106 333.785 228.106V228.037ZM332.564 202.994C329.799 202.994 327.565 203.847 325.883 205.528C324.178 207.233 323.164 209.583 322.796 212.601H341.641V212.048C341.641 210.205 341.365 208.616 340.812 207.256C340.259 205.92 339.337 204.86 338.024 204.1C336.711 203.34 334.891 202.971 332.587 202.971L332.564 202.994Z" fill="#1334CB"/>
<path d="M351.594 215.643C351.594 212.463 352.239 209.653 353.529 207.187C354.819 204.722 356.639 202.764 359.012 201.359C361.362 199.93 364.127 199.239 367.306 199.239C370.071 199.239 372.283 199.562 373.918 200.184C375.554 200.806 376.775 201.474 377.535 202.165L378.042 207.372H377.927C376.568 206.082 375.07 205.091 373.411 204.377C371.776 203.685 369.817 203.317 367.583 203.317C365.348 203.317 363.551 203.801 361.915 204.791C360.279 205.759 358.989 207.187 358.045 209.03C357.1 210.874 356.639 213.085 356.639 215.666C356.639 219.536 357.676 222.531 359.772 224.674C361.846 226.816 364.565 227.876 367.882 227.876C369.656 227.876 371.154 227.715 372.352 227.415C373.573 227.093 374.656 226.655 375.577 226.079C376.522 225.503 377.443 224.858 378.365 224.121H378.526L378.019 228.59C377.144 229.443 375.807 230.226 374.01 230.94C372.213 231.654 369.979 232.023 367.283 232.023C364.104 232.023 361.339 231.332 358.989 229.927C356.639 228.521 354.796 226.586 353.506 224.121C352.216 221.656 351.571 218.822 351.571 215.666L351.594 215.643Z" fill="#1334CB"/>
<path d="M392.234 222.831C392.234 224.812 392.649 226.148 393.502 226.839C394.354 227.531 395.46 227.853 396.819 227.853C398.063 227.853 399.169 227.738 400.091 227.531C401.012 227.3 401.772 227.047 402.348 226.747H402.51L402.072 230.894C401.519 231.194 400.69 231.447 399.584 231.678C398.478 231.908 397.349 232 396.22 232C393.455 232 391.29 231.355 389.7 230.042C388.11 228.729 387.327 226.586 387.327 223.591V204.077H381.567L382.236 200.806L387.327 200.091V193.41L392.257 192.696V199.999H401.819L401.219 204.1H392.257V222.854L392.234 222.831Z" fill="#1334CB"/>
<path d="M420.756 204.307C418.314 204.307 416.425 205.068 415.066 206.611C413.706 208.132 413.015 210.459 413.015 213.546V231.24H408.085V199.999H412.785V206.519H413.061C413.752 203.801 414.95 201.888 416.655 200.829C418.36 199.769 420.203 199.216 422.185 199.216C422.691 199.216 423.198 199.239 423.705 199.308C424.212 199.354 424.558 199.423 424.788 199.492L424.189 204.86H424.028C423.728 204.745 423.29 204.63 422.691 204.492C422.092 204.353 421.447 204.307 420.756 204.307Z" fill="#1334CB"/>
<path d="M443.426 199.216C446.49 199.216 449.186 199.93 451.536 201.335C453.886 202.764 455.706 204.699 457.042 207.164C458.378 209.629 459.024 212.463 459.024 215.619C459.024 218.776 458.355 221.609 457.042 224.075C455.706 226.54 453.886 228.475 451.536 229.88C449.186 231.286 446.49 231.977 443.426 231.977C440.362 231.977 437.713 231.286 435.363 229.88C433.013 228.475 431.17 226.54 429.833 224.075C428.497 221.609 427.852 218.776 427.852 215.619C427.852 212.463 428.52 209.629 429.833 207.164C431.17 204.699 433.013 202.741 435.363 201.335C437.713 199.907 440.408 199.216 443.426 199.216ZM443.426 227.922C446.882 227.922 449.509 226.816 451.259 224.628C453.01 222.439 453.886 219.444 453.886 215.642C453.886 211.841 453.01 208.8 451.259 206.611C449.509 204.423 446.905 203.317 443.426 203.317C439.947 203.317 437.344 204.423 435.57 206.611C433.796 208.8 432.921 211.818 432.921 215.642C432.921 219.467 433.796 222.439 435.57 224.628C437.344 226.816 439.947 227.922 443.426 227.922Z" fill="#1334CB"/>
<path d="M482.362 199.216C485.749 199.216 488.398 200.091 490.333 201.819C492.246 203.547 493.213 206.266 493.213 209.952V231.24H488.352V211.334C488.352 208.708 487.799 206.749 486.67 205.436C485.541 204.123 483.514 203.478 480.565 203.478C478.837 203.478 477.247 203.824 475.842 204.538C474.437 205.252 473.308 206.243 472.478 207.533C471.649 208.823 471.234 210.344 471.234 212.118V231.24H466.304V199.999H471.004V206.634H471.28C471.879 204.86 472.755 203.432 473.953 202.349C475.151 201.266 476.487 200.46 477.985 199.976C479.482 199.469 480.934 199.239 482.385 199.239L482.362 199.216Z" fill="#1334CB"/>
</g>
<defs>
<clipPath id="clip0_111_48">
<rect width="497.66" height="232" fill="white"/>
</clipPath>
</defs>
</svg>
