<svg width="263" height="95" viewBox="0 0 263 95" fill="none" xmlns="http://www.w3.org/2000/svg">
<g clip-path="url(#clip0_3079_521)">
<path d="M130.265 56.1488H114.182V59.9817H120.071V76.8791H124.385V59.9817H130.265V56.1488Z" fill="black"/>
<path d="M133.596 72.1449H133.541L130.328 61.8662H126.169L131.147 75.9504C131.256 76.2419 131.311 76.5501 131.311 76.8608C131.315 77.2949 131.188 77.7201 130.947 78.0808C130.815 78.2651 130.643 78.4178 130.445 78.5278C130.247 78.638 130.027 78.7031 129.8 78.7181C129.416 78.7453 129.029 78.7453 128.645 78.7181L127.516 78.5998V81.9956L128.717 82.0958C129.109 82.0958 129.509 82.0958 129.91 82.0958C131.011 82.1582 132.106 81.8852 133.05 81.3128C133.896 80.6487 134.51 79.7342 134.806 78.6999L140.75 61.8298H136.708L133.596 72.1449Z" fill="black"/>
<path d="M161.893 62.6857C161.419 62.2618 160.855 61.9505 160.244 61.7753C159.565 61.5768 158.859 61.4786 158.152 61.4838C157.239 61.4616 156.34 61.7259 155.585 62.2395C154.9 62.7006 154.315 63.2951 153.865 63.9874C153.561 63.1504 152.958 62.456 152.172 62.0392C151.406 61.6667 150.566 61.4765 149.714 61.4838C148.84 61.4692 147.978 61.6927 147.22 62.1303C146.484 62.5904 145.86 63.2131 145.4 63.9511H145.309V61.8662H141.669V76.8791H145.573V68.1663C145.543 67.5441 145.649 66.9228 145.883 66.3455C146.042 65.9453 146.291 65.5871 146.611 65.2986C146.877 65.0726 147.186 64.9051 147.521 64.8069C147.758 64.735 148.002 64.6922 148.249 64.6795C148.744 64.6465 149.238 64.7605 149.669 65.0072C149.992 65.2284 150.234 65.5476 150.361 65.9176C150.5 66.3036 150.576 66.7093 150.588 67.1194C150.588 67.5564 150.588 68.0298 150.588 68.4394V76.8608H154.494V68.5124C154.494 68.0523 154.527 67.5929 154.593 67.1375C154.647 66.7116 154.777 66.2986 154.976 65.9176C155.163 65.552 155.437 65.239 155.776 65.0072C156.178 64.7719 156.64 64.658 157.105 64.6795C157.56 64.653 158.015 64.7539 158.415 64.9708C158.729 65.156 158.982 65.4279 159.144 65.7537C159.318 66.1162 159.419 66.5087 159.444 66.9099C159.48 67.3591 159.499 67.8325 159.499 68.3303V76.8427H163.33V66.8281C163.358 65.9845 163.234 65.1429 162.966 64.3426C162.746 63.7125 162.378 63.1444 161.893 62.6857Z" fill="black"/>
<path d="M177.282 64.1879C176.685 63.3206 175.88 62.6164 174.94 62.1395C174.001 61.6625 172.958 61.4277 171.904 61.4565C170.884 61.445 169.875 61.6563 168.947 62.0756C168.073 62.4629 167.291 63.0308 166.653 63.7416C165.987 64.4691 165.477 65.3239 165.151 66.2545C164.791 67.259 164.612 68.3193 164.623 69.3863C164.612 70.4726 164.784 71.553 165.133 72.5819C165.442 73.5027 165.934 74.3512 166.58 75.0765C167.21 75.7796 167.991 76.3306 168.864 76.6879C169.823 77.0754 170.851 77.2673 171.887 77.2524C173.368 77.3103 174.831 76.9063 176.073 76.0962C177.335 75.1386 178.228 73.7754 178.603 72.236H175.162C174.974 72.7795 174.609 73.2443 174.125 73.556C173.435 74 172.622 74.2121 171.803 74.1612C170.985 74.1105 170.203 73.7995 169.574 73.2738C168.909 72.4558 168.567 71.4229 168.609 70.3696H178.803C178.879 69.2515 178.787 68.1283 178.53 67.0374C178.294 66.0189 177.871 65.0526 177.282 64.1879ZM168.545 67.7566C168.574 67.4237 168.634 67.0944 168.728 66.7735C168.833 66.3949 169.01 66.0398 169.246 65.7264C169.517 65.3856 169.856 65.1037 170.238 64.8979C170.722 64.6629 171.257 64.5503 171.795 64.5702C172.188 64.5395 172.582 64.5962 172.95 64.7364C173.318 64.8764 173.652 65.0963 173.925 65.3805C174.452 66.0729 174.788 66.8926 174.898 67.7566H168.545Z" fill="black"/>
<path d="M191.783 65.9358V65.8721C192.282 65.7634 192.756 65.556 193.175 65.2621C193.599 64.9746 193.971 64.6175 194.275 64.206C194.581 63.7811 194.817 63.3112 194.977 62.8131C195.14 62.3012 195.223 61.7667 195.222 61.229C195.251 60.3914 195.073 59.5596 194.703 58.8072C194.373 58.1802 193.895 57.6428 193.311 57.2413C192.707 56.8277 192.027 56.5398 191.309 56.3946C190.525 56.2286 189.725 56.1462 188.925 56.1488H180.624V76.8791H188.925C189.844 76.8918 190.761 76.7879 191.654 76.5696C192.329 76.4024 192.976 76.1387 193.575 75.7866C194.065 75.5019 194.493 75.121 194.83 74.6668C195.127 74.2709 195.365 73.8358 195.541 73.3739C195.707 72.9651 195.82 72.5369 195.878 72.0995C195.929 71.7284 195.957 71.3542 195.96 70.9796C195.996 69.7471 195.596 68.5412 194.83 67.5745C194.071 66.6479 192.975 66.0591 191.783 65.9358ZM182.443 57.8331H188.878C191.84 57.8331 193.317 59.1289 193.311 61.7206C193.314 62.1896 193.22 62.6543 193.038 63.0861C192.848 63.5157 192.564 63.898 192.209 64.206C191.806 64.5465 191.338 64.8033 190.836 64.9617C190.202 65.1555 189.541 65.2478 188.878 65.2348H182.443V57.8331ZM193.638 73.0006C193.396 73.5439 193.013 74.0123 192.528 74.3572C192.031 74.6938 191.47 74.9262 190.881 75.0401C190.228 75.1703 189.563 75.2343 188.897 75.2312H182.443V66.919H188.878C190.232 66.8353 191.578 67.1862 192.719 67.9206C193.168 68.2756 193.524 68.7348 193.755 69.2584C193.987 69.7819 194.087 70.3538 194.049 70.925C194.078 71.6376 193.944 72.3476 193.657 73.0006H193.638Z" fill="black"/>
<path d="M208.311 74.2298V66.2818C208.344 65.4379 208.185 64.5973 207.846 63.8236C207.57 63.2424 207.155 62.7387 206.636 62.3578C206.132 62.0081 205.562 61.7663 204.96 61.6477C204.344 61.5211 203.715 61.4571 203.086 61.4565C202.327 61.4498 201.571 61.5478 200.838 61.7479C200.177 61.9261 199.557 62.2356 199.018 62.6583C198.499 63.0781 198.087 63.6146 197.817 64.2242C197.507 64.9421 197.332 65.7103 197.298 66.4912H199.027C198.999 65.9937 199.084 65.4963 199.274 65.0361C199.465 64.5759 199.756 64.1646 200.128 63.8327C200.916 63.2527 201.882 62.9632 202.859 63.0133C203.344 63.0081 203.829 63.0509 204.306 63.1408C204.727 63.221 205.128 63.3818 205.489 63.6142C205.825 63.8469 206.097 64.1599 206.281 64.5247C206.49 65.0067 206.589 65.5291 206.572 66.0542C206.581 66.3886 206.528 66.7218 206.417 67.0374C206.334 67.2687 206.189 67.4732 205.999 67.6292C205.792 67.7797 205.556 67.8852 205.307 67.9387C205.033 67.9934 204.706 68.048 204.342 68.0844C203.432 68.1936 202.522 68.3211 201.611 68.4485C200.77 68.5499 199.946 68.7674 199.163 69.0949C198.469 69.3799 197.864 69.8488 197.415 70.4515C196.936 71.1746 196.702 72.0338 196.752 72.9005C196.736 73.5721 196.863 74.2391 197.124 74.8579C197.354 75.3866 197.701 75.8543 198.144 76.2236C198.587 76.5868 199.103 76.8535 199.655 77.0065C200.248 77.1701 200.86 77.2528 201.476 77.2524C202.088 77.2664 202.7 77.199 203.296 77.052C204.241 76.8092 205.087 76.2778 205.717 75.5317C206.046 75.1198 206.35 74.6881 206.626 74.2388H206.681C206.68 74.5922 206.705 74.945 206.755 75.2949C206.79 75.5877 206.886 75.8698 207.037 76.1235C207.186 76.3591 207.4 76.5459 207.655 76.6606C207.992 76.8012 208.356 76.8664 208.72 76.8518C208.917 76.8678 209.114 76.8678 209.311 76.8518L209.849 76.7698V75.2676C209.675 75.3486 209.485 75.3891 209.294 75.386C208.657 75.3405 208.311 74.9673 208.311 74.2298ZM206.581 71.0706C206.591 71.7503 206.455 72.4242 206.18 73.0462C205.932 73.6092 205.567 74.1123 205.106 74.521C204.649 74.9291 204.114 75.239 203.533 75.4314C202.922 75.6507 202.278 75.7616 201.63 75.7593C201.227 75.7569 200.827 75.686 200.447 75.5498C200.071 75.4199 199.727 75.2191 199.427 74.9581C199.138 74.7017 198.9 74.3929 198.726 74.0477C198.549 73.6596 198.461 73.2362 198.471 72.8094C198.45 72.4996 198.493 72.1886 198.6 71.8969C198.707 71.6051 198.875 71.3391 199.091 71.1161C199.541 70.6991 200.079 70.3881 200.665 70.2057C201.362 69.9817 202.078 69.8232 202.804 69.7323C203.578 69.623 204.333 69.5046 205.07 69.3681C205.347 69.3188 205.621 69.2519 205.89 69.1679C206.021 69.137 206.145 69.0802 206.255 69.0004C206.364 68.9206 206.456 68.8196 206.527 68.7035H206.581V71.0706Z" fill="black"/>
<path d="M221.626 63.0134C221.192 62.504 220.638 62.11 220.016 61.8662C219.219 61.5756 218.376 61.4396 217.53 61.4656C216.541 61.4593 215.572 61.7442 214.745 62.2851C213.933 62.8025 213.316 63.5739 212.989 64.4791H212.934V61.8935H211.205V76.8791H212.934V68.1391C212.947 67.4428 213.064 66.7524 213.28 66.0906C213.48 65.4986 213.788 64.949 214.19 64.4701C214.56 64.0316 215.019 63.6776 215.537 63.4322C216.106 63.1652 216.728 63.0313 217.358 63.0407C217.958 63.017 218.557 63.1356 219.105 63.3866C219.567 63.5958 219.963 63.9261 220.252 64.3426C220.537 64.7791 220.732 65.2682 220.825 65.7811C220.94 66.381 220.995 66.9909 220.989 67.6019V76.8791H222.727V67.2378C222.738 66.4264 222.651 65.6165 222.472 64.8251C222.333 64.1642 222.044 63.5442 221.626 63.0134Z" fill="black"/>
<path d="M230.591 67.438L236.643 61.8935H234.332L226.468 69.1587V56.1488H224.729V76.8791H226.468V71.1889L229.272 68.7217L234.878 76.8791H237.054L230.591 67.438Z" fill="black"/>
<path d="M93.6672 45.2238L65.9439 50.9685V55.6026L91.3099 51.178L105.909 56.6405V53.2355L93.6672 45.2238Z" fill="url(#paint0_linear_3079_521)"/>
<path d="M65.9439 57.3324V62.1484L87.8058 60.3003L105.909 62.2941V58.0333L90.427 53.5723L65.9439 57.3324Z" fill="url(#paint1_linear_3079_521)"/>
<path d="M65.9439 63.7235V68.658L83.7101 69.9052L105.909 68.8037V63.7782L86.7865 62.5582L65.9439 63.7235Z" fill="url(#paint2_linear_3079_521)"/>
<path d="M65.9439 74.2298L80.1696 78.8456L105.909 75.1949V70.3241L82.709 72.1176L65.9439 70.142V74.2298Z" fill="url(#paint3_linear_3079_521)"/>
<path d="M65.9439 78.9003L76.9113 87.1032L105.909 81.6679V76.9793L79.2231 81.2401L65.9439 75.7047V78.9003Z" fill="url(#paint4_linear_3079_521)"/>
<path d="M8.26418 0C11.2879 5.06693 14.3116 10.1339 17.3402 15.1959C18.2881 16.7812 19.2652 18.3518 20.3493 20.1219C20.8743 19.6356 21.2779 19.2952 21.6424 18.911C24.8168 15.5557 28.0107 12.2248 31.1268 8.82094C32.0261 7.83867 32.9595 7.38644 34.2964 7.45938C36.2262 7.5615 38.1658 7.48369 40.0472 7.48369C40.5284 9.25372 40.8445 31.1748 40.4701 34.8608H31.6469V22.3927C30.9031 22.9909 30.4656 23.2778 30.1107 23.6424C28.1322 25.675 26.0759 27.6396 24.2432 29.7938C23.0084 31.2525 21.6278 31.8263 19.8 31.5979C19.3236 31.5394 18.8375 31.5881 18.1229 31.5881C15.2936 26.9782 12.4352 22.3247 9.58157 17.6662C9.47463 17.7003 9.36768 17.7343 9.26559 17.7684V34.9677C6.08632 35.0455 3.04316 34.9968 0 35.0017V0C2.75634 0 5.50783 0 8.26418 0Z" fill="black"/>
<path d="M159.45 45.223C158.639 44.9411 157.807 44.6979 157.014 44.3721C155.921 43.9296 154.851 43.4287 153.592 42.8743C154.749 40.5403 155.775 38.4834 156.79 36.4313C161.102 38.357 162.892 38.1868 164.807 35.4101C161.058 26.492 157.258 17.4426 153.295 8.01857C155.119 7.97481 156.606 7.93105 158.094 7.9116C159.625 7.89215 161.156 7.9116 162.872 7.9116C165.065 13.3189 167.233 18.6727 169.585 24.4837C171.939 18.7262 174.121 13.3821 176.318 8.01372H185.083C184.855 8.72853 184.714 9.33637 184.48 9.9053C180.864 18.6387 177.247 27.3673 173.596 36.0861C173.066 37.3455 172.453 38.5953 171.714 39.7429C170.086 42.2763 167.874 44.0706 164.87 44.766C164.505 44.8486 164.17 45.0724 163.826 45.228H159.45V45.223Z" fill="black"/>
<path d="M262.996 23.8271H243.303C244.863 28.685 250.297 29.609 256.058 26.1127C257.604 27.7027 259.175 29.3123 260.938 31.1261C260.113 31.802 259.325 32.5994 258.402 33.1782C252.787 36.6745 243.623 36.1007 238.509 31.909C234.343 28.4955 233.084 23.9099 233.94 18.8284C234.741 14.0483 237.546 10.5812 242.14 8.78688C246.286 7.1676 250.506 7.00227 254.667 8.7042C258.834 10.4013 261.498 13.4648 262.563 17.8801C262.655 18.2594 262.849 19.8203 262.996 20.1802L263 23.8321L262.996 23.8271ZM253.924 18.7699C253.238 15.726 250.852 13.9365 248.012 14.2477C245.281 14.5443 243.487 16.2706 243.374 18.7699H253.924Z" fill="black"/>
<path d="M153.13 0V7.74628H142.455V34.9045H132.679V7.93107C129.091 7.63443 125.645 7.93107 122.062 7.73168C121.78 5.10097 121.824 2.55291 122.018 0H153.13Z" fill="black"/>
<path d="M195.875 34.9287H186.863V7.98937C189.677 7.84349 192.463 7.92129 195.326 7.94074C195.428 8.84522 195.505 9.55516 195.584 10.2408C197.344 9.42874 199.04 8.38812 200.888 7.86781C202.823 7.32805 204.889 7.41072 206.877 8.01369C208.875 8.61666 210.533 9.71077 211.616 11.3301C213.575 10.2214 215.325 8.81603 217.318 8.18875C221.26 6.94875 225.15 7.13354 228.407 10.2165C230.264 11.9719 231.149 14.1942 231.402 16.6693C231.586 18.4345 231.659 20.219 231.678 21.9988C231.722 25.4806 231.693 28.9623 231.693 32.4439C231.693 33.2365 231.693 34.0243 231.693 34.9191H222.637C222.597 34.2139 222.535 33.5915 222.53 32.9739C222.52 29.1713 222.559 25.3638 222.505 21.5612C222.491 20.4428 222.365 19.2902 222.058 18.2156C221.655 16.8201 220.717 15.8086 219.171 15.614C217.542 15.405 216.103 15.8086 215.083 17.1749C214.183 18.381 213.838 19.757 213.848 21.2694C213.877 25.7188 213.857 30.173 213.857 34.7147C212.351 35.308 210.813 34.9481 209.322 35.0114C207.878 35.0746 206.424 35.026 204.824 35.026C204.772 34.2966 204.684 33.6791 204.684 33.0663C204.67 29.3415 204.703 25.6166 204.659 21.8967C204.645 20.7782 204.515 19.6452 204.3 18.5415C203.974 16.8686 202.973 15.7989 201.208 15.6092C199.361 15.4098 197.732 15.9399 196.936 17.6758C196.381 18.8819 196.036 20.2823 195.996 21.6098C195.875 25.4902 195.958 29.3804 195.948 33.2658C195.948 33.7422 195.91 34.2236 195.875 34.9433V34.9287Z" fill="black"/>
<path d="M123.438 23.9195H104.167C105.888 28.7191 110.822 29.5263 116.71 26.2828C118.416 27.8291 120.074 29.3366 121.804 30.9073C120.555 32.5752 119.062 33.504 117.385 34.1215C112.218 36.018 107.079 36.0472 102.072 33.6012C97.0651 31.1601 94.6102 26.988 94.5665 21.5175C94.5276 16.3727 96.6179 12.1567 101.241 9.66216C106.671 6.72994 112.237 6.63756 117.677 9.77886C122.543 12.5846 124.804 19.3147 123.438 23.9147V23.9195ZM104.138 18.7409H114.663C114.294 15.9739 112.266 14.2428 109.529 14.2185C106.656 14.1942 104.61 15.867 104.138 18.7409Z" fill="black"/>
<path d="M57.6012 7.53229C62.8757 7.66358 67.1343 9.3169 70.119 13.6496C74.7956 20.433 72.8171 33.9804 59.2833 35.3664C53.0705 36.0034 47.3147 33.1149 44.7578 28.121C40.4653 19.7328 44.8988 8.43675 56.1429 7.65871C56.7067 7.6198 57.2707 7.56146 57.6012 7.53229ZM63.1625 21.3959C63.1625 20.9874 63.2112 20.4963 63.1529 20.0197C62.8611 17.4765 60.9068 15.4002 58.5394 15.1035C55.9679 14.7826 53.7025 16.0664 52.7788 18.5269C51.9476 20.7345 52.0107 22.9762 53.1095 25.0867C54.9568 28.6509 59.8375 28.9088 62.1174 25.5972C62.9778 24.3474 63.2889 22.9616 63.1625 21.391V21.3959Z" fill="black"/>
<path d="M84.9265 34.9142H75.5394V8.05748H84.3431C84.4356 8.96681 84.5181 9.74971 84.6202 10.7514C87.1918 8.65073 89.9288 7.44964 93.4337 7.68792C93.5456 10.377 93.5115 13.0807 93.4435 15.9546C92.5003 15.9546 91.7128 15.9351 90.9254 15.9546C87.2745 16.0566 85.0188 18.2254 84.9313 21.8821C84.8536 25.3638 84.9217 28.8505 84.9217 32.3321C84.9217 33.1295 84.9217 33.9221 84.9217 34.9142H84.9265Z" fill="black"/>
<path d="M28.499 72.4537V56.8838H30.2926V62.6313H30.4447C30.5764 62.4286 30.7589 62.17 30.9919 61.8558C31.2301 61.5364 31.5695 61.2526 32.0103 61.0043C32.4562 60.7509 33.0591 60.6242 33.8192 60.6242C34.8022 60.6242 35.6686 60.87 36.4185 61.3616C37.1683 61.8533 37.7537 62.5502 38.1742 63.4524C38.5947 64.3544 38.8049 65.4189 38.8049 66.6454C38.8049 67.882 38.5947 68.954 38.1742 69.8612C37.7537 70.7634 37.171 71.4628 36.4261 71.9596C35.6812 72.4511 34.8224 72.6969 33.8496 72.6969C33.0997 72.6969 32.4993 72.5728 32.0483 72.3244C31.5974 72.0709 31.2502 71.7846 31.0071 71.4653C30.7638 71.1409 30.5764 70.8723 30.4447 70.6595H30.2319V72.4537H28.499ZM30.2622 66.615C30.2622 67.4969 30.3916 68.2749 30.6499 68.9489C30.9083 69.6179 31.2857 70.1424 31.7824 70.5226C32.2789 70.8977 32.8868 71.0853 33.6064 71.0853C34.3563 71.0853 34.9821 70.8875 35.4837 70.4922C35.9904 70.0919 36.3703 69.5546 36.6236 68.8805C36.8821 68.2014 37.0113 67.4462 37.0113 66.615C37.0113 65.7939 36.8846 65.0539 36.6312 64.3951C36.383 63.7311 36.0056 63.2066 35.4989 62.8213C34.9973 62.4311 34.3664 62.2359 33.6064 62.2359C32.8768 62.2359 32.2637 62.421 31.7672 62.7909C31.2706 63.1558 30.8956 63.6677 30.6423 64.3267C30.3889 64.9804 30.2622 65.7432 30.2622 66.615ZM42.2859 76.8326C41.9818 76.8326 41.7108 76.8073 41.4726 76.7566C41.2345 76.711 41.0698 76.6654 40.9786 76.6198L41.4346 75.0384C41.8703 75.1499 42.2555 75.1906 42.5899 75.1602C42.9242 75.1298 43.2207 74.9803 43.4792 74.7116C43.7426 74.448 43.9832 74.0197 44.2011 73.4268L44.5355 72.5145L40.2185 60.7763H42.1643L45.3868 70.0816H45.5084L48.7308 60.7763H50.6766L45.7212 74.1565C45.4983 74.7597 45.2221 75.259 44.8928 75.6543C44.5635 76.0546 44.1808 76.3512 43.7451 76.5438C43.3145 76.7363 42.8279 76.8326 42.2859 76.8326Z" fill="black"/>
</g>
<defs>
<linearGradient id="paint0_linear_3079_521" x1="104.862" y1="59.5356" x2="67.7435" y2="46.0228" gradientUnits="userSpaceOnUse">
<stop offset="0.4" stop-color="#FFC425"/>
<stop offset="0.68" stop-color="#AA8E40"/>
<stop offset="0.9" stop-color="#6F6854"/>
<stop offset="1" stop-color="#58595B"/>
</linearGradient>
<linearGradient id="paint1_linear_3079_521" x1="104.28" y1="66.7735" x2="67.3885" y2="53.3516" gradientUnits="userSpaceOnUse">
<stop offset="0.45" stop-color="#FFC425"/>
<stop offset="0.71" stop-color="#AA8E40"/>
<stop offset="0.91" stop-color="#6F6854"/>
<stop offset="1" stop-color="#58595B"/>
</linearGradient>
<linearGradient id="paint2_linear_3079_521" x1="104.407" y1="72.9461" x2="67.4795" y2="59.5062" gradientUnits="userSpaceOnUse">
<stop offset="0.52" stop-color="#FFC425"/>
<stop offset="0.74" stop-color="#AA8E40"/>
<stop offset="0.92" stop-color="#6F6854"/>
<stop offset="1" stop-color="#58595B"/>
</linearGradient>
<linearGradient id="paint3_linear_3079_521" x1="104.507" y1="79.0459" x2="67.5888" y2="65.615" gradientUnits="userSpaceOnUse">
<stop offset="0.6" stop-color="#FFC425"/>
<stop offset="0.79" stop-color="#AA8E40"/>
<stop offset="0.93" stop-color="#6F6854"/>
<stop offset="1" stop-color="#58595B"/>
</linearGradient>
<linearGradient id="paint4_linear_3079_521" x1="104.098" y1="86.657" x2="66.8879" y2="73.117" gradientUnits="userSpaceOnUse">
<stop offset="0.65" stop-color="#FFC425"/>
<stop offset="0.81" stop-color="#AA8E40"/>
<stop offset="0.94" stop-color="#6F6854"/>
<stop offset="1" stop-color="#58595B"/>
</linearGradient>
<clipPath id="clip0_3079_521">
<rect width="263" height="95" fill="white"/>
</clipPath>
</defs>
</svg>
