<svg width="150" height="31" viewBox="0 0 150 31" fill="none" xmlns="http://www.w3.org/2000/svg">
<path d="M2.46914 18.943H10.5349C11.1503 18.943 11.6825 18.4789 11.749 17.8492L12.5306 10.8388C12.6138 10.1096 12.0317 9.47986 11.3 9.47986H2.13653L1.23848 17.584C1.17195 18.3132 1.73739 18.943 2.46914 18.943ZM4.31513 11.6509H9.43733C9.75331 11.6509 10.0028 11.9326 9.96951 12.2475L9.52048 16.3079C9.48722 16.5896 9.2544 16.7885 8.98831 16.7885H4.34839C4.03241 16.7885 3.78295 16.5068 3.81621 16.1919L4.31513 11.6509Z" fill="url(#paint0_linear_11_182)"/>
<path d="M22.6617 20.4014C22.6451 20.3682 22.6118 20.3351 22.5786 20.3185C22.5453 20.3019 22.512 20.2688 22.4788 20.2522C22.3457 20.1694 22.1961 20.1031 22.0464 20.0699C21.9632 20.0533 21.8801 20.0533 21.7969 20.0533H12.6169L11.7188 28.1575C11.6856 28.4558 11.7687 28.7375 11.9184 28.9696C11.935 29.0027 11.9683 29.0359 11.9849 29.069C12.0015 29.1021 12.0348 29.1353 12.0681 29.1519C12.2843 29.3673 12.5836 29.5165 12.9329 29.5165H20.9987C21.614 29.5165 22.1462 29.0524 22.2127 28.4227L22.9943 21.4123C23.0276 21.1472 22.9777 20.8986 22.8613 20.6997C22.8114 20.5837 22.7449 20.4842 22.6617 20.4014ZM20.0008 26.8814C20.0008 26.9145 19.9842 26.9477 19.9842 26.9808C19.9509 27.0637 19.9011 27.1465 19.8345 27.2128C19.7846 27.246 19.7347 27.2957 19.6682 27.3123C19.6017 27.3288 19.5352 27.3454 19.4687 27.3454H14.8287C14.7456 27.3454 14.6791 27.3288 14.6125 27.3123C14.4795 27.2626 14.3797 27.1465 14.3298 27.0305C14.3132 26.9974 14.2966 26.9642 14.2966 26.9311C14.2799 26.8814 14.2799 26.8317 14.2966 26.7654L14.7955 22.2244H19.9177C20.0008 22.2244 20.0674 22.241 20.1339 22.2575C20.2004 22.2907 20.2503 22.3238 20.3002 22.3736C20.3168 22.3901 20.3334 22.4233 20.3667 22.4564C20.3833 22.4896 20.4 22.5227 20.4166 22.5559C20.4499 22.6387 20.4665 22.7216 20.4499 22.821L20.0008 26.8814Z" fill="url(#paint1_linear_11_182)"/>
<path d="M11.1526 20.6831C11.0861 20.5505 10.9696 20.4179 10.8532 20.3185C10.82 20.3019 10.7867 20.2688 10.7534 20.2522C10.6204 20.1528 10.4707 20.1031 10.321 20.0699C10.2379 20.0533 10.1547 20.0533 10.0716 20.0533H0.908164L0.0101155 28.1575C-0.0231456 28.4227 0.0267462 28.6547 0.14316 28.8701C0.193052 28.9696 0.276204 29.069 0.359357 29.1519C0.575554 29.3673 0.874904 29.5165 1.22414 29.5165H9.28995C9.90528 29.5165 10.4375 29.0524 10.504 28.4227L11.2856 21.4123C11.3189 21.1306 11.269 20.8986 11.1526 20.6831ZM8.72452 22.7879L8.27549 26.8648C8.25886 26.9974 8.19234 27.1134 8.09256 27.1963C7.99277 27.2791 7.87636 27.3288 7.72668 27.3288H3.12003C2.80405 27.3288 2.55459 27.0471 2.58785 26.7322L3.08676 22.1913H8.20897C8.50832 22.1913 8.74115 22.4398 8.74115 22.7216C8.74115 22.7547 8.72452 22.7713 8.72452 22.7879Z" fill="url(#paint2_linear_11_182)"/>
<path d="M21.2828 15.7776L21.2163 16.3079C21.183 16.5896 20.9502 16.7885 20.6841 16.7885H16.0442C15.7282 16.7885 15.4788 16.5068 15.512 16.1919L16.0109 11.6509H17.2749L17.5077 9.47986H13.849L12.9509 17.584C12.8678 18.2966 13.4498 18.943 14.1816 18.943H22.2474C22.8627 18.943 23.3949 18.4789 23.4614 17.8492L23.6942 15.761H21.2828V15.7776Z" fill="url(#paint3_linear_11_182)"/>
<path d="M26.2676 7.0603H18.4014L17.6364 14.0209C17.5699 14.6341 18.0522 15.181 18.6841 15.181H25.6024C26.1346 15.181 26.6002 14.7833 26.6501 14.2529L27.3154 8.23698C27.3819 7.60721 26.8996 7.0603 26.2676 7.0603ZM24.272 13.3249H20.2973C20.0312 13.3249 19.815 13.0928 19.8482 12.8111L20.2806 8.91647H24.6711C24.9372 8.91647 25.1534 9.14849 25.1201 9.43023L24.7376 12.9271C24.7044 13.1426 24.5048 13.3249 24.272 13.3249Z" fill="url(#paint4_linear_11_182)"/>
<path d="M28.4654 1.92249H24.208L23.7922 5.68453C23.759 6.01599 24.0251 6.3143 24.3577 6.3143H28.0996C28.3823 6.3143 28.6317 6.09886 28.665 5.81712L29.0309 2.56883C29.0808 2.2208 28.8147 1.92249 28.4654 1.92249ZM27.3844 5.31993H25.2391C25.0894 5.31993 24.973 5.18735 24.9896 5.03819L25.2225 2.93343H27.6006C27.7503 2.93343 27.8667 3.06602 27.8501 3.21517L27.6339 5.10448C27.6173 5.22049 27.5175 5.31993 27.3844 5.31993Z" fill="url(#paint5_linear_11_182)"/>
<path d="M32.9556 3.87817H29.6628L29.3468 6.795C29.3135 7.06017 29.5297 7.27562 29.7792 7.27562H32.6729C32.8891 7.27562 33.0886 7.10989 33.1053 6.87787L33.388 4.35879C33.4213 4.11019 33.2217 3.87817 32.9556 3.87817ZM32.1241 6.49669H30.461C30.3446 6.49669 30.2615 6.39725 30.2781 6.28124L30.461 4.64053H32.2904C32.4068 4.64053 32.4899 4.73996 32.4733 4.85598L32.307 6.31439C32.307 6.4304 32.2239 6.49669 32.1241 6.49669Z" fill="url(#paint6_linear_11_182)"/>
<path d="M33.1561 0H30.3289L30.0462 2.50251C30.0296 2.73453 30.1959 2.91683 30.4287 2.91683H32.9233C33.1228 2.91683 33.2725 2.76767 33.3058 2.58537L33.5386 0.414322C33.5719 0.198875 33.3889 0 33.1561 0ZM32.441 2.27049H31.0108C30.911 2.27049 30.8278 2.18762 30.8445 2.08818L30.9941 0.679489H32.574C32.6738 0.679489 32.757 0.762353 32.7403 0.86179L32.6073 2.12133C32.5907 2.2042 32.5241 2.27049 32.441 2.27049Z" fill="url(#paint7_linear_11_182)"/>
<path d="M30.6412 7.82227H28.3462L28.1133 9.86073C28.0967 10.043 28.2298 10.2088 28.4127 10.2088H30.4416C30.5913 10.2088 30.7243 10.0928 30.741 9.92702L30.9405 8.1703C30.9572 7.98799 30.8241 7.82227 30.6412 7.82227ZM30.0591 9.66186H28.895C28.8118 9.66186 28.7453 9.59557 28.7619 9.5127L28.8783 8.36917H30.1589C30.2421 8.36917 30.3086 8.43546 30.2919 8.51833L30.1755 9.54585C30.1755 9.61214 30.1256 9.66186 30.0591 9.66186Z" fill="url(#paint8_linear_11_182)"/>
<path d="M26.2676 7.0603H18.418L18.1519 9.47995L17.9025 11.651L17.6364 14.0209C17.5699 14.6341 18.0522 15.181 18.6841 15.181H25.6024C26.1346 15.181 26.6002 14.7833 26.6501 14.2529L27.3154 8.23698C27.3819 7.60721 26.883 7.0603 26.2676 7.0603ZM24.7376 12.9105C24.721 13.1426 24.5214 13.3249 24.2886 13.3249H20.3139C20.0478 13.3249 19.8316 13.0928 19.8649 12.8111L19.9979 11.6344L20.2308 9.46337L20.2973 8.8999H24.6877C24.9538 8.8999 25.17 9.13192 25.1368 9.41365L24.7376 12.9105Z" fill="url(#paint9_linear_11_182)"/>
<path d="M44.6452 10.988C44.3791 10.6897 44.0132 10.4411 43.5642 10.2257C43.1152 10.0102 42.5664 9.81137 41.9344 9.64564C41.4189 9.49648 41.0197 9.38047 40.7204 9.28103C40.421 9.1816 40.2048 9.08216 40.0718 9.01587C39.9387 8.933 39.839 8.83357 39.7558 8.71756C39.6893 8.60155 39.6394 8.46896 39.6394 8.33638C39.6394 8.2038 39.6726 8.08779 39.7225 7.98835C39.7724 7.88891 39.8556 7.80605 39.972 7.72318C40.0718 7.65689 40.2048 7.5906 40.3711 7.55745C40.5208 7.52431 40.7037 7.50773 40.9033 7.50773C41.1694 7.50773 41.4687 7.55745 41.7847 7.67346C42.1007 7.7729 42.4167 7.92206 42.716 8.10436C43.0154 8.28666 43.2981 8.48554 43.5309 8.71756L45.2272 6.82825C44.8614 6.49679 44.4456 6.19848 43.98 5.96646C43.5143 5.71786 43.0154 5.53556 42.4832 5.40298C41.951 5.27039 41.3856 5.2041 40.7869 5.2041C40.2381 5.2041 39.7059 5.28697 39.1904 5.43612C38.6748 5.58528 38.2092 5.8173 37.8267 6.11561C37.4275 6.41392 37.1115 6.76195 36.8787 7.1597C36.6459 7.55745 36.5295 8.00492 36.5295 8.50211C36.5295 8.933 36.596 9.31418 36.7457 9.66221C36.8953 10.0102 37.0949 10.3086 37.3776 10.5903C37.677 10.8886 38.0595 11.1372 38.5085 11.3692C38.9575 11.6012 39.523 11.7835 40.1549 11.9493C40.604 12.0653 40.9532 12.1813 41.2359 12.2642C41.5186 12.3636 41.7182 12.4465 41.8346 12.5127C42.0841 12.6619 42.2005 12.8608 42.2005 13.1425C42.2005 13.2751 42.1672 13.3911 42.1173 13.4906C42.0674 13.59 41.9843 13.6729 41.8845 13.7557C41.7847 13.822 41.6517 13.8883 41.5186 13.9214C41.369 13.9546 41.2027 13.9877 41.0197 13.9877C40.5541 13.9877 40.0551 13.8883 39.523 13.6894C38.9908 13.4906 38.5251 13.1922 38.1094 12.7779L36.147 14.4684C36.6126 15.0318 37.2446 15.4793 38.0595 15.8108C38.8578 16.1422 39.7891 16.3079 40.8368 16.3079C41.7016 16.3079 42.4666 16.1588 43.1318 15.8605C43.797 15.5622 44.3292 15.1478 44.7117 14.6175C45.0942 14.0872 45.2938 13.4906 45.2938 12.7945C45.2938 12.4465 45.2439 12.115 45.1275 11.8167C45.0277 11.4687 44.8614 11.2035 44.6452 10.988Z" fill="black"/>
<path d="M50.8656 8.31966C51.2481 8.08764 51.7137 7.97163 52.2127 7.97163C52.5453 7.97163 52.8779 8.02134 53.1772 8.13735C53.4932 8.23679 53.7759 8.38595 54.0254 8.58482C54.2748 8.76712 54.5077 8.966 54.6906 9.18145L56.4368 7.09326C55.9712 6.49664 55.3226 6.01602 54.5243 5.68456C53.726 5.35311 52.8446 5.18738 51.8967 5.18738C50.8656 5.18738 49.9343 5.43597 49.1194 5.91659C48.3045 6.3972 47.6559 7.06012 47.1736 7.88876C46.6913 8.73398 46.4585 9.67863 46.4585 10.7393C46.4585 11.8 46.6913 12.7446 47.1736 13.5898C47.6559 14.4351 48.3045 15.0814 49.1194 15.562C49.9343 16.0426 50.8656 16.2912 51.8967 16.2912C52.828 16.2912 53.6928 16.1255 54.5077 15.794C55.3226 15.4626 55.9545 14.9985 56.4202 14.4351L54.6906 12.3303C54.4744 12.5789 54.2416 12.7943 53.9921 12.9766C53.7427 13.1589 53.4766 13.275 53.1772 13.3744C52.8779 13.4573 52.5619 13.507 52.2127 13.507C51.7137 13.507 51.2647 13.391 50.8822 13.1424C50.4997 12.8938 50.1837 12.5789 49.9675 12.1646C49.7513 11.7502 49.6349 11.2862 49.6349 10.7724C49.6349 10.2421 49.7347 9.7615 49.9509 9.34717C50.1671 8.88313 50.4665 8.55168 50.8656 8.31966Z" fill="black"/>
<path d="M65.4334 6.71196C65.2338 6.46337 65.0176 6.21478 64.7681 6.0159C64.4522 5.75073 64.0697 5.55186 63.6539 5.4027C63.2381 5.25355 62.7559 5.18726 62.2569 5.18726C61.3256 5.18726 60.5107 5.41928 59.779 5.89989C59.0472 6.3805 58.4818 7.02685 58.066 7.85549C57.6503 8.68414 57.4341 9.64537 57.4341 10.7226C57.4341 11.7833 57.6503 12.7279 58.066 13.5731C58.4818 14.4184 59.0472 15.0647 59.7457 15.5453C60.4442 16.0259 61.2591 16.258 62.1572 16.258C62.6394 16.258 63.1051 16.1917 63.5209 16.0425C63.9532 15.8933 64.3358 15.6945 64.685 15.4459C64.9511 15.2636 65.1673 15.0316 65.3668 14.7995V16.0922H68.6264V5.4027H65.4167V6.71196H65.4334ZM65.1673 12.2142C64.9677 12.6285 64.685 12.9599 64.3191 13.192C63.9533 13.424 63.5209 13.54 63.0219 13.54C62.5397 13.54 62.1239 13.424 61.758 13.192C61.4088 12.9599 61.1261 12.6451 60.9265 12.2142C60.7269 11.7998 60.6271 11.2861 60.6271 10.7226C60.6271 10.1591 60.7269 9.64537 60.9265 9.23104C61.1261 8.81672 61.4088 8.48526 61.758 8.25324C62.1073 8.02122 62.5397 7.90521 63.0219 7.90521C63.5209 7.90521 63.9533 8.02122 64.3191 8.25324C64.685 8.48526 64.9677 8.81672 65.1673 9.23104C65.3668 9.64537 65.4666 10.1591 65.4666 10.7226C65.4666 11.2861 65.3835 11.7998 65.1673 12.2142Z" fill="black"/>
<path d="M79.9207 5.66796C79.3719 5.33651 78.69 5.17078 77.8917 5.17078C77.293 5.17078 76.7276 5.28679 76.1954 5.53538C75.6633 5.78397 75.1976 6.09886 74.8151 6.49661C74.7486 6.5629 74.6821 6.64576 74.6322 6.71206L74.5656 5.4028H71.5056V16.0757C71.6886 16.0757 71.9047 16.0757 72.1708 16.0757C72.4369 16.0757 72.7695 16.0757 73.1354 16.0757H74.7319V9.6786C74.7319 9.43001 74.7818 9.18142 74.8816 8.98254C74.9814 8.7671 75.1144 8.58479 75.2974 8.40249C75.4637 8.23676 75.6799 8.10418 75.9293 8.02131C76.1788 7.93845 76.4283 7.88873 76.711 7.88873C77.0768 7.87216 77.3762 7.93845 77.6257 8.08761C77.8751 8.22019 78.058 8.43564 78.1745 8.71738C78.2909 8.99912 78.3574 9.34715 78.3574 9.77804V16.0592H81.6004V9.51288C81.6004 8.56822 81.4673 7.78929 81.1846 7.12638C80.8852 6.48004 80.4695 5.99942 79.9207 5.66796Z" fill="black"/>
<path d="M92.0436 2.70154H88.8173V5.40292H86.9214V8.20374H88.8173V16.0593H92.0436V8.20374H94.1224V5.40292H92.0436V2.70154Z" fill="black"/>
<path d="M103.87 5.89998C103.005 5.41937 102.007 5.17078 100.893 5.17078C99.7784 5.17078 98.7806 5.41937 97.9158 5.89998C97.051 6.3806 96.3691 7.04351 95.8536 7.87216C95.3381 8.7008 95.1052 9.66203 95.1052 10.7227C95.1052 11.7999 95.3547 12.7446 95.8536 13.5732C96.3525 14.4019 97.051 15.0648 97.9158 15.5454C98.7806 16.026 99.7784 16.2746 100.893 16.2746C102.007 16.2746 103.005 16.026 103.87 15.5454C104.734 15.0648 105.416 14.4019 105.915 13.5732C106.414 12.7446 106.663 11.7999 106.663 10.7227C106.663 9.64546 106.414 8.7008 105.915 7.87216C105.416 7.04351 104.734 6.3806 103.87 5.89998ZM103.071 12.148C102.855 12.5623 102.556 12.8937 102.19 13.1258C101.807 13.3744 101.392 13.4904 100.893 13.4904C100.41 13.4904 99.978 13.3744 99.5955 13.1258C99.213 12.8772 98.9136 12.5623 98.6974 12.148C98.4812 11.7336 98.3814 11.253 98.3981 10.7227C98.3814 10.1924 98.4812 9.71175 98.6974 9.28085C98.9136 8.86653 99.213 8.53507 99.5955 8.28648C99.978 8.03789 100.41 7.92188 100.893 7.92188C101.375 7.92188 101.807 8.03789 102.19 8.28648C102.572 8.53507 102.855 8.86653 103.071 9.28085C103.287 9.69518 103.387 10.1758 103.371 10.7227C103.387 11.253 103.287 11.7336 103.071 12.148Z" fill="black"/>
<path d="M120.851 5.91637C120.135 5.43576 119.321 5.20374 118.406 5.20374C117.791 5.20374 117.192 5.31975 116.643 5.53519C116.094 5.75064 115.629 6.04895 115.263 6.41356C115.213 6.46328 115.163 6.51299 115.113 6.57929L115.046 5.41918H111.986V20.5005H115.229V14.9983C115.612 15.3795 116.078 15.6944 116.626 15.9264C117.175 16.1584 117.757 16.2744 118.356 16.2744C119.287 16.2744 120.102 16.0424 120.834 15.5618C121.549 15.0812 122.114 14.4348 122.53 13.6062C122.946 12.7775 123.146 11.8329 123.146 10.7557C123.146 9.67842 122.946 8.71719 122.53 7.88855C122.114 7.0599 121.566 6.38041 120.851 5.91637ZM119.703 12.2141C119.503 12.6284 119.221 12.9599 118.855 13.1919C118.489 13.4239 118.073 13.5399 117.591 13.5399C117.092 13.5399 116.66 13.4239 116.294 13.1919C115.928 12.9599 115.645 12.6284 115.446 12.2141C115.246 11.7997 115.146 11.3026 115.146 10.7225C115.146 10.159 115.246 9.66184 115.446 9.23095C115.645 8.80005 115.928 8.4686 116.294 8.25315C116.66 8.02113 117.092 7.90512 117.591 7.90512C118.09 7.90512 118.522 8.02113 118.871 8.25315C119.221 8.48517 119.503 8.81663 119.703 9.23095C119.903 9.64527 120.002 10.1425 120.002 10.7059C120.002 11.3026 119.903 11.7997 119.703 12.2141Z" fill="black"/>
<path d="M132.52 6.71196C132.32 6.46337 132.104 6.21478 131.855 6.0159C131.539 5.75073 131.156 5.55186 130.74 5.4027C130.325 5.25355 129.842 5.18726 129.343 5.18726C128.412 5.18726 127.597 5.41928 126.866 5.89989C126.134 6.3805 125.568 7.02685 125.153 7.85549C124.737 8.68414 124.521 9.64537 124.521 10.7226C124.521 11.7833 124.737 12.7279 125.153 13.5731C125.568 14.4184 126.134 15.0647 126.832 15.5453C127.531 16.0259 128.346 16.258 129.244 16.258C129.726 16.258 130.192 16.1917 130.607 16.0425C131.04 15.8933 131.422 15.6945 131.772 15.4459C132.038 15.2636 132.254 15.0316 132.453 14.7995V16.0922H135.73V5.4027H132.52V6.71196ZM132.27 12.2142C132.071 12.6285 131.788 12.9599 131.422 13.192C131.056 13.424 130.624 13.54 130.125 13.54C129.643 13.54 129.227 13.424 128.861 13.192C128.512 12.9599 128.229 12.6451 128.03 12.2142C127.83 11.7998 127.73 11.2861 127.73 10.7226C127.73 10.1591 127.83 9.64537 128.03 9.23104C128.229 8.81672 128.512 8.48526 128.861 8.25324C129.21 8.02122 129.643 7.90521 130.125 7.90521C130.624 7.90521 131.056 8.02122 131.422 8.25324C131.788 8.48526 132.071 8.81672 132.27 9.23104C132.47 9.64537 132.57 10.1591 132.57 10.7226C132.57 11.2861 132.47 11.7998 132.27 12.2142Z" fill="black"/>
<path d="M145.627 5.40271L143.648 11.0541C143.532 11.369 143.432 11.6673 143.349 11.949C143.315 11.8496 143.282 11.7501 143.249 11.6341C143.149 11.3192 143.033 11.0375 142.9 10.7723L140.638 5.40271H136.996L141.769 15.7773L139.673 20.6995H142.883L144.746 16.0757L149.302 5.40271H145.627Z" fill="black"/>
<path d="M40.3534 21.9759C40.6029 22.0754 40.8191 22.208 40.9687 22.3737C41.1184 22.556 41.2348 22.7549 41.318 22.9703C41.3845 23.2023 41.4344 23.4509 41.4344 23.7327C41.4344 24.147 41.3679 24.5116 41.2515 24.8431C41.135 25.1745 40.9521 25.4728 40.7193 25.7048C40.4865 25.9534 40.2037 26.1357 39.8545 26.2683C39.5052 26.4009 39.1061 26.4672 38.6737 26.4672H38.0251L37.7424 28.7211H36.2124L37.0606 21.8268H39.472C39.788 21.8434 40.0873 21.8931 40.3534 21.9759ZM39.5052 24.7933C39.7048 24.5779 39.788 24.2796 39.788 23.9315C39.788 23.6995 39.7214 23.5172 39.5884 23.4012C39.4554 23.2852 39.2724 23.2189 39.0729 23.2189H38.4076L38.1748 25.1248H38.7236C39.0396 25.1248 39.3057 25.0088 39.5052 24.7933Z" fill="#F15B25"/>
<path d="M45.6798 24.4449C46.0457 24.793 46.2286 25.3067 46.2286 25.9365C46.2286 26.2514 46.1953 26.5497 46.1288 26.8314C46.0623 27.1132 45.9625 27.3783 45.8128 27.6269C45.6798 27.8755 45.4969 28.091 45.2973 28.2567C45.0977 28.439 44.8483 28.5716 44.5489 28.671C44.2496 28.7705 43.9336 28.8202 43.5677 28.8202C42.9524 28.8202 42.4701 28.6379 42.1042 28.2733C41.7384 27.9087 41.5554 27.4115 41.5554 26.7652C41.5554 26.5497 41.572 26.3343 41.6053 26.1188C41.6386 25.9034 41.7051 25.7045 41.7716 25.5222C41.8548 25.3233 41.9379 25.1576 42.0543 24.9919C42.1541 24.8261 42.2872 24.677 42.4368 24.5444C42.5865 24.4118 42.7528 24.2958 42.9191 24.1964C43.0854 24.0969 43.285 24.0306 43.5012 23.9643C43.7174 23.9146 43.9502 23.8815 44.183 23.8815C44.815 23.898 45.3139 24.0803 45.6798 24.4449ZM43.5178 25.4227C43.3515 25.5719 43.2351 25.7542 43.1519 25.9862C43.0688 26.2182 43.0355 26.4503 43.0355 26.6989C43.0355 26.848 43.0522 26.964 43.0854 27.08C43.1187 27.196 43.1686 27.2789 43.2351 27.3452C43.3016 27.4115 43.3681 27.4612 43.4347 27.4778C43.5012 27.5109 43.5843 27.5275 43.6675 27.5275C43.8837 27.5275 44.0666 27.4612 44.2329 27.3121C44.3992 27.1629 44.5157 26.9806 44.6154 26.7652C44.6986 26.5331 44.7485 26.3011 44.7485 26.0359C44.7485 25.9034 44.7319 25.7874 44.6986 25.6713C44.6653 25.5719 44.6321 25.489 44.5822 25.4227C44.5323 25.373 44.4824 25.3233 44.4159 25.2902C44.3493 25.257 44.2995 25.2404 44.2329 25.2239C44.183 25.2073 44.1165 25.2073 44.0666 25.2073C43.8671 25.2073 43.6841 25.2736 43.5178 25.4227Z" fill="#F15B25"/>
<path d="M53.309 25.4725C53.2758 25.8205 53.2425 26.152 53.1593 26.4503C53.0928 26.7486 52.993 27.0138 52.8933 27.2458C52.7935 27.4778 52.6604 27.6767 52.5274 27.859C52.3943 28.0413 52.2447 28.1904 52.095 28.3065C51.9453 28.4225 51.779 28.5219 51.6127 28.6048C51.4464 28.6876 51.2635 28.7374 51.0972 28.7705C50.9309 28.8036 50.7479 28.8202 50.565 28.8202C49.9496 28.8202 49.5505 28.5385 49.4008 27.9916H49.3842C49.2179 28.2733 49.0183 28.4888 48.8021 28.6213C48.5859 28.7539 48.3365 28.8202 48.0538 28.8202C47.7212 28.8202 47.4551 28.7373 47.2555 28.555C47.0559 28.3893 46.9063 28.1573 46.8397 27.859C46.7732 27.5772 46.7566 27.2292 46.8065 26.848L47.1557 23.9644H48.6026L48.3032 26.4503C48.2533 26.7817 48.2533 27.0469 48.2866 27.2292C48.3199 27.4115 48.3864 27.511 48.5194 27.511C48.6691 27.511 48.8354 27.3784 49.0017 27.1298C49.168 26.8812 49.2844 26.5166 49.3343 26.0525L49.5838 23.9809H50.9974L50.6814 26.5663C50.6315 26.9143 50.6315 27.1629 50.6648 27.3121C50.698 27.4612 50.7645 27.5275 50.881 27.5275C50.9308 27.5275 50.9974 27.511 51.0639 27.4612C51.1304 27.4281 51.2136 27.3452 51.2967 27.2292C51.3799 27.1132 51.463 26.9806 51.5296 26.8149C51.5961 26.6492 51.6626 26.4337 51.7291 26.1686C51.7956 25.9034 51.8455 25.5885 51.8788 25.257C51.912 24.8924 51.8954 24.4781 51.8123 23.9644H53.2758C53.3256 24.445 53.3589 24.9422 53.309 25.4725Z" fill="#F15B25"/>
<path d="M56.6726 27.1462L57.7536 27.776C57.5041 28.124 57.2047 28.3892 56.8721 28.5549C56.5395 28.7207 56.1404 28.8201 55.6747 28.8201C55.0428 28.8201 54.5605 28.6378 54.2113 28.2898C53.862 27.9417 53.6791 27.4445 53.6791 26.7982C53.6791 26.4999 53.7123 26.2016 53.7955 25.9033C53.8786 25.6215 53.9784 25.3564 54.1281 25.1078C54.2778 24.8592 54.4607 24.6603 54.6603 24.478C54.8765 24.2957 55.1093 24.1465 55.392 24.0471C55.6747 23.9477 55.9741 23.8979 56.2901 23.8979C56.4896 23.8979 56.6892 23.9311 56.8721 23.9808C57.0551 24.0305 57.238 24.1134 57.3877 24.2294C57.5374 24.3454 57.6704 24.478 57.7536 24.6603C57.8533 24.8426 57.8866 25.0415 57.8866 25.2569C57.8866 25.4724 57.8367 25.6713 57.7369 25.837C57.6371 26.0027 57.5041 26.1684 57.3378 26.301C57.1715 26.4336 56.9719 26.5496 56.7391 26.6656C56.5063 26.7651 56.2568 26.8645 56.0074 26.9308C55.7579 26.9971 55.4752 27.0468 55.1925 27.0965L55.1259 27.1794C55.1925 27.3285 55.2756 27.428 55.392 27.5108C55.5084 27.5771 55.6415 27.6269 55.7745 27.6269C56.1404 27.6269 56.4397 27.4611 56.6726 27.1462ZM55.5916 25.3895C55.392 25.5718 55.259 25.8204 55.1758 26.1353L55.2423 26.185C56.1071 26.0193 56.5395 25.7707 56.5395 25.4061C56.5395 25.3232 56.5063 25.2569 56.4564 25.2072C56.3899 25.1575 56.3233 25.1243 56.2235 25.1243C55.9907 25.1243 55.7745 25.2072 55.5916 25.3895Z" fill="#F15B25"/>
<path d="M61.624 23.8983L61.4244 25.5059C61.2415 25.4396 61.0752 25.423 60.9089 25.4562C60.7426 25.5059 60.6095 25.5722 60.4765 25.7048C60.3434 25.8373 60.2437 26.0031 60.1439 26.2185C60.0607 26.434 59.9942 26.6991 59.9609 26.9809L59.7447 28.721H58.2812L58.8633 23.9646H60.3268L60.2437 24.611H60.2603C60.6428 24.1469 61.0918 23.8983 61.624 23.8983Z" fill="#F15B25"/>
<path d="M64.5719 27.1466L65.6529 27.7764C65.4034 28.1244 65.104 28.3896 64.7714 28.5553C64.4388 28.721 64.0397 28.8205 63.574 28.8205C62.9421 28.8205 62.4598 28.6382 62.1105 28.2901C61.7613 27.9421 61.5784 27.4449 61.5784 26.7986C61.5784 26.5003 61.6116 26.2019 61.6948 25.9036C61.7779 25.6219 61.8777 25.3567 62.0274 25.1081C62.1771 24.8595 62.36 24.6607 62.5596 24.4784C62.7591 24.2961 63.0086 24.1469 63.2913 24.0475C63.574 23.948 63.8734 23.8983 64.1894 23.8983C64.3889 23.8983 64.5885 23.9315 64.7714 23.9812C64.9544 24.0309 65.1373 24.1138 65.287 24.2298C65.4367 24.3458 65.5697 24.4784 65.6529 24.6607C65.7526 24.843 65.7859 25.0418 65.7859 25.2573C65.7859 25.4727 65.736 25.6716 65.6362 25.8373C65.5364 26.0031 65.4034 26.1688 65.2371 26.3014C65.0708 26.434 64.8712 26.55 64.6384 26.666C64.4056 26.7654 64.1561 26.8649 63.9066 26.9312C63.6572 26.9974 63.3745 27.0472 63.0917 27.0969L63.0252 27.1797C63.0917 27.3289 63.1749 27.4283 63.2913 27.5112C63.4077 27.5775 63.5408 27.6272 63.6738 27.6272C64.0397 27.6272 64.3224 27.4615 64.5719 27.1466ZM63.4909 25.3899C63.2913 25.5722 63.1583 25.8208 63.0751 26.1357L63.1416 26.1854C64.0064 26.0196 64.4388 25.7711 64.4388 25.4064C64.4388 25.3236 64.4056 25.2573 64.3557 25.2076C64.2891 25.1579 64.2226 25.1247 64.1228 25.1247C63.89 25.1247 63.6738 25.2076 63.4909 25.3899Z" fill="#F15B25"/>
<path d="M71.4036 21.5944L70.5222 28.7539H69.0587L69.1585 27.9749H69.1418C68.9589 28.2401 68.7593 28.4555 68.5265 28.6047C68.2937 28.7539 68.0276 28.8367 67.7449 28.8367C67.4954 28.8367 67.2626 28.787 67.0796 28.6876C66.8801 28.5881 66.7138 28.4555 66.5973 28.2732C66.4643 28.0909 66.3812 27.8921 66.3146 27.66C66.2481 27.428 66.2148 27.1629 66.2148 26.8977C66.2148 26.4834 66.2814 26.0856 66.3978 25.721C66.5142 25.3564 66.6805 25.025 66.8801 24.7598C67.0796 24.4946 67.3125 24.2792 67.5952 24.13C67.8779 23.9809 68.1606 23.898 68.4766 23.898C68.9589 23.898 69.3414 24.0472 69.6241 24.3455H69.6407L69.9733 21.5944H71.4036ZM68.9921 27.0137C69.2416 26.6491 69.4079 26.1685 69.4744 25.5719V25.5553C69.2582 25.3233 68.9921 25.2073 68.6595 25.2073C68.5099 25.2073 68.3602 25.257 68.2271 25.3564C68.0941 25.4558 67.9777 25.5884 67.8945 25.7376C67.8114 25.8867 67.7449 26.069 67.695 26.2513C67.6451 26.4336 67.6284 26.6159 67.6284 26.7982C67.6284 27.0303 67.6783 27.2126 67.7781 27.3617C67.8779 27.4943 68.0109 27.5772 68.1772 27.5772C68.4766 27.544 68.7427 27.3617 68.9921 27.0137Z" fill="#F15B25"/>
<path d="M77.4265 24.1631C77.6593 24.3454 77.8422 24.5774 77.9586 24.8757C78.0751 25.174 78.1249 25.5055 78.1249 25.8866C78.1249 26.3175 78.0584 26.7153 77.942 27.0799C77.8256 27.4445 77.6593 27.7594 77.4265 28.0246C77.1936 28.2897 76.9109 28.4886 76.545 28.6377C76.1958 28.7869 75.78 28.8532 75.331 28.8532C74.5494 28.8532 73.8509 28.6875 73.2522 28.356L74.0837 21.6108H75.5472L75.1647 24.71H75.1813C75.5638 24.1796 76.0295 23.9145 76.5617 23.9145C76.9109 23.8979 77.1936 23.9808 77.4265 24.1631ZM76.0295 27.3119C76.2457 27.1628 76.3954 26.9639 76.4952 26.7319C76.5949 26.4998 76.6448 26.2347 76.6448 25.9529C76.6448 25.7375 76.5949 25.5552 76.4952 25.4226C76.3954 25.2735 76.2623 25.2072 76.096 25.2072C75.8133 25.2072 75.5472 25.3729 75.2978 25.7209C75.0483 26.0689 74.8986 26.533 74.8155 27.1296L74.7656 27.4776C74.9485 27.5108 75.1314 27.5439 75.2811 27.5439C75.5805 27.5439 75.8299 27.4611 76.0295 27.3119Z" fill="#F15B25"/>
<path d="M83.3445 23.9976L82.829 28.1076C82.6128 29.8809 81.7147 30.7593 80.1348 30.7593C79.4862 30.7593 78.9208 30.6101 78.4219 30.2953L78.8709 29.2014C79.2368 29.45 79.6193 29.5661 80.0683 29.5661C80.218 29.5661 80.3344 29.5495 80.4342 29.5329C80.534 29.5163 80.6504 29.4666 80.7502 29.4003C80.8499 29.334 80.9497 29.2512 81.0162 29.1352C81.0994 29.0191 81.1659 28.8866 81.2158 28.7043C81.2823 28.522 81.3322 28.3065 81.3655 28.0579H81.3489C80.9663 28.5883 80.5007 28.8368 79.9186 28.8368C79.7357 28.8368 79.5694 28.8203 79.4363 28.7706C79.3033 28.7208 79.1703 28.6711 79.0538 28.5717C78.9374 28.4722 78.8543 28.3562 78.8044 28.2236C78.7545 28.0911 78.7046 27.8922 78.688 27.6933C78.6713 27.4779 78.6713 27.2293 78.7046 26.9641L79.0705 24.0141H80.5173L80.218 26.5332C80.1681 26.9144 80.1681 27.1796 80.2013 27.3287C80.2512 27.4779 80.351 27.5442 80.5173 27.5442C80.6504 27.5442 80.8 27.4779 80.9664 27.3453C81.116 27.2127 81.2657 27.047 81.3821 26.8315C81.4985 26.6161 81.5817 26.4006 81.6149 26.1852L81.881 23.9976H83.3445Z" fill="#F15B25"/>
<path d="M101.623 27.1962C101.524 27.5111 101.391 27.7762 101.224 27.9917C101.058 28.2071 100.875 28.3894 100.659 28.5386C100.443 28.6712 100.193 28.7872 99.9271 28.8369C99.6611 28.9032 99.3617 28.9363 99.0457 28.9363C98.2974 28.9363 97.7485 28.7375 97.3827 28.3231C97.0168 27.9088 96.8339 27.3288 96.8339 26.583C96.8339 26.3841 96.8505 26.1521 96.8838 25.8869L97.3328 22.2243H98.8295L98.3805 25.8703C98.3639 26.0858 98.3472 26.2681 98.3472 26.4173C98.3472 27.1465 98.6133 27.5111 99.1455 27.5111C99.2619 27.5111 99.3617 27.4945 99.4615 27.4779C99.5613 27.4613 99.6444 27.4282 99.7276 27.3785C99.8107 27.3288 99.8939 27.279 99.9604 27.1962C100.027 27.1133 100.093 27.0304 100.143 26.9144C100.193 26.815 100.243 26.6824 100.276 26.5333C100.31 26.3841 100.343 26.2184 100.36 26.0361L100.842 22.1912H102.339L101.856 26.0692C101.806 26.5333 101.723 26.8813 101.623 27.1962Z" fill="#F15B25"/>
<path d="M105.963 27.279C105.996 27.3619 106.046 27.4282 106.079 27.4779C106.129 27.5276 106.162 27.5773 106.212 27.627C106.262 27.6602 106.312 27.6933 106.362 27.7099C106.412 27.7265 106.478 27.743 106.528 27.7596C106.578 27.7762 106.644 27.7762 106.711 27.7928L106.395 28.9363C106.295 28.9529 106.162 28.9529 105.979 28.9529C105.796 28.9529 105.647 28.9197 105.514 28.8534C105.381 28.7871 105.248 28.7043 105.148 28.5717C105.048 28.4557 104.965 28.3065 104.882 28.1574C104.815 28.0082 104.732 27.8259 104.665 27.627L104.599 27.4116H104.582C104.433 27.4945 104.25 27.5939 104.067 27.6768L103.934 28.8534H102.537L103.368 22.2408H104.765L104.266 26.152H104.283C104.632 25.92 104.915 25.6383 105.098 25.34C105.297 25.0417 105.43 24.6936 105.53 24.3125H106.977C106.811 25.1908 106.378 25.9697 105.697 26.6161L105.813 27.0138C105.879 27.0967 105.929 27.1961 105.963 27.279Z" fill="#F15B25"/>
<path d="M111.668 24.6606C111.851 24.9589 111.884 25.4229 111.801 26.0527L111.435 28.8369H110.038L110.37 26.3676C110.42 26.0527 110.42 25.8207 110.387 25.6715C110.354 25.5224 110.254 25.4395 110.104 25.4395C110.005 25.4395 109.888 25.4727 109.772 25.5555C109.655 25.6218 109.539 25.7378 109.439 25.8704C109.323 26.003 109.223 26.1853 109.14 26.4007C109.057 26.6162 108.99 26.8648 108.94 27.1299L108.724 28.8369H107.327L108.192 22.2244H109.589L109.206 24.9423H109.24C109.655 24.4617 110.154 24.2131 110.753 24.2131C111.185 24.2131 111.485 24.3623 111.668 24.6606Z" fill="#F15B25"/>
<path d="M115.158 27.3286L116.206 27.9418C115.956 28.2732 115.673 28.5218 115.357 28.6875C115.041 28.8533 114.659 28.9361 114.21 28.9361C113.611 28.9361 113.146 28.7704 112.796 28.4224C112.464 28.0743 112.281 27.6103 112.281 26.9971C112.281 26.6988 112.314 26.4171 112.397 26.1353C112.464 25.8536 112.58 25.605 112.713 25.373C112.863 25.1409 113.029 24.9421 113.229 24.7598C113.428 24.5775 113.661 24.4449 113.927 24.3454C114.193 24.246 114.493 24.1963 114.792 24.1963C114.992 24.1963 115.174 24.2294 115.357 24.2792C115.54 24.3289 115.707 24.4117 115.856 24.5112C116.006 24.6106 116.122 24.7432 116.222 24.9255C116.305 25.0912 116.355 25.2901 116.355 25.5055C116.355 25.7044 116.305 25.9033 116.206 26.069C116.106 26.2348 115.989 26.3839 115.823 26.5165C115.657 26.6491 115.474 26.7651 115.241 26.8645C115.008 26.964 114.775 27.0468 114.543 27.1131C114.293 27.1794 114.044 27.2291 113.761 27.2788L113.694 27.3617C113.744 27.4943 113.844 27.6103 113.944 27.6766C114.06 27.7429 114.177 27.776 114.31 27.776C114.642 27.776 114.908 27.6269 115.158 27.3286ZM114.11 25.6381C113.927 25.8039 113.794 26.0525 113.711 26.3508L113.778 26.3839C114.609 26.2348 115.025 25.9862 115.025 25.6216C115.025 25.5387 114.992 25.489 114.942 25.4393C114.892 25.3895 114.809 25.373 114.709 25.373C114.493 25.373 114.293 25.4558 114.11 25.6381Z" fill="#F15B25"/>
<path d="M117.804 27.7264C118.003 27.8259 118.186 27.8756 118.353 27.8756C118.469 27.8756 118.585 27.859 118.652 27.8093C118.735 27.7596 118.768 27.7099 118.768 27.627C118.768 27.5607 118.735 27.4944 118.652 27.4447C118.569 27.395 118.419 27.3121 118.17 27.1795C118.12 27.1464 118.086 27.1298 118.053 27.1132C117.687 26.9309 117.405 26.7321 117.222 26.5166C117.039 26.3012 116.939 26.036 116.939 25.7211C116.939 25.4228 117.022 25.1576 117.172 24.9256C117.321 24.6936 117.521 24.5113 117.787 24.3787C118.037 24.2461 118.336 24.1964 118.635 24.1964C118.951 24.1964 119.251 24.2627 119.55 24.3787C119.833 24.4947 120.082 24.677 120.282 24.9256L119.434 25.7377C119.35 25.6217 119.267 25.5388 119.167 25.4725C119.068 25.4062 118.968 25.3565 118.901 25.3234C118.818 25.2902 118.735 25.2902 118.652 25.2736C118.585 25.2736 118.535 25.2736 118.469 25.3068C118.419 25.3234 118.369 25.3565 118.336 25.4062C118.303 25.456 118.286 25.5057 118.286 25.5554C118.286 25.6217 118.336 25.7045 118.436 25.7708C118.535 25.8537 118.702 25.9366 118.918 26.0526C119.084 26.1354 119.217 26.2017 119.317 26.268C119.417 26.3343 119.533 26.4006 119.633 26.5C119.733 26.5829 119.833 26.6823 119.883 26.7652C119.949 26.8481 119.999 26.9641 120.032 27.0801C120.065 27.1961 120.099 27.3287 120.099 27.4613C120.099 27.9087 119.932 28.2733 119.616 28.5385C119.284 28.8037 118.851 28.9363 118.303 28.9363C117.97 28.9363 117.621 28.87 117.305 28.7208C116.972 28.5882 116.723 28.3894 116.523 28.1408L117.305 27.3287C117.455 27.4944 117.604 27.627 117.804 27.7264Z" fill="#F15B25"/>
<path d="M124.923 24.6606C125.106 24.9589 125.139 25.4229 125.056 26.0527L124.69 28.8369H123.293L123.626 26.3676C123.676 26.0527 123.676 25.8207 123.642 25.6715C123.609 25.5224 123.509 25.4395 123.36 25.4395C123.26 25.4395 123.143 25.4727 123.027 25.5555C122.911 25.6218 122.794 25.7378 122.694 25.8704C122.578 26.003 122.478 26.1853 122.395 26.4007C122.312 26.6162 122.245 26.8648 122.196 27.1299L121.979 28.8369H120.582L121.447 22.2244H122.844L122.462 24.9423H122.495C122.911 24.4617 123.41 24.2131 124.008 24.2131C124.441 24.2131 124.757 24.3623 124.923 24.6606Z" fill="#F15B25"/>
<path d="M128.531 27.3287L129.579 27.9419C129.329 28.2733 129.047 28.5219 128.731 28.6877C128.415 28.8534 128.032 28.9363 127.583 28.9363C126.984 28.9363 126.519 28.7705 126.169 28.4225C125.837 28.0745 125.654 27.6104 125.654 26.9972C125.654 26.6989 125.687 26.4172 125.77 26.1354C125.837 25.8537 125.953 25.6051 126.086 25.3731C126.236 25.1411 126.402 24.9422 126.602 24.7599C126.801 24.5776 127.034 24.445 127.3 24.3456C127.566 24.2461 127.866 24.1964 128.165 24.1964C128.365 24.1964 128.548 24.2296 128.731 24.2793C128.914 24.329 129.08 24.4119 129.229 24.5113C129.379 24.6107 129.496 24.7433 129.595 24.9256C129.679 25.0913 129.728 25.2902 129.728 25.5057C129.728 25.7045 129.679 25.9034 129.579 26.0691C129.479 26.2349 129.363 26.384 129.196 26.5166C129.03 26.6492 128.847 26.7652 128.614 26.8646C128.381 26.9641 128.149 27.047 127.916 27.1132C127.666 27.1795 127.417 27.2293 127.134 27.279L127.068 27.3618C127.117 27.4944 127.217 27.6104 127.317 27.6767C127.433 27.743 127.55 27.7762 127.683 27.7762C128.015 27.7762 128.298 27.627 128.531 27.3287ZM127.483 25.6383C127.3 25.804 127.167 26.0526 127.084 26.3509L127.151 26.384C127.982 26.2349 128.398 25.9863 128.398 25.6217C128.398 25.5388 128.365 25.4891 128.315 25.4394C128.265 25.3897 128.182 25.3731 128.082 25.3731C127.866 25.3731 127.666 25.456 127.483 25.6383Z" fill="#F15B25"/>
<path d="M88.3511 28.9195C90.2303 28.8864 91.91 28.4389 92.1595 25.837L92.542 22.423L91.0119 22.4395L90.6294 25.8536C90.38 27.5771 89.5651 27.3617 88.5506 27.3948C87.5195 27.4114 86.7878 26.5993 86.9042 25.5718L87.2867 22.5058L85.7567 22.5224L85.3742 25.5884C85.1414 27.4611 86.4884 28.9527 88.3511 28.9195Z" fill="url(#paint10_linear_11_182)"/>
<path d="M90.763 30.7427C92.6423 30.7096 94.3386 29.0854 94.5714 27.2127L95.1535 22.4728C95.2865 21.3293 94.4716 20.4178 93.3241 20.4509C92.1766 20.4675 91.1289 21.4122 90.9958 22.5557L92.5259 22.5226C92.5591 22.2242 92.8418 21.9757 93.1412 21.9757C93.4405 21.9757 93.6567 22.2077 93.6235 22.506L93.0414 27.2458C92.925 28.2734 91.977 29.2014 90.946 29.218C89.9149 29.2346 89.1831 28.4225 89.2995 27.395L89.8982 22.4894C90.0313 21.3459 89.2164 20.4509 88.0689 20.4675C86.9214 20.4841 85.8736 21.4287 85.7406 22.5723L87.2706 22.5391C87.3039 22.2408 87.5866 21.9922 87.8859 21.9922C88.1853 21.9922 88.4015 22.2242 88.3682 22.5226L87.7695 27.4281C87.5533 29.2843 88.8838 30.7759 90.763 30.7427Z" fill="#F15B25"/>
<defs>
<linearGradient id="paint0_linear_11_182" x1="-4.11069" y1="23.8136" x2="19.6442" y2="2.31125" gradientUnits="userSpaceOnUse">
<stop stop-color="#B4292D"/>
<stop offset="0.1645" stop-color="#C3382C"/>
<stop offset="0.4486" stop-color="#D94A29"/>
<stop offset="0.7291" stop-color="#E95626"/>
<stop offset="1" stop-color="#F15B25"/>
</linearGradient>
<linearGradient id="paint1_linear_11_182" x1="5.89505" y1="34.8006" x2="29.6499" y2="13.2982" gradientUnits="userSpaceOnUse">
<stop stop-color="#B4292D"/>
<stop offset="0.1645" stop-color="#C3382C"/>
<stop offset="0.4486" stop-color="#D94A29"/>
<stop offset="0.7291" stop-color="#E95626"/>
<stop offset="1" stop-color="#F15B25"/>
</linearGradient>
<linearGradient id="paint2_linear_11_182" x1="0.315801" y1="29.2855" x2="24.0707" y2="7.78312" gradientUnits="userSpaceOnUse">
<stop stop-color="#B4292D"/>
<stop offset="0.1645" stop-color="#C3382C"/>
<stop offset="0.4486" stop-color="#D94A29"/>
<stop offset="0.7291" stop-color="#E95626"/>
<stop offset="1" stop-color="#F15B25"/>
</linearGradient>
<linearGradient id="paint3_linear_11_182" x1="1.47211" y1="29.3286" x2="25.227" y2="7.82618" gradientUnits="userSpaceOnUse">
<stop stop-color="#B4292D"/>
<stop offset="0.1645" stop-color="#C3382C"/>
<stop offset="0.4486" stop-color="#D94A29"/>
<stop offset="0.7291" stop-color="#E95626"/>
<stop offset="1" stop-color="#F15B25"/>
</linearGradient>
<linearGradient id="paint4_linear_11_182" x1="17.6325" y1="11.1192" x2="27.3205" y2="11.1192" gradientUnits="userSpaceOnUse">
<stop stop-color="#B4292D"/>
<stop offset="0.1645" stop-color="#C3382C"/>
<stop offset="0.4486" stop-color="#D94A29"/>
<stop offset="0.7291" stop-color="#E95626"/>
<stop offset="1" stop-color="#F15B25"/>
</linearGradient>
<linearGradient id="paint5_linear_11_182" x1="23.7959" y1="4.12695" x2="29.0388" y2="4.12695" gradientUnits="userSpaceOnUse">
<stop stop-color="#B4292D"/>
<stop offset="0.1645" stop-color="#C3382C"/>
<stop offset="0.4486" stop-color="#D94A29"/>
<stop offset="0.7291" stop-color="#E95626"/>
<stop offset="1" stop-color="#F15B25"/>
</linearGradient>
<linearGradient id="paint6_linear_11_182" x1="29.3421" y1="5.57424" x2="33.3985" y2="5.57424" gradientUnits="userSpaceOnUse">
<stop stop-color="#B4292D"/>
<stop offset="0.1645" stop-color="#C3382C"/>
<stop offset="0.4486" stop-color="#D94A29"/>
<stop offset="0.7291" stop-color="#E95626"/>
<stop offset="1" stop-color="#F15B25"/>
</linearGradient>
<linearGradient id="paint7_linear_11_182" x1="30.0458" y1="1.47013" x2="33.5408" y2="1.47013" gradientUnits="userSpaceOnUse">
<stop stop-color="#B4292D"/>
<stop offset="0.1645" stop-color="#C3382C"/>
<stop offset="0.4486" stop-color="#D94A29"/>
<stop offset="0.7291" stop-color="#E95626"/>
<stop offset="1" stop-color="#F15B25"/>
</linearGradient>
<linearGradient id="paint8_linear_11_182" x1="28.1049" y1="9.01343" x2="30.9429" y2="9.01343" gradientUnits="userSpaceOnUse">
<stop stop-color="#B4292D"/>
<stop offset="0.1645" stop-color="#C3382C"/>
<stop offset="0.4486" stop-color="#D94A29"/>
<stop offset="0.7291" stop-color="#E95626"/>
<stop offset="1" stop-color="#F15B25"/>
</linearGradient>
<linearGradient id="paint9_linear_11_182" x1="17.6334" y1="11.1201" x2="27.3193" y2="11.1201" gradientUnits="userSpaceOnUse">
<stop stop-color="#B4292D"/>
<stop offset="0.1645" stop-color="#C3382C"/>
<stop offset="0.4486" stop-color="#D94A29"/>
<stop offset="0.7291" stop-color="#E95626"/>
<stop offset="1" stop-color="#F15B25"/>
</linearGradient>
<linearGradient id="paint10_linear_11_182" x1="89.0373" y1="22.9458" x2="88.5968" y2="28.6922" gradientUnits="userSpaceOnUse">
<stop stop-color="#F15B25"/>
<stop offset="0.1901" stop-color="#DC4C28"/>
<stop offset="0.5506" stop-color="#B52A2D"/>
<stop offset="0.5578" stop-color="#B4292D"/>
</linearGradient>
</defs>
</svg>
