<svg width="147" height="29" viewBox="0 0 147 29" fill="none" xmlns="http://www.w3.org/2000/svg">
<path d="M42.9601 9.2605H43.2793C45.2467 9.2605 47.1595 9.93119 49.0177 11.2726C49.8628 11.9826 50.4539 12.5947 50.791 13.1089C52.0329 14.7639 52.702 16.7783 52.6971 18.8474C52.6971 21.3638 51.7814 23.6066 49.95 25.5757C48.9663 26.5102 48.0323 27.1577 47.1478 27.518C45.8145 28.1163 44.5245 28.4159 43.278 28.4168H42.9614C40.9663 28.4168 39.0472 27.7376 37.2042 26.3792C36.6028 25.9055 36.0622 25.3595 35.5945 24.7535C34.2528 23.0716 33.5267 20.9814 33.5368 18.8299C33.5368 16.4628 34.3596 14.3256 36.005 12.4181C36.851 11.5578 37.4613 11.0347 37.836 10.8487C39.5082 9.789 41.2163 9.2596 42.9601 9.2605ZM36.7897 18.8474V18.9815C36.7897 20.5911 37.4255 22.0667 38.6971 23.408C40.018 24.5777 41.4488 25.163 42.9896 25.1639H43.2324C44.952 25.1639 46.491 24.466 47.8494 23.07C48.9162 21.7877 49.4497 20.4235 49.4497 18.9775V18.8433C49.4497 17.062 48.796 15.5234 47.4886 14.2276C46.8446 13.6291 46.0882 13.1645 45.2632 12.8608C44.6319 12.6418 43.9702 12.5228 43.3021 12.508H42.9466C41.9004 12.508 40.8273 12.8317 39.7273 13.4791C39.3535 13.7027 38.8863 14.102 38.3256 14.677C37.6638 15.5095 37.2525 16.2509 37.0915 16.901C36.877 17.5269 36.7752 18.1859 36.791 18.8474H36.7897Z" fill="#1A1A1A"/>
<path d="M56.2236 1.6333H56.3739C56.897 1.6333 57.3392 1.90783 57.7005 2.45691C57.8498 2.6921 57.9245 3.0659 57.9245 3.5783V10.1913C57.9245 10.477 58.1244 10.7024 58.5228 10.862C58.6462 10.8754 58.7159 10.8808 58.728 10.8808C58.8898 10.8808 59.3325 10.6688 60.056 10.245C61.451 9.60915 62.8094 9.29169 64.1311 9.29258H64.4476C66.1422 9.29258 67.8239 9.80991 69.4926 10.8446C71.2869 12.0079 72.6319 13.7474 73.3061 15.7768C73.6349 16.753 73.8051 17.7756 73.8105 18.8057V18.9183C73.8105 21.1745 73.0258 23.2488 71.4563 25.141C70.5836 26.0353 70.0023 26.5521 69.7126 26.6916C68.1211 27.8141 66.2207 28.4154 64.2733 28.4126C62.404 28.4112 60.5746 27.8725 59.003 26.8607C58.8915 26.7892 58.7624 26.7502 58.6301 26.748H58.5737C58.174 26.748 57.8686 27.0534 57.6576 27.6641C57.2829 28.1631 56.8219 28.4126 56.2746 28.4126C55.7273 28.4126 55.2601 28.1323 54.8729 27.5716C54.7698 27.3473 54.7067 27.1067 54.6864 26.8607V3.1665C54.6864 2.61787 54.9922 2.15912 55.6026 1.78353C55.7995 1.6985 56.0096 1.64769 56.2236 1.6333ZM57.9245 18.8298V18.9774C57.9245 20.6854 58.6283 22.2186 60.0358 23.577C61.3191 24.6501 62.6842 25.1866 64.1311 25.1866H64.3725C65.9053 25.1866 67.3195 24.6053 68.6153 23.4428C69.9245 22.1211 70.5786 20.6322 70.5777 18.976V18.8285C70.5777 17.1294 69.9549 15.64 68.7092 14.3603C67.8614 13.5761 67.07 13.0842 66.335 12.8848C65.7183 12.6573 65.0673 12.5366 64.4101 12.528H64.0922C62.6104 12.528 61.2212 13.0954 59.9245 14.2302C58.5912 15.5394 57.9245 17.0726 57.9245 18.8298Z" fill="#1A1A1A"/>
<path d="M77.2639 2.84845H77.3765C78.1116 2.84845 78.6929 3.21599 79.1203 3.95107C79.2563 4.21049 79.3267 4.49922 79.3256 4.79211V4.97856C79.3256 5.69084 78.9446 6.26226 78.1867 6.69955C77.9162 6.82228 77.6226 6.88584 77.3256 6.886C76.4796 6.886 75.8567 6.46258 75.457 5.61572C75.3731 5.4135 75.3277 5.19743 75.3229 4.97856V4.81089C75.3229 3.96582 75.77 3.34968 76.6643 2.96246C76.8566 2.89227 77.0591 2.85377 77.2639 2.84845ZM77.1901 9.29647H77.4584C77.8822 9.29647 78.2744 9.50841 78.6347 9.93228C78.8175 10.19 78.9214 10.4952 78.9339 10.8109V26.8645C78.9339 27.4512 78.6164 27.9247 77.9815 28.2851C77.7965 28.3598 77.601 28.405 77.402 28.4192H77.2518C76.7286 28.4192 76.2864 28.1451 75.9252 27.5969C75.7758 27.36 75.7011 26.9924 75.7011 26.4943V11.2227C75.7011 10.3736 75.956 9.81424 76.4684 9.53792C76.6792 9.38657 76.9307 9.30241 77.1901 9.29647Z" fill="#1A1A1A"/>
<path d="M89.6665 9.27929C91.6178 9.26957 93.5243 9.86368 95.1246 10.9802C95.3051 11.1378 95.4488 11.3331 95.5454 11.5524C95.6421 11.7717 95.6894 12.0095 95.6839 12.2491C95.6839 12.8111 95.4049 13.2645 94.8442 13.6133C94.6125 13.734 94.3579 13.8044 94.0971 13.8199C93.7099 13.8199 93.2489 13.6388 92.7141 13.2766C91.774 12.7654 90.7191 12.5023 89.6491 12.512H89.535C88.5639 12.512 87.5547 12.7982 86.5075 13.3705C85.1902 14.147 84.1918 15.3665 83.6906 16.8111C83.4699 17.4739 83.3563 18.1676 83.354 18.8661C83.354 20.6234 84.039 22.1744 85.409 23.5194C86.2585 24.2437 87.108 24.7177 87.9576 24.9413C88.4744 25.0895 89.0082 25.1707 89.5458 25.1827H89.6893C90.9604 25.1828 92.2028 24.8051 93.2587 24.0975C93.5168 23.9563 93.8056 23.8803 94.0998 23.8762C94.5961 23.8762 95.0387 24.119 95.4264 24.6032C95.5903 24.8675 95.6801 25.1709 95.6866 25.4818C95.6866 26.1552 95.3446 26.6725 94.6605 27.0338C93.1395 27.9558 91.3913 28.4348 89.6128 28.4168C87.556 28.4168 85.6186 27.7439 83.8006 26.398C83.3155 26.0028 82.8666 25.5651 82.4592 25.0902C81.9111 24.4427 81.5493 23.9316 81.3741 23.557C80.5519 22.1236 80.1199 20.4998 80.1212 18.8474C80.1212 16.7807 80.7691 14.8554 82.0649 13.0714C82.4481 12.5862 82.8669 12.1302 83.3177 11.7072C83.9123 11.1873 84.5644 10.7373 85.2614 10.3658C86.6237 9.66167 88.133 9.28939 89.6665 9.27929Z" fill="#189B9E"/>
<path d="M99.1922 9.2792C99.6268 9.2792 100.052 9.49114 100.464 9.91367C100.598 9.9986 100.753 10.045 100.912 10.0478H100.968C101.102 10.0478 101.397 9.94184 101.847 9.7299C102.624 9.43863 103.446 9.28696 104.276 9.28188C105.847 9.28188 107.305 9.82335 108.649 10.9063C108.769 11.0181 108.882 11.1372 108.987 11.2631C107.765 12.5079 107.129 13.1308 107.081 13.1316C106.959 13.2142 106.816 13.2607 106.669 13.2658C106.469 13.2658 106.188 13.1384 105.827 12.8915C105.327 12.641 104.776 12.5127 104.217 12.5173C103.27 12.5173 102.429 12.8969 101.695 13.6561C101.097 14.3082 100.769 15.164 100.779 16.0492V26.5723C100.779 27.2698 100.586 27.754 100.2 28.029C99.9413 28.2744 99.6008 28.4146 99.2446 28.422H99.0782C98.756 28.4104 98.4452 28.3001 98.1878 28.106C97.9303 27.9119 97.7388 27.6434 97.6389 27.3369C97.5642 27.0892 97.5325 26.8306 97.545 26.5723V11.1303C97.545 10.469 97.7261 10.0035 98.0816 9.72856C98.2268 9.58262 98.4001 9.46758 98.591 9.39036C98.7819 9.31313 98.9864 9.27532 99.1922 9.2792Z" fill="#189B9E"/>
<path d="M118.29 9.2605C120.943 9.2605 123.273 10.2634 125.28 12.2692C126.003 13.0673 126.363 13.6629 126.363 14.0613C126.361 14.1312 126.368 14.201 126.384 14.2692C126.384 14.6681 126.205 15.0544 125.847 15.4282C125.648 15.5891 122.558 17.7939 116.577 22.0425C116.577 22.0568 116.072 22.4244 115.062 23.1451C114.927 23.287 114.848 23.4727 114.838 23.6683V23.7823C114.838 24.0184 114.972 24.2223 115.231 24.398C116.241 24.9077 117.195 25.1635 118.092 25.1653H118.465C119.896 25.1653 121.255 24.6287 122.54 23.5556C123.238 22.846 123.648 22.3336 123.772 22.0237C124.032 21.5821 124.239 21.1117 124.39 20.622C124.514 20.0103 124.688 19.586 124.913 19.349C125.286 19.0137 125.667 18.846 126.052 18.846C126.8 18.846 127.317 19.201 127.604 19.9111C127.669 20.0712 127.701 20.2427 127.698 20.4154V20.4718C127.685 20.9582 127.454 21.7497 127.006 22.846C126.66 23.5799 126.227 24.2698 125.717 24.901C125.228 25.4835 124.677 26.0103 124.072 26.4718C123.262 27.0566 122.547 27.459 121.926 27.679C120.838 28.1425 119.67 28.3903 118.487 28.4087H118.189C116.257 28.4087 114.401 27.7921 112.62 26.559C111.812 25.9533 111.1 25.2299 110.507 24.4127C110.14 23.8788 109.815 23.3168 109.536 22.732C108.987 21.3736 108.712 20.0904 108.712 18.8822C108.712 16.5885 109.472 14.5013 110.993 12.6207C111.702 11.8731 112.219 11.3937 112.543 11.1827C114.307 9.90034 116.222 9.2596 118.29 9.2605ZM111.957 18.8098C111.957 19.6817 112.062 20.1995 112.276 20.3604C112.438 20.5109 112.652 20.5922 112.873 20.5871C113.061 20.5871 113.41 20.3725 113.919 19.95C113.981 19.9258 116.492 18.1436 121.451 14.6032C121.538 14.5298 121.608 14.4387 121.656 14.3359C121.705 14.2332 121.73 14.1212 121.732 14.0076V13.8923C121.732 13.671 121.608 13.4711 121.357 13.2967C120.35 12.7727 119.397 12.5111 118.498 12.512H118.127C116.671 12.512 115.276 13.079 113.942 14.2129C112.619 15.5561 111.957 17.0884 111.957 18.8098Z" fill="#189B9E"/>
<path d="M145.311 1.59717H145.445C146.032 1.59717 146.505 1.92179 146.867 2.56833C146.941 2.75384 146.987 2.94977 147.001 3.14915V26.8648C147.001 27.4907 146.658 27.9705 145.972 28.3041C145.774 28.3747 145.565 28.4127 145.355 28.4167C144.707 28.4167 144.216 28.072 143.88 27.3893C143.717 26.9636 143.455 26.7512 143.095 26.7521H143.057C142.827 26.7732 142.607 26.8577 142.421 26.9962C140.84 27.9432 139.227 28.4167 137.582 28.4167H137.301C135.395 28.4167 133.57 27.8185 131.826 26.622C130.941 25.9892 130.175 25.2044 129.564 24.3041C128.427 22.6782 127.826 20.7376 127.845 18.7534C127.845 16.837 128.436 15.0061 129.619 13.2605C130.505 12.1243 131.309 11.3544 132.034 10.9426C132.749 10.406 133.696 9.95889 134.874 9.60119C135.729 9.3818 136.609 9.26872 137.492 9.2645C139.247 9.2645 140.961 9.77513 142.632 10.7964C142.734 10.8355 142.84 10.8603 142.949 10.8701C143.309 10.8701 143.572 10.6716 143.733 10.2719C143.744 10.1981 143.751 10.1237 143.753 10.0492V3.52205C143.753 2.6278 144.083 2.02954 144.743 1.72728C144.925 1.65468 145.116 1.61078 145.311 1.59717ZM131.092 18.7347V18.9399C131.092 20.639 131.771 22.1655 133.13 23.5194C134.425 24.6166 135.795 25.1652 137.24 25.1652H137.578C138.984 25.1652 140.317 24.6479 141.576 23.6133C142.137 23.0888 142.523 22.6488 142.735 22.2866C143.407 21.201 143.744 20.0854 143.745 18.9399V18.7347C143.745 17.0544 143.066 15.5341 141.708 14.174C140.412 13.0678 139.035 12.5138 137.578 12.512H137.24C135.845 12.512 134.512 13.0284 133.241 14.0613C132.692 14.5871 132.311 15.0342 132.1 15.4027C131.45 16.3932 131.098 17.5499 131.088 18.7347H131.092Z" fill="#189B9E"/>
<path d="M3.90139 11.6562C3.67935 11.6556 3.46155 11.5953 3.27082 11.4816C3.08008 11.3679 2.92343 11.2051 2.81728 11.01C2.71112 10.815 2.65937 10.595 2.66744 10.3731C2.67552 10.1512 2.74312 9.93557 2.86316 9.74877C4.58952 7.07406 7.21729 5.29404 10.2609 4.73737C13.3045 4.1807 16.4165 4.92114 18.9799 6.82858C19.1102 6.92547 19.2202 7.04708 19.3036 7.18647C19.3869 7.32586 19.442 7.48031 19.4657 7.64099C19.4893 7.80167 19.4811 7.96544 19.4415 8.12294C19.4019 8.28045 19.3316 8.42861 19.2347 8.55896C19.1378 8.68932 19.0162 8.79931 18.8768 8.88267C18.7374 8.96602 18.583 9.0211 18.4223 9.04477C18.2616 9.06844 18.0979 9.06022 17.9404 9.02059C17.7829 8.98097 17.6347 8.91071 17.5043 8.81383C15.4923 7.31953 13.0778 6.73603 10.6995 7.17064C8.32124 7.60524 6.28905 8.99492 4.93157 11.0902C4.82039 11.2626 4.66798 11.4047 4.48812 11.5036C4.30826 11.6024 4.10661 11.6549 3.90139 11.6562Z" fill="#1A1A1A"/>
<path d="M1.23701 8.3912C1.01461 8.39149 0.796255 8.33173 0.604992 8.21825C0.413729 8.10476 0.256648 7.94175 0.150325 7.74641C0.0440023 7.55107 -0.007619 7.33065 0.000908722 7.10842C0.00943644 6.88618 0.0777968 6.67037 0.198776 6.48376C2.35438 3.14372 5.63137 0.92105 9.42882 0.227556C13.2464 -0.472645 17.1149 0.455591 20.3208 2.83923C20.4513 2.93611 20.5614 3.05774 20.6448 3.19716C20.7282 3.33659 20.7834 3.49108 20.8071 3.65183C20.8308 3.81257 20.8227 3.97641 20.7831 4.134C20.7435 4.29159 20.6733 4.43984 20.5764 4.57028C20.4795 4.70072 20.3579 4.8108 20.2184 4.89423C20.079 4.97767 19.9245 5.03283 19.7638 5.05656C19.603 5.08029 19.4392 5.07212 19.2816 5.03253C19.124 4.99294 18.9758 4.92269 18.8453 4.82581C16.1947 2.85532 13.0103 2.08671 9.8755 2.66082C6.74069 3.23493 4.05927 5.06457 2.27658 7.82514C2.16453 7.99896 2.01063 8.14188 1.829 8.24078C1.64737 8.33968 1.44382 8.3914 1.23701 8.3912Z" fill="#1A1A1A"/>
<path d="M29.1942 11.274C28.6026 10.7564 27.9433 10.3219 27.2344 9.9822C27.0802 9.9205 26.9004 9.84806 26.6979 9.75148C26.6388 9.72868 26.5785 9.7099 26.5195 9.68978C25.7497 9.43957 24.9465 9.30706 24.1372 9.29675C23.1549 9.29901 22.1823 9.48981 21.272 9.85879C21.2398 9.87355 21.2063 9.88562 21.1727 9.89904C21.0574 9.94867 20.9433 10.005 20.8293 10.06C20.7153 10.115 20.5973 10.1767 20.4832 10.2384L20.3746 10.3015C20.0748 10.4781 19.7859 10.6725 19.5094 10.8836C19.3239 11.0676 19.1253 11.238 18.9152 11.3933C18.7006 11.5623 18.5208 11.6482 18.3786 11.6482H18.3022C18.1586 11.6482 17.9789 11.5623 17.7656 11.3933C17.5567 11.2365 17.3582 11.0663 17.1714 10.8836C16.8955 10.6728 16.6075 10.4784 16.3089 10.3015L16.1989 10.2384C16.0835 10.1767 15.9695 10.1177 15.8528 10.06C15.7361 10.0023 15.6248 9.94867 15.5081 9.89904L15.4088 9.85879C14.499 9.48982 13.5267 9.29901 12.545 9.29675C11.7302 9.3056 10.9215 9.43812 10.1466 9.68978C10.0875 9.7099 10.0285 9.72868 9.9695 9.75148C9.76293 9.8427 9.58318 9.9205 9.43295 9.9822C8.7235 10.3215 8.0637 10.7561 7.47185 11.274C6.66702 12.1244 6.16892 12.7785 5.97755 13.2364C5.43026 14.3596 5.15618 15.3008 5.15528 16.06V26.2652C5.13695 26.629 5.20115 26.9922 5.34308 27.3276C5.45527 27.5008 5.59067 27.6579 5.74549 27.7944C5.87113 27.8894 6.00594 27.9716 6.1479 28.0399C6.32309 28.1187 6.51141 28.1641 6.70324 28.174H6.76092C6.97488 28.1619 7.18506 28.1124 7.38197 28.0278C7.43009 28.007 7.4771 27.9837 7.52282 27.9581C7.80783 27.7717 8.03649 27.511 8.18412 27.2042C8.29595 26.9043 8.34701 26.5851 8.33436 26.2652V16.0426C8.37728 15.506 8.60263 14.9453 9.00505 14.3444C9.06407 14.2585 9.12577 14.1713 9.1915 14.0841C9.66374 13.4888 10.2827 13.0266 10.9876 12.7428L11.0627 12.7106C11.17 12.6717 11.28 12.6395 11.3914 12.61C11.4437 12.5952 11.4973 12.5764 11.551 12.5644C11.6368 12.5456 11.7254 12.5308 11.8193 12.5174C11.9132 12.504 11.9722 12.4892 12.0513 12.4799C12.1305 12.4705 12.2525 12.4691 12.3558 12.4638C12.4189 12.4638 12.4779 12.453 12.5409 12.453H12.561C12.7193 12.4531 12.8773 12.462 13.0346 12.4799C13.0788 12.4799 13.1204 12.4933 13.1687 12.5C13.272 12.5161 13.378 12.5295 13.4799 12.5523C13.614 12.5818 13.7361 12.618 13.8622 12.6583L13.8917 12.6676C14.721 12.9561 15.4485 13.4795 15.9856 14.174C16.4846 14.9467 16.7341 15.5503 16.7341 15.9849V26.2652C16.7244 26.6197 16.7945 26.9717 16.9393 27.2954C17.0492 27.4931 17.1926 27.6701 17.3632 27.8185C17.4689 27.8995 17.5837 27.9679 17.7052 28.0224C17.8935 28.0989 18.0919 28.1477 18.2941 28.1673H18.3411H18.3867C18.5889 28.1477 18.7873 28.0989 18.9755 28.0224C19.0971 27.9685 19.2119 27.9005 19.3176 27.8199C19.4885 27.6713 19.632 27.4937 19.7415 27.2954C19.8874 26.9721 19.958 26.6198 19.948 26.2652V15.9849C19.948 15.5494 20.1971 14.9458 20.6952 14.174C21.2328 13.4794 21.9608 12.9561 22.7904 12.6676L22.8199 12.6583C22.9447 12.618 23.0708 12.5818 23.2009 12.5523C23.3028 12.5295 23.4088 12.5161 23.5134 12.5C23.5564 12.5 23.5993 12.4825 23.6476 12.4799C23.8043 12.4621 23.962 12.4531 24.1197 12.453H24.1385C24.2002 12.453 24.2606 12.4624 24.3236 12.4638C24.4256 12.4638 24.5302 12.4638 24.6281 12.4799C24.726 12.4959 24.7824 12.504 24.8588 12.5174C24.9353 12.5308 25.0372 12.5456 25.1271 12.5644C25.1808 12.5764 25.2344 12.5952 25.2867 12.61C25.3981 12.6395 25.5081 12.6717 25.6154 12.7106L25.6905 12.7428C26.396 13.0262 27.0155 13.4885 27.4879 14.0841C27.5537 14.1713 27.6154 14.2585 27.6744 14.3444C28.0768 14.9453 28.3008 15.51 28.3451 16.0426V26.2652C28.3328 26.5849 28.3834 26.904 28.494 27.2042C28.6424 27.5109 28.8714 27.7715 29.1566 27.9581C29.2027 27.984 29.2501 28.0072 29.2988 28.0278C29.4948 28.1124 29.7041 28.1619 29.9172 28.174H29.9749C30.1671 28.1643 30.3559 28.1188 30.5315 28.0399C30.6735 27.9717 30.8084 27.8895 30.934 27.7944C31.0895 27.6586 31.225 27.5015 31.3364 27.3276C31.4793 26.9925 31.544 26.6291 31.5255 26.2652V16.06C31.5255 15.2999 31.2514 14.3587 30.7032 13.2364C30.502 12.7776 29.999 12.1235 29.1942 11.274Z" fill="#1A1A1A"/>
</svg>
